<svg version="1.1" id="prefix__Layer_1" xmlns="http://www.w3.org/2000/svg" x="0" y="0" viewBox="0 0 960 960" xml:space="preserve"><style>.prefix__st0{fill:#333}.prefix__st2{fill:#aaa}</style><g id="prefix__Layer_1_1_"><path d="M744.8 338.3h-81.3v-41c0-7.1 5.7-12.8 12.8-12.8h55.8c7.1 0 12.8 5.7 12.8 12.8l-.1 41z"/><path class="prefix__st0" d="M761 675.5H199c-14.1 0-25.5-11.4-25.5-25.5V338.8c0-14.1 11.4-25.5 25.5-25.5h562c14.1 0 25.5 11.4 25.5 25.5V650c.1 14.1-11.4 25.5-25.5 25.5z"/><path d="M761 632.9H199c-14.1 0-25.5-11.4-25.5-25.5V650c0 14.1 11.4 25.5 25.5 25.5h562c14.1 0 25.5-11.4 25.5-25.5v-42.6c.1 14.1-11.4 25.5-25.5 25.5z" fill="#0f0f0f"/><path class="prefix__st2" d="M173.4 398.7h613.1v202.1H173.4z"/><circle cx="480" cy="495.3" r="110.2" stroke="#fff" stroke-width="29.803" stroke-miterlimit="10"/><circle class="prefix__st0" cx="480" cy="495.3" r="63"/><circle cx="440.6" cy="455.9" r="23.6" fill="#fff"/><circle cx="234.3" cy="356.5" r="18.4" fill="#cc333f"/><path class="prefix__st2" d="M675.5 342.8h69.4v27.6h-69.4z"/></g></svg>
