<svg width="273" height="324" viewBox="0 0 273 324" fill="none" xmlns="http://www.w3.org/2000/svg">
  <defs>
    <style>
      @keyframes animate-svg-stroke-1{0%{stroke-dashoffset:968.3631591796875px;stroke-dasharray:968.3631591796875px}100%{stroke-dashoffset:0;stroke-dasharray:968.3631591796875px}}@keyframes animate-svg-fill-1{0%{fill:transparent}100%{fill:rgb(186,186,186)}}.svg-elem-1{animation:animate-svg-stroke-1 0.6s ease-in-out 0s both,animate-svg-fill-1 0.1s ease 0s both}@keyframes animate-svg-stroke-2{0%{stroke-dashoffset:456.7350158691406px;stroke-dasharray:456.7350158691406px}100%{stroke-dashoffset:0;stroke-dasharray:456.7350158691406px}}@keyframes animate-svg-fill-2{0%{fill:transparent}100%{fill:rgb(255,255,255)}}.svg-elem-2{animation:animate-svg-stroke-2 0.6s ease-in-out 0.12s both,animate-svg-fill-2 0.1s ease 0.07s both}@keyframes animate-svg-stroke-3{0%{stroke-dashoffset:854.4761352539062px;stroke-dasharray:854.4761352539062px}100%{stroke-dashoffset:0;stroke-dasharray:854.4761352539062px}}@keyframes animate-svg-fill-3{0%{fill:transparent}100%{fill:rgb(186,186,186)}}.svg-elem-3{animation:animate-svg-stroke-3 0.6s ease-in-out 0.24s both,animate-svg-fill-3 0.1s ease 0.14s both}@keyframes animate-svg-stroke-4{0%{stroke-dashoffset:1356.05322265625px;stroke-dasharray:1356.05322265625px}100%{stroke-dashoffset:0;stroke-dasharray:1356.05322265625px}}@keyframes animate-svg-fill-4{0%{fill:transparent}100%{fill:rgb(186,186,186)}}.svg-elem-4{animation:animate-svg-stroke-4 0.6s ease-in-out 0.36s both,animate-svg-fill-4 0.1s ease 0.21000000000000002s both}@keyframes animate-svg-stroke-5{0%{stroke-dashoffset:573.474853515625px;stroke-dasharray:573.474853515625px}100%{stroke-dashoffset:0;stroke-dasharray:573.474853515625px}}@keyframes animate-svg-fill-5{0%{fill:transparent}100%{fill:rgb(248,248,248)}}.svg-elem-5{animation:animate-svg-stroke-5 0.6s ease-in-out 0.48s both,animate-svg-fill-5 0.1s ease 0.28s both}@keyframes animate-svg-stroke-6{0%{stroke-dashoffset:1161.68115234375px;stroke-dasharray:1161.68115234375px}100%{stroke-dashoffset:0;stroke-dasharray:1161.68115234375px}}@keyframes animate-svg-fill-6{0%{fill:transparent}100%{fill:rgb(186,186,186)}}.svg-elem-6{animation:animate-svg-stroke-6 0.6s ease-in-out 0.6s both,animate-svg-fill-6 0.1s ease 0.35000000000000003s both}@keyframes animate-svg-stroke-7{0%{stroke-dashoffset:413.00909423828125px;stroke-dasharray:413.00909423828125px}100%{stroke-dashoffset:0;stroke-dasharray:413.00909423828125px}}@keyframes animate-svg-fill-7{0%{fill:transparent}100%{fill:rgb(255,255,255)}}.svg-elem-7{animation:animate-svg-stroke-7 0.6s ease-in-out 0.72s both,animate-svg-fill-7 0.1s ease 0.42000000000000004s both}@keyframes animate-svg-stroke-8{0%{stroke-dashoffset:836.2498779296875px;stroke-dasharray:836.2498779296875px}100%{stroke-dashoffset:0;stroke-dasharray:836.2498779296875px}}@keyframes animate-svg-fill-8{0%{fill:transparent}100%{fill:rgb(186,186,186)}}.svg-elem-8{animation:animate-svg-stroke-8 0.6s ease-in-out 0.84s both,animate-svg-fill-8 0.1s ease 0.49000000000000005s both}@keyframes animate-svg-stroke-9{0%{stroke-dashoffset:504.5023193359375px;stroke-dasharray:504.5023193359375px}100%{stroke-dashoffset:0;stroke-dasharray:504.5023193359375px}}@keyframes animate-svg-fill-9{0%{fill:transparent}100%{fill:rgb(210,210,210)}}.svg-elem-9{animation:animate-svg-stroke-9 0.6s ease-in-out 0.96s both,animate-svg-fill-9 0.1s ease 0.56s both}@keyframes animate-svg-stroke-10{0%{stroke-dashoffset:69.31480407714844px;stroke-dasharray:69.31480407714844px}100%{stroke-dashoffset:0;stroke-dasharray:69.31480407714844px}}@keyframes animate-svg-fill-10{0%{fill:transparent}100%{fill:rgb(230,230,230)}}.svg-elem-10{animation:animate-svg-stroke-10 0.6s ease-in-out 1.08s both,animate-svg-fill-10 0.1s ease 0.6300000000000001s both}@keyframes animate-svg-stroke-11{0%{stroke-dashoffset:653.1294555664062px;stroke-dasharray:653.1294555664062px}100%{stroke-dashoffset:0;stroke-dasharray:653.1294555664062px}}@keyframes animate-svg-fill-11{0%{fill:transparent}100%{fill:rgb(255,255,255)}}.svg-elem-11{animation:animate-svg-stroke-11 0.6s ease-in-out 1.2s both,animate-svg-fill-11 0.1s ease 0.7000000000000001s both}@keyframes animate-svg-stroke-12{0%{stroke-dashoffset:1004.4371337890625px;stroke-dasharray:1004.4371337890625px}100%{stroke-dashoffset:0;stroke-dasharray:1004.4371337890625px}}@keyframes animate-svg-fill-12{0%{fill:transparent}100%{fill:rgb(186,186,186)}}.svg-elem-12{animation:animate-svg-stroke-12 0.6s ease-in-out 1.3199999999999998s both,animate-svg-fill-12 0.1s ease 0.77s both}@keyframes animate-svg-stroke-13{0%{stroke-dashoffset:239.6815643310547px;stroke-dasharray:239.6815643310547px}100%{stroke-dashoffset:0;stroke-dasharray:239.6815643310547px}}@keyframes animate-svg-fill-13{0%{fill:transparent}100%{fill:rgb(255,255,255)}}.svg-elem-13{animation:animate-svg-stroke-13 0.6s ease-in-out 1.44s both,animate-svg-fill-13 0.1s ease 0.8400000000000001s both}@keyframes animate-svg-stroke-14{0%{stroke-dashoffset:475.4707946777344px;stroke-dasharray:475.4707946777344px}100%{stroke-dashoffset:0;stroke-dasharray:475.4707946777344px}}@keyframes animate-svg-fill-14{0%{fill:transparent}100%{fill:rgb(186,186,186)}}.svg-elem-14{animation:animate-svg-stroke-14 0.6s ease-in-out 1.56s both,animate-svg-fill-14 0.1s ease 0.9100000000000001s both}@keyframes animate-svg-stroke-15{0%{stroke-dashoffset:438.3843994140625px;stroke-dasharray:438.3843994140625px}100%{stroke-dashoffset:0;stroke-dasharray:438.3843994140625px}}@keyframes animate-svg-fill-15{0%{fill:transparent}100%{fill:rgb(255,255,255)}}.svg-elem-15{animation:animate-svg-stroke-15 0.6s ease-in-out 1.68s both,animate-svg-fill-15 0.1s ease 0.9800000000000001s both}@keyframes animate-svg-stroke-16{0%{stroke-dashoffset:402.70343017578125px;stroke-dasharray:402.70343017578125px}100%{stroke-dashoffset:0;stroke-dasharray:402.70343017578125px}}@keyframes animate-svg-fill-16{0%{fill:transparent}100%{fill:rgb(240,240,240)}}.svg-elem-16{animation:animate-svg-stroke-16 0.6s ease-in-out 1.7999999999999998s both,animate-svg-fill-16 0.1s ease 1.05s both}@keyframes animate-svg-stroke-17{0%{stroke-dashoffset:290.29132080078125px;stroke-dasharray:290.29132080078125px}100%{stroke-dashoffset:0;stroke-dasharray:290.29132080078125px}}@keyframes animate-svg-fill-17{0%{fill:transparent}100%{fill:rgb(220,220,220)}}.svg-elem-17{animation:animate-svg-stroke-17 0.6s ease-in-out 1.92s both,animate-svg-fill-17 0.1s ease 1.12s both}@keyframes animate-svg-stroke-18{0%{stroke-dashoffset:402.7034606933594px;stroke-dasharray:402.7034606933594px}100%{stroke-dashoffset:0;stroke-dasharray:402.7034606933594px}}@keyframes animate-svg-fill-18{0%{fill:transparent}100%{fill:rgb(225,225,225)}}.svg-elem-18{animation:animate-svg-stroke-18 0.6s ease-in-out 2.04s both,animate-svg-fill-18 0.1s ease 1.1900000000000002s both}@keyframes animate-svg-stroke-19{0%{stroke-dashoffset:580.4366455078125px;stroke-dasharray:580.4366455078125px}100%{stroke-dashoffset:0;stroke-dasharray:580.4366455078125px}}@keyframes animate-svg-fill-19{0%{fill:transparent}100%{fill:rgb(186,186,186)}}.svg-elem-19{animation:animate-svg-stroke-19 0.6s ease-in-out 2.16s both,animate-svg-fill-19 0.1s ease 1.2600000000000002s both}@keyframes animate-svg-stroke-20{0%{stroke-dashoffset:874.0715942382812px;stroke-dasharray:874.0715942382812px}100%{stroke-dashoffset:0;stroke-dasharray:874.0715942382812px}}@keyframes animate-svg-fill-20{0%{fill:transparent}100%{fill:rgb(186,186,186)}}.svg-elem-20{animation:animate-svg-stroke-20 0.6s ease-in-out 2.28s both,animate-svg-fill-20 0.1s ease 1.33s both}@keyframes animate-svg-stroke-21{0%{stroke-dashoffset:81.62319946289062px;stroke-dasharray:81.62319946289062px}100%{stroke-dashoffset:0;stroke-dasharray:81.62319946289062px}}@keyframes animate-svg-fill-21{0%{fill:transparent}100%{fill:rgb(240,240,240)}}.svg-elem-21{animation:animate-svg-stroke-21 0.6s ease-in-out 2.4s both,animate-svg-fill-21 0.1s ease 1.4000000000000001s both}@keyframes animate-svg-stroke-22{0%{stroke-dashoffset:159.14491271972656px;stroke-dasharray:159.14491271972656px}100%{stroke-dashoffset:0;stroke-dasharray:159.14491271972656px}}@keyframes animate-svg-fill-22{0%{fill:transparent}100%{fill:rgb(186,186,186)}}.svg-elem-22{animation:animate-svg-stroke-22 0.6s ease-in-out 2.52s both,animate-svg-fill-22 0.1s ease 1.4700000000000002s both}@keyframes animate-svg-stroke-23{0%{stroke-dashoffset:72.97618865966797px;stroke-dasharray:72.97618865966797px}100%{stroke-dashoffset:0;stroke-dasharray:72.97618865966797px}}@keyframes animate-svg-fill-23{0%{fill:transparent}100%{fill:rgb(248,248,248)}}.svg-elem-23{animation:animate-svg-stroke-23 0.6s ease-in-out 2.6399999999999997s both,animate-svg-fill-23 0.1s ease 1.54s both}@keyframes animate-svg-stroke-24{0%{stroke-dashoffset:152.293212890625px;stroke-dasharray:152.293212890625px}100%{stroke-dashoffset:0;stroke-dasharray:152.293212890625px}}@keyframes animate-svg-fill-24{0%{fill:transparent}100%{fill:rgb(186,186,186)}}.svg-elem-24{animation:animate-svg-stroke-24 0.6s ease-in-out 2.76s both,animate-svg-fill-24 0.1s ease 1.61s both}@keyframes animate-svg-stroke-25{0%{stroke-dashoffset:530.7015380859375px;stroke-dasharray:530.7015380859375px}100%{stroke-dashoffset:0;stroke-dasharray:530.7015380859375px}}@keyframes animate-svg-fill-25{0%{fill:transparent}100%{fill:rgb(186,186,186)}}.svg-elem-25{animation:animate-svg-stroke-25 0.6s ease-in-out 2.88s both,animate-svg-fill-25 0.1s ease 1.6800000000000002s both}@keyframes animate-svg-stroke-26{0%{stroke-dashoffset:869.9425048828125px;stroke-dasharray:869.9425048828125px}100%{stroke-dashoffset:0;stroke-dasharray:869.9425048828125px}}@keyframes animate-svg-fill-26{0%{fill:transparent}100%{fill:rgb(186,186,186)}}.svg-elem-26{animation:animate-svg-stroke-26 0.6s ease-in-out 3s both,animate-svg-fill-26 0.1s ease 1.7500000000000002s both}@keyframes animate-svg-stroke-27{0%{stroke-dashoffset:468.8631896972656px;stroke-dasharray:468.8631896972656px}100%{stroke-dashoffset:0;stroke-dasharray:468.8631896972656px}}@keyframes animate-svg-fill-27{0%{fill:transparent}100%{fill:rgb(155,155,155)}}.svg-elem-27{animation:animate-svg-stroke-27 0.6s ease-in-out 3.12s both,animate-svg-fill-27 0.1s ease 1.8200000000000003s both}@keyframes animate-svg-stroke-28{0%{stroke-dashoffset:836.3358764648438px;stroke-dasharray:836.3358764648438px}100%{stroke-dashoffset:0;stroke-dasharray:836.3358764648438px}}.svg-elem-28{animation:animate-svg-stroke-28 0.6s ease-in-out 3.2399999999999998s both,animate-svg-fill-28 0.1s ease 1.8900000000000001s both}@keyframes animate-svg-stroke-29{0%{stroke-dashoffset:500.0037841796875px;stroke-dasharray:500.0037841796875px}100%{stroke-dashoffset:0;stroke-dasharray:500.0037841796875px}}@keyframes animate-svg-fill-29{0%{fill:transparent}100%{fill:rgb(255,255,255)}}.svg-elem-29{animation:animate-svg-stroke-29 0.6s ease-in-out 3.36s both,animate-svg-fill-29 0.1s ease 1.9600000000000002s both}@keyframes animate-svg-stroke-30{0%{stroke-dashoffset:740.0925903320312px;stroke-dasharray:740.0925903320312px}100%{stroke-dashoffset:0;stroke-dasharray:740.0925903320312px}}.svg-elem-30{animation:animate-svg-stroke-30 0.6s ease-in-out 3.48s both,animate-svg-fill-30 0.1s ease 2.0300000000000002s both}@keyframes animate-svg-stroke-31{0%{stroke-dashoffset:454.80810546875px;stroke-dasharray:454.80810546875px}100%{stroke-dashoffset:0;stroke-dasharray:454.80810546875px}}@keyframes animate-svg-fill-31{0%{fill:transparent}100%{fill:rgb(186,186,186)}}.svg-elem-31{animation:animate-svg-stroke-31 0.6s ease-in-out 3.5999999999999996s both,animate-svg-fill-31 0.1s ease 2.1s both}@keyframes animate-svg-stroke-32{0%{stroke-dashoffset:233.6781463623047px;stroke-dasharray:233.6781463623047px}100%{stroke-dashoffset:0;stroke-dasharray:233.6781463623047px}}@keyframes animate-svg-fill-32{0%{fill:transparent}100%{fill:rgb(186,186,186)}}.svg-elem-32{animation:animate-svg-stroke-32 0.6s ease-in-out 3.7199999999999998s both,animate-svg-fill-32 0.1s ease 2.1700000000000004s both}@keyframes animate-svg-stroke-33{0%{stroke-dashoffset:218.5591278076172px;stroke-dasharray:218.5591278076172px}100%{stroke-dashoffset:0;stroke-dasharray:218.5591278076172px}}@keyframes animate-svg-fill-33{0%{fill:transparent}100%{fill:rgb(210,210,210)}}.svg-elem-33{animation:animate-svg-stroke-33 0.6s ease-in-out 3.84s both,animate-svg-fill-33 0.1s ease 2.24s both}@keyframes animate-svg-stroke-34{0%{stroke-dashoffset:149.24578857421875px;stroke-dasharray:149.24578857421875px}100%{stroke-dashoffset:0;stroke-dasharray:149.24578857421875px}}.svg-elem-34{animation:animate-svg-stroke-34 0.6s ease-in-out 3.96s both,animate-svg-fill-34 0.1s ease 2.31s both}@keyframes animate-svg-stroke-35{0%{stroke-dashoffset:359.5492248535156px;stroke-dasharray:359.5492248535156px}100%{stroke-dashoffset:0;stroke-dasharray:359.5492248535156px}}@keyframes animate-svg-fill-35{0%{fill:transparent}100%{fill:rgb(217,217,217)}}.svg-elem-35{animation:animate-svg-stroke-35 0.6s ease-in-out 4.08s both,animate-svg-fill-35 0.1s ease 2.3800000000000003s both}@keyframes animate-svg-stroke-36{0%{stroke-dashoffset:366.9932861328125px;stroke-dasharray:366.9932861328125px}100%{stroke-dashoffset:0;stroke-dasharray:366.9932861328125px}}@keyframes animate-svg-fill-36{0%{fill:transparent}100%{fill:rgb(186,186,186)}}.svg-elem-36{animation:animate-svg-stroke-36 0.6s ease-in-out 4.2s both,animate-svg-fill-36 0.1s ease 2.45s both}@keyframes animate-svg-stroke-37{0%{stroke-dashoffset:356.3530578613281px;stroke-dasharray:356.3530578613281px}100%{stroke-dashoffset:0;stroke-dasharray:356.3530578613281px}}@keyframes animate-svg-fill-37{0%{fill:transparent}100%{fill:rgb(210,210,210)}}.svg-elem-37{animation:animate-svg-stroke-37 0.6s ease-in-out 4.32s both,animate-svg-fill-37 0.1s ease 2.5200000000000005s both}@keyframes animate-svg-stroke-38{0%{stroke-dashoffset:60.49055099487305px;stroke-dasharray:60.49055099487305px}100%{stroke-dashoffset:0;stroke-dasharray:60.49055099487305px}}@keyframes animate-svg-fill-38{0%{fill:transparent}100%{fill:rgb(91,91,91)}}.svg-elem-38{animation:animate-svg-stroke-38 0.6s ease-in-out 4.4399999999999995s both,animate-svg-fill-38 0.1s ease 2.5900000000000003s both}@keyframes animate-svg-stroke-39{0%{stroke-dashoffset:57.942237854003906px;stroke-dasharray:57.942237854003906px}100%{stroke-dashoffset:0;stroke-dasharray:57.942237854003906px}}@keyframes animate-svg-fill-39{0%{fill:transparent}100%{fill:rgb(146,146,146)}}.svg-elem-39{animation:animate-svg-stroke-39 0.6s ease-in-out 4.56s both,animate-svg-fill-39 0.1s ease 2.66s both}@keyframes animate-svg-stroke-40{0%{stroke-dashoffset:198.53347778320312px;stroke-dasharray:198.53347778320312px}100%{stroke-dashoffset:0;stroke-dasharray:198.53347778320312px}}.svg-elem-40{animation:animate-svg-stroke-40 0.6s ease-in-out 4.68s both,animate-svg-fill-40 0.1s ease 2.7300000000000004s both}@keyframes animate-svg-stroke-41{0%{stroke-dashoffset:207.36248779296875px;stroke-dasharray:207.36248779296875px}100%{stroke-dashoffset:0;stroke-dasharray:207.36248779296875px}}@keyframes animate-svg-fill-41{0%{fill:transparent}100%{fill:rgb(210,210,210)}}.svg-elem-41{animation:animate-svg-stroke-41 0.6s ease-in-out 4.8s both,animate-svg-fill-41 0.1s ease 2.8000000000000003s both}@keyframes animate-svg-stroke-42{0%{stroke-dashoffset:191.8824462890625px;stroke-dasharray:191.8824462890625px}100%{stroke-dashoffset:0;stroke-dasharray:191.8824462890625px}}@keyframes animate-svg-fill-42{0%{fill:transparent}100%{fill:rgb(255,255,255)}}.svg-elem-42{animation:animate-svg-stroke-42 0.6s ease-in-out 4.92s both,animate-svg-fill-42 0.1s ease 2.87s both}@keyframes animate-svg-stroke-43{0%{stroke-dashoffset:73.36732482910156px;stroke-dasharray:73.36732482910156px}100%{stroke-dashoffset:0;stroke-dasharray:73.36732482910156px}}@keyframes animate-svg-fill-43{0%{fill:transparent}100%{fill:rgb(210,210,210)}}.svg-elem-43{animation:animate-svg-stroke-43 0.6s ease-in-out 5.04s both,animate-svg-fill-43 0.1s ease 2.9400000000000004s both}@keyframes animate-svg-stroke-44{0%{stroke-dashoffset:37.66698455810547px;stroke-dasharray:37.66698455810547px}100%{stroke-dashoffset:0;stroke-dasharray:37.66698455810547px}}@keyframes animate-svg-fill-44{0%{fill:transparent}100%{fill:rgb(84,84,84)}}.svg-elem-44{animation:animate-svg-stroke-44 0.6s ease-in-out 5.16s both,animate-svg-fill-44 0.1s ease 3.0100000000000002s both}@keyframes animate-svg-stroke-45{0%{stroke-dashoffset:34.12100601196289px;stroke-dasharray:34.12100601196289px}100%{stroke-dashoffset:0;stroke-dasharray:34.12100601196289px}}@keyframes animate-svg-fill-45{0%{fill:transparent}100%{fill:rgb(128,128,128)}}.svg-elem-45{animation:animate-svg-stroke-45 0.6s ease-in-out 5.279999999999999s both,animate-svg-fill-45 0.1s ease 3.08s both}@keyframes animate-svg-stroke-46{0%{stroke-dashoffset:150.07235717773438px;stroke-dasharray:150.07235717773438px}100%{stroke-dashoffset:0;stroke-dasharray:150.07235717773438px}}@keyframes animate-svg-fill-46{0%{fill:transparent}100%{fill:rgb(186,186,186)}}.svg-elem-46{animation:animate-svg-stroke-46 0.6s ease-in-out 5.3999999999999995s both,animate-svg-fill-46 0.1s ease 3.1500000000000004s both}@keyframes animate-svg-stroke-47{0%{stroke-dashoffset:117.55496978759766px;stroke-dasharray:117.55496978759766px}100%{stroke-dashoffset:0;stroke-dasharray:117.55496978759766px}}@keyframes animate-svg-fill-47{0%{fill:transparent}100%{fill:rgb(210,210,210)}}.svg-elem-47{animation:animate-svg-stroke-47 0.6s ease-in-out 5.52s both,animate-svg-fill-47 0.1s ease 3.22s both}@keyframes animate-svg-stroke-48{0%{stroke-dashoffset:211.4215087890625px;stroke-dasharray:211.4215087890625px}100%{stroke-dashoffset:0;stroke-dasharray:211.4215087890625px}}@keyframes animate-svg-fill-48{0%{fill:transparent}100%{fill:rgb(42,203,17)}}.svg-elem-48{animation:animate-svg-stroke-48 0.6s ease-in-out 5.64s both,animate-svg-fill-48 0.1s ease 3.2900000000000005s both}@keyframes animate-svg-stroke-49{0%{stroke-dashoffset:203.04432678222656px;stroke-dasharray:203.04432678222656px}100%{stroke-dashoffset:0;stroke-dasharray:203.04432678222656px}}@keyframes animate-svg-fill-49{0%{fill:transparent}100%{fill:rgb(45,221,17)}}.svg-elem-49{animation:animate-svg-stroke-49 0.6s ease-in-out 5.76s both,animate-svg-fill-49 0.1s ease 3.3600000000000003s both}@keyframes animate-svg-stroke-50{0%{stroke-dashoffset:93.02954864501953px;stroke-dasharray:93.02954864501953px}100%{stroke-dashoffset:0;stroke-dasharray:93.02954864501953px}}@keyframes animate-svg-fill-50{0%{fill:transparent}100%{fill:rgb(255,255,255)}}.svg-elem-50{animation:animate-svg-stroke-50 0.6s ease-in-out 5.88s both,animate-svg-fill-50 0.1s ease 3.43s both}@keyframes animate-svg-stroke-51{0%{stroke-dashoffset:248.81277465820312px;stroke-dasharray:248.81277465820312px}100%{stroke-dashoffset:0;stroke-dasharray:248.81277465820312px}}@keyframes animate-svg-fill-51{0%{fill:transparent}100%{fill:rgb(238,238,238)}}.svg-elem-51{animation:animate-svg-stroke-51 0.6s ease-in-out 6s both,animate-svg-fill-51 0.1s ease 3.5000000000000004s both}@keyframes animate-svg-stroke-52{0%{stroke-dashoffset:498.53643798828125px;stroke-dasharray:498.53643798828125px}100%{stroke-dashoffset:0;stroke-dasharray:498.53643798828125px}}@keyframes animate-svg-fill-52{0%{fill:transparent}100%{fill:rgb(186,186,186)}}.svg-elem-52{animation:animate-svg-stroke-52 0.6s ease-in-out 6.12s both,animate-svg-fill-52 0.1s ease 3.5700000000000003s both}@keyframes animate-svg-stroke-53{0%{stroke-dashoffset:243.39564514160156px;stroke-dasharray:243.39564514160156px}100%{stroke-dashoffset:0;stroke-dasharray:243.39564514160156px}}@keyframes animate-svg-fill-53{0%{fill:transparent}100%{fill:rgb(238,238,238)}}.svg-elem-53{animation:animate-svg-stroke-53 0.6s ease-in-out 6.24s both,animate-svg-fill-53 0.1s ease 3.6400000000000006s both}@keyframes animate-svg-stroke-54{0%{stroke-dashoffset:484.73516845703125px;stroke-dasharray:484.73516845703125px}100%{stroke-dashoffset:0;stroke-dasharray:484.73516845703125px}}@keyframes animate-svg-fill-54{0%{fill:transparent}100%{fill:rgb(151,151,151)}}.svg-elem-54{animation:animate-svg-stroke-54 0.6s ease-in-out 6.359999999999999s both,animate-svg-fill-54 0.1s ease 3.7100000000000004s both}@keyframes animate-svg-stroke-55{0%{stroke-dashoffset:238.4935302734375px;stroke-dasharray:238.4935302734375px}100%{stroke-dashoffset:0;stroke-dasharray:238.4935302734375px}}@keyframes animate-svg-fill-55{0%{fill:transparent}100%{fill:rgb(255,255,255)}}.svg-elem-55{animation:animate-svg-stroke-55 0.6s ease-in-out 6.4799999999999995s both,animate-svg-fill-55 0.1s ease 3.7800000000000002s both}@keyframes animate-svg-stroke-56{0%{stroke-dashoffset:475.16595458984375px;stroke-dasharray:475.16595458984375px}100%{stroke-dashoffset:0;stroke-dasharray:475.16595458984375px}}@keyframes animate-svg-fill-56{0%{fill:transparent}100%{fill:rgb(151,151,151)}}.svg-elem-56{animation:animate-svg-stroke-56 0.6s ease-in-out 6.6s both,animate-svg-fill-56 0.1s ease 3.8500000000000005s both}@keyframes animate-svg-stroke-57{0%{stroke-dashoffset:83.41365051269531px;stroke-dasharray:83.41365051269531px}100%{stroke-dashoffset:0;stroke-dasharray:83.41365051269531px}}@keyframes animate-svg-fill-57{0%{fill:transparent}100%{fill:rgb(255,255,255)}}.svg-elem-57{animation:animate-svg-stroke-57 0.6s ease-in-out 6.72s both,animate-svg-fill-57 0.1s ease 3.9200000000000004s both}@keyframes animate-svg-stroke-58{0%{stroke-dashoffset:86.29654693603516px;stroke-dasharray:86.29654693603516px}100%{stroke-dashoffset:0;stroke-dasharray:86.29654693603516px}}@keyframes animate-svg-fill-58{0%{fill:transparent}100%{fill:rgb(186,186,186)}}.svg-elem-58{animation:animate-svg-stroke-58 0.6s ease-in-out 6.84s both,animate-svg-fill-58 0.1s ease 3.99s both}@keyframes animate-svg-stroke-59{0%{stroke-dashoffset:30.877817153930664px;stroke-dasharray:30.877817153930664px}100%{stroke-dashoffset:0;stroke-dasharray:30.877817153930664px}}@keyframes animate-svg-fill-59{0%{fill:transparent}100%{fill:rgb(151,151,151)}}.svg-elem-59{animation:animate-svg-stroke-59 0.6s ease-in-out 6.96s both,animate-svg-fill-59 0.1s ease 4.0600000000000005s both}@keyframes animate-svg-stroke-60{0%{stroke-dashoffset:31.020614624023438px;stroke-dasharray:31.020614624023438px}100%{stroke-dashoffset:0;stroke-dasharray:31.020614624023438px}}@keyframes animate-svg-fill-60{0%{fill:transparent}100%{fill:rgb(151,151,151)}}.svg-elem-60{animation:animate-svg-stroke-60 0.6s ease-in-out 7.08s both,animate-svg-fill-60 0.1s ease 4.130000000000001s both}@keyframes animate-svg-stroke-61{0%{stroke-dashoffset:30.842676162719727px;stroke-dasharray:30.842676162719727px}100%{stroke-dashoffset:0;stroke-dasharray:30.842676162719727px}}@keyframes animate-svg-fill-61{0%{fill:transparent}100%{fill:rgb(151,151,151)}}.svg-elem-61{animation:animate-svg-stroke-61 0.6s ease-in-out 7.199999999999999s both,animate-svg-fill-61 0.1s ease 4.2s both}@keyframes animate-svg-stroke-62{0%{stroke-dashoffset:79.22771453857422px;stroke-dasharray:79.22771453857422px}100%{stroke-dashoffset:0;stroke-dasharray:79.22771453857422px}}@keyframes animate-svg-fill-62{0%{fill:transparent}100%{fill:rgb(255,255,255)}}.svg-elem-62{animation:animate-svg-stroke-62 0.6s ease-in-out 7.319999999999999s both,animate-svg-fill-62 0.1s ease 4.2700000000000005s both}@keyframes animate-svg-stroke-63{0%{stroke-dashoffset:95.1214370727539px;stroke-dasharray:95.1214370727539px}100%{stroke-dashoffset:0;stroke-dasharray:95.1214370727539px}}@keyframes animate-svg-fill-63{0%{fill:transparent}100%{fill:rgb(255,255,255)}}.svg-elem-63{animation:animate-svg-stroke-63 0.6s ease-in-out 7.4399999999999995s both,animate-svg-fill-63 0.1s ease 4.340000000000001s both}@keyframes animate-svg-stroke-64{0%{stroke-dashoffset:36.81973648071289px;stroke-dasharray:36.81973648071289px}100%{stroke-dashoffset:0;stroke-dasharray:36.81973648071289px}}@keyframes animate-svg-fill-64{0%{fill:transparent}100%{fill:rgb(255,255,255)}}.svg-elem-64{animation:animate-svg-stroke-64 0.6s ease-in-out 7.56s both,animate-svg-fill-64 0.1s ease 4.41s both}@keyframes animate-svg-stroke-65{0%{stroke-dashoffset:94.64868927001953px;stroke-dasharray:94.64868927001953px}100%{stroke-dashoffset:0;stroke-dasharray:94.64868927001953px}}@keyframes animate-svg-fill-65{0%{fill:transparent}100%{fill:rgb(21,21,21)}}.svg-elem-65{animation:animate-svg-stroke-65 0.6s ease-in-out 7.68s both,animate-svg-fill-65 0.1s ease 4.48s both}@keyframes animate-svg-stroke-66{0%{stroke-dashoffset:94.55924224853516px;stroke-dasharray:94.55924224853516px}100%{stroke-dashoffset:0;stroke-dasharray:94.55924224853516px}}@keyframes animate-svg-fill-66{0%{fill:transparent}100%{fill:rgb(21,21,21)}}.svg-elem-66{animation:animate-svg-stroke-66 0.6s ease-in-out 7.8s both,animate-svg-fill-66 0.1s ease 4.550000000000001s both}@keyframes animate-svg-stroke-67{0%{stroke-dashoffset:94.74996948242188px;stroke-dasharray:94.74996948242188px}100%{stroke-dashoffset:0;stroke-dasharray:94.74996948242188px}}@keyframes animate-svg-fill-67{0%{fill:transparent}100%{fill:rgb(21,21,21)}}.svg-elem-67{animation:animate-svg-stroke-67 0.6s ease-in-out 7.92s both,animate-svg-fill-67 0.1s ease 4.62s both}@keyframes animate-svg-stroke-68{0%{stroke-dashoffset:65.89033508300781px;stroke-dasharray:65.89033508300781px}100%{stroke-dashoffset:0;stroke-dasharray:65.89033508300781px}}@keyframes animate-svg-fill-68{0%{fill:transparent}100%{fill:rgb(21,21,21)}}.svg-elem-68{animation:animate-svg-stroke-68 0.6s ease-in-out 8.04s both,animate-svg-fill-68 0.1s ease 4.69s both}
    </style>
  </defs>
  <path fill-rule="evenodd" clip-rule="evenodd" d="M256.395 167.485L245.226 173.776C244.281 174.407 243.055 174.407 241.97 173.776L136.236 111.87C135.151 111.402 134.368 110.14 134.368 108.878V12.5575C134.368 11.9265 134.511 11.4578 134.83 10.8269L134.973 10.5022C135.294 9.8713 135.756 9.40259 136.218 9.07814L147.533 2.62436C150.004 1.20027 152.352 0.425084 154.504 0.100404C156.977 -0.224048 159.148 0.262859 161.016 1.20027C161.157 1.20027 161.157 1.34429 161.157 1.34429L161.3 1.48854L266.891 63.4126C267.032 63.4126 267.212 63.5568 267.353 63.7372C268.9 64.6926 270.147 66.0987 271.07 67.9736C271.853 69.7041 272.315 71.7414 272.315 73.9407L271.996 141.67C271.996 146.375 270.128 151.567 267.175 156.128C264.775 160.887 260.895 164.979 256.395 167.485ZM243.676 167.16L253.141 161.662C256.557 159.625 259.81 156.488 261.981 152.702C264.311 149.097 265.699 145.167 265.699 141.85L266.019 74.1389C266.019 72.877 265.876 71.7774 265.396 71.0022C265.075 70.3712 264.613 69.9025 264.151 69.4338L264.008 69.2896L158.418 7.36555C158.276 7.36555 158.099 7.2213 157.956 7.2213C157.173 6.89684 156.409 6.75259 155.323 6.89685C153.917 7.0411 152.529 7.52778 150.823 8.46519L141.057 14.1078V106.985L243.676 167.16Z" fill="#BABABA" class="svg-elem-1"></path>
  <path fill-rule="evenodd" clip-rule="evenodd" d="M150.443 72.7423V63.2831L241.986 121.612L265.057 66.9003L159.958 4.62909L159.817 4.48439C157.205 3.05552 153.515 3.38111 149.367 5.75034L138.141 12.2253L138 12.5509V104.61V84.5525C145.519 80.1576 150.443 80.7726 150.443 72.7423Z" fill="white" class="svg-elem-2"></path>
  <path fill-rule="evenodd" clip-rule="evenodd" d="M162.948 71.2178V79.7053C162.948 83.7097 161.216 88.1927 158.545 92.3744C155.874 96.5383 152.247 100.1 148.149 102.403L136.819 108.587L136.186 108.906V10.6722L136.33 10.3532L136.475 10.2114L147.952 3.86799C149.99 2.62774 152.049 2.0075 153.924 1.86575C155.658 1.724 157.066 1.86575 158.329 2.48599L158.959 2.80498L159.105 2.96448L266.547 63.9709L266.873 64.1126L266.729 64.4314L243.144 102.12L242.998 102.439L242.673 102.297L162.948 71.2178ZM161.992 79.7053V69.6763L162.622 70.1371L242.837 101.181L265.954 64.1304L158.977 3.44274L158.834 3.30099C157.571 2.68098 156.001 2.37974 154.268 2.52148C152.536 2.66323 150.659 3.30099 148.62 4.52371L137.287 10.8494L137.142 10.9912V107.524L147.826 101.659C151.76 99.4973 155.369 95.9358 157.894 91.9314C160.422 87.9092 161.992 83.568 161.992 79.7053Z" fill="#BABABA" class="svg-elem-3"></path>
  <path fill-rule="evenodd" clip-rule="evenodd" d="M20.0179 242.507V165.638C20.0179 164.391 20.6436 163.305 21.7289 162.681L126.737 102.113C127.822 101.49 129.071 101.49 130.3 102.113L243.078 167.331C244.325 167.954 245.092 169.041 245.092 170.43V247.298C245.092 252.588 243.381 258.327 240.903 263.455C238.266 268.57 234.38 272.934 230.352 275.409L151.901 321.049C149.726 322.296 147.713 322.919 145.681 323.062C143.506 323.206 141.333 322.742 139.622 321.513L26.8437 256.454C26.7027 256.295 26.3819 256.295 26.2203 256.136C24.2067 254.886 22.6572 253.034 21.713 250.702C20.4821 248.243 20.0179 245.446 20.0179 242.507ZM27.0053 167.651V242.489C27.0053 244.502 27.3261 246.372 27.9313 247.601C28.3955 248.689 29.0189 249.471 29.8039 249.935C29.9449 249.935 29.9449 250.077 30.1247 250.077L142.757 314.974C142.9 315.117 143.078 315.117 143.221 315.295C143.845 315.615 144.468 315.759 145.094 315.616C146.02 315.616 147.107 315.154 148.193 314.53L226.646 269.032C229.604 267.321 232.543 263.919 234.575 259.876C236.75 255.849 237.997 251.164 237.997 246.978V172.141L128.482 108.811L27.0053 167.651Z" fill="#BABABA" class="svg-elem-4"></path>
  <path fill-rule="evenodd" clip-rule="evenodd" d="M23.6492 165.174V241.961C23.6492 247.244 25.3693 250.946 28.1838 252.495L135.811 314.225C139.251 316.237 141.599 317.179 145.344 317.643L186.435 284.135C193.782 279.953 199.714 268.777 199.714 259.15V194.785L137.549 229.058L23.6492 165.174Z" fill="#F8F8F8" class="svg-elem-5"></path>
  <path fill-rule="evenodd" clip-rule="evenodd" d="M198.788 259.487C198.788 264.174 197.381 269.507 194.904 273.892C192.572 278.435 189.329 282.19 185.748 284.219L143.353 312.865L143.21 313.01V313.154L142.124 318.164L28.7799 252.086C27.3715 251.296 26.3044 250.056 25.681 248.17C24.896 246.445 24.5934 244.254 24.5934 241.74V164.706L137.315 229.834L137.458 229.977L137.599 229.834L198.61 195.079L198.788 259.487ZM23.6492 241.938L23.7925 242.566V243.035L23.6492 241.938ZM199.09 194.198L137.617 229.115L24.4341 163.682L23.8107 163.359V241.956C23.8107 244.614 24.2726 246.823 25.0576 248.691L24.7367 246.966L25.0576 248.224L25.681 249.321L25.0576 248.529C25.681 250.092 26.7663 251.512 27.8538 252.284C27.9949 252.427 28.3157 252.607 28.4773 252.75L27.8538 252.122H27.9949L28.4591 252.75L29.5466 253.38L142.427 319.135L142.891 319.458L143.032 318.846L144.12 313.37L186.353 284.722C190.078 282.531 193.336 278.615 195.83 274.087C198.308 269.4 199.714 264.229 199.714 259.216V193.461L199.09 194.198Z" fill="#BABABA" class="svg-elem-6"></path>
  <path fill-rule="evenodd" clip-rule="evenodd" d="M138 230.102V306.216C138 315.763 143.854 320.253 151.107 316.08L228.352 271.712C235.447 267.557 241.46 256.456 241.46 246.893V170.619L138.318 230.084L138 230.102Z" fill="white" class="svg-elem-7"></path>
  <path fill-rule="evenodd" clip-rule="evenodd" d="M136.186 307.566V229.317L136.812 229.64L241.463 168.804V247.198C241.463 252.072 239.909 257.378 237.567 262.092C235.083 266.786 231.795 270.709 228.061 272.74L149.872 317.893C147.997 318.99 146.138 319.456 144.423 319.456C143.012 319.456 141.779 319.133 140.527 318.359C139.438 317.729 138.509 316.633 137.722 315.374C136.955 313.377 136.186 310.696 136.186 307.566ZM137.114 230.575V307.566C137.114 310.696 137.74 313.197 138.83 315.085C139.456 316.346 140.384 317.281 141.315 317.909C142.243 318.539 143.494 318.846 144.746 318.846C146.3 318.846 147.854 318.378 149.731 317.424L227.918 272.274C231.492 270.24 234.78 266.463 237.103 261.912C239.442 257.362 240.998 252.199 240.998 247.485V170.657L137.114 230.575Z" fill="#BABABA" class="svg-elem-8"></path>
  <path fill-rule="evenodd" clip-rule="evenodd" d="M127.872 105.276L241.46 170.696L137.078 230.518L23.6492 165.259L127.872 105.276Z" fill="#D2D2D2" class="svg-elem-9"></path>
  <path fill-rule="evenodd" clip-rule="evenodd" d="M210.603 157.914L228.755 169.881L210.603 181.51C211.47 179.045 212.487 175.112 212.487 170.032C212.637 164.782 211.486 160.529 210.603 157.914Z" fill="#E6E6E6" class="svg-elem-10"></path>
  <path fill-rule="evenodd" clip-rule="evenodd" d="M80.549 139.196V132.502L23.6492 165.168L137.162 230.516L241.46 170.451L216.043 155.85L209.8 158.635L228.045 170.148L136.677 222.432L52.3402 174.361L37.6898 164.704L80.549 139.196Z" fill="white" class="svg-elem-11"></path>
  <path fill-rule="evenodd" clip-rule="evenodd" d="M240.161 169.596L128.22 104.369L24.9506 164.296L137.21 229.378L240.161 169.596ZM128.523 103.581L241.244 169.274C241.387 169.417 241.565 169.596 241.387 169.9L241.244 170.043L137.51 230.455C137.369 230.598 137.192 230.455 137.048 230.455L23.8653 164.905C23.7242 164.762 23.5468 164.583 23.7242 164.278L23.8653 164.135L127.902 103.581C128.204 103.42 128.364 103.42 128.523 103.581Z" fill="#BABABA" class="svg-elem-12"></path>
  <path fill-rule="evenodd" clip-rule="evenodd" d="M268.367 141.538L268.686 73.8615C268.686 65.8435 262.361 63.0146 254.654 67.4111L243.417 73.8615L243.273 74.186V170.619L254.372 164.331C261.901 159.592 268.367 149.394 268.367 141.538Z" fill="white" class="svg-elem-13"></path>
  <path fill-rule="evenodd" clip-rule="evenodd" d="M270.502 74.0362L270.178 140.96C270.178 144.986 268.456 149.493 265.801 153.697C263.148 157.722 259.542 161.463 255.471 163.779L243.901 170.298L243.273 170.619V74.4992L243.419 74.1787L243.562 74.0362L255.31 67.5165C257.965 66.1092 260.313 65.3434 262.502 65.3434C263.919 65.3434 265.157 65.6639 266.249 66.2696C267.343 66.893 268.276 67.8193 268.904 68.906C270.178 70.1528 270.502 72.0233 270.502 74.0362ZM269.569 141.121L269.892 74.2144C269.892 72.3439 269.569 70.6518 268.797 69.3869C268.169 68.3003 267.38 67.5165 266.447 67.0534C265.514 66.5902 264.258 66.2696 263.005 66.2696C260.977 66.2696 258.627 66.893 256.279 68.2825L244.548 74.8021L244.404 74.9445V169.194L255.346 162.977C259.255 160.804 262.7 157.224 265.353 153.198C267.828 149.35 269.407 144.861 269.569 141.121Z" fill="#BABABA" class="svg-elem-14"></path>
  <path fill-rule="evenodd" clip-rule="evenodd" d="M138 108.899V12.7056L243.276 74.5698V170.619L138 108.899Z" fill="white" class="svg-elem-15"></path>
  <path fill-rule="evenodd" clip-rule="evenodd" d="M237.831 166.201V77.6826L141.631 21.7812L142.095 47.5378V111.231L228.81 161.992L237.688 166.989L237.831 166.201Z" fill="#F0F0F0" class="svg-elem-16"></path>
  <path fill-rule="evenodd" clip-rule="evenodd" d="M132.555 65.3434V106.3L223.31 157.913V128.853C223.31 122.665 219.39 115.254 214.517 112.47L132.555 65.3434Z" fill="#DCDCDC" class="svg-elem-17"></path>
  <path fill-rule="evenodd" clip-rule="evenodd" d="M163.421 34.4266L141.631 21.7812L142.095 47.5378V111.231L228.81 161.992L237.688 166.989L237.831 166.201V91.2595L163.421 48.0036V34.4266Z" fill="#E1E1E1" class="svg-elem-18"></path>
  <path fill-rule="evenodd" clip-rule="evenodd" d="M237.831 166.989L237.053 166.527V77.9747L142.409 22.8467V111.559L141.631 111.098V22.2428C141.631 22.1008 141.772 21.7812 142.09 21.7812C142.231 21.7812 142.231 21.7812 142.231 21.7812L237.635 77.3529C237.777 77.3529 237.777 77.4951 237.777 77.6728L237.831 166.989Z" fill="#BABABA" class="svg-elem-19"></path>
  <path fill-rule="evenodd" clip-rule="evenodd" d="M137.133 13.9395V108.552L242.366 169.654V75.0592L137.133 13.9395ZM136.186 108.873V13.1707C136.186 13.0275 136.329 12.7056 136.65 12.7056C136.794 12.7056 136.794 12.7056 136.971 12.7056L243.135 74.2724C243.276 74.2724 243.276 74.4155 243.276 74.5944V170.154C243.276 170.297 243.135 170.619 242.812 170.619C242.671 170.619 242.671 170.619 242.671 170.619L136.507 109.052C136.348 109.178 136.186 109.035 136.186 108.873Z" fill="#BABABA" class="svg-elem-20"></path>
  <path fill-rule="evenodd" clip-rule="evenodd" d="M85.3612 229.654L70.4014 221.442L65.3958 224.789L68.7745 231.936L74.0759 247.296L78.251 252.299C84.3646 248.811 85.0108 248.045 85.1769 243.18L85.3612 229.654Z" fill="#F0F0F0" class="svg-elem-21"></path>
  <path fill-rule="evenodd" clip-rule="evenodd" d="M70.9019 219.745L85.0473 228.136C85.1861 228.28 85.3613 228.457 85.3613 228.76V242.425C85.3613 245.062 85.0473 246.611 83.9824 248.017C83.0746 249.408 81.3977 250.495 78.515 252.204C78.201 252.347 77.9052 252.347 77.6071 252.063L73.6619 246.95L68.6494 231.253C68.6494 231.253 68.6494 231.253 68.6494 231.112L65.4527 223.968C65.3139 223.647 65.4527 223.344 65.5938 223.183L70.3263 219.763C70.431 219.586 70.7449 219.586 70.9019 219.745ZM84.1394 229.062L70.588 220.992L66.6404 223.788L69.6801 230.471L74.5515 245.988L78.201 250.636C80.6287 249.087 82.1486 248.161 82.9176 247.073C83.6844 245.988 83.9824 244.598 83.9824 242.263L84.1394 229.062Z" fill="#BABABA" class="svg-elem-22"></path>
  <path fill-rule="evenodd" clip-rule="evenodd" d="M79.9165 232.65L65.3958 225.071V239.767C65.3958 251.499 79.9165 256.83 79.9165 247.633V232.65Z" fill="#F8F8F8" class="svg-elem-23"></path>
  <path fill-rule="evenodd" clip-rule="evenodd" d="M80.2487 248.259C80.2487 250.5 79.4319 251.785 78.3011 252.263C77.4843 252.595 76.6879 252.741 75.8711 252.595C74.9064 252.447 73.9257 251.951 72.961 251.474C69.5663 249.544 66.4902 245.392 66.4902 239.79V225.056L80.2282 232.587L80.2487 248.259ZM66.3605 223.438C66.026 223.108 65.5436 223.274 65.5436 223.586C65.3958 223.731 65.3958 223.731 65.3958 223.916V239.772C65.3958 246.018 68.7882 250.648 72.5151 252.741C73.6459 253.385 74.7767 253.863 75.9097 254.026C77.0406 254.174 78.003 254.174 78.9859 253.697C80.5991 252.889 81.7322 251.144 81.7322 248.425V232.239C81.7322 231.909 81.582 231.761 81.3977 231.595L66.3605 223.438Z" fill="#BABABA" class="svg-elem-24"></path>
  <path fill-rule="evenodd" clip-rule="evenodd" d="M136.418 222.282L37.6285 165.379L50.6998 157.779L76.9336 142.668C76.9336 142.346 77.077 141.881 77.2567 141.577L36.5727 165.057C36.4294 165.2 36.2497 165.379 36.4294 165.683L36.5727 165.826L136.311 223.194C136.455 223.335 136.632 223.194 136.775 223.194L225.124 172.997V171.906L136.418 222.282Z" fill="#BABABA" class="svg-elem-25"></path>
  <path fill-rule="evenodd" clip-rule="evenodd" d="M213.818 104.271L103.017 40.027C102.389 39.7048 102.082 39.5617 101.759 39.5617C101.616 39.5617 101.293 39.7228 100.806 40.027L97.0492 42.3712C95.7909 43.1587 95.0173 43.624 94.6943 44.0892C94.3712 44.5545 94.2256 45.342 94.2256 46.7376V182.134L161.375 207.618L156.252 210.551L134.516 198.044L101.131 183.691C93.2927 179.163 87.1791 173.097 87.1791 160.767V46.881C87.1791 43.7671 87.6455 41.8882 88.906 40.1701C90.0027 38.6134 91.4042 37.6828 93.2927 36.43L97.0492 34.0858C98.6123 33.1552 100.034 32.672 101.741 32.672C103.306 32.672 104.869 33.1373 106.596 34.0858L217.233 98.3479C220.057 99.9049 222.393 102.875 224.282 106.15C226.007 109.443 226.942 113.165 226.942 116.601V170.251L219.895 174.313V116.458C219.895 114.114 219.103 111.465 218.007 109.282C216.785 107.099 215.381 105.22 213.818 104.271Z" fill="#BABABA" class="svg-elem-26"></path>
  <path fill-rule="evenodd" clip-rule="evenodd" d="M215.22 101.297L105.611 37.179C102.979 35.6254 101.111 36.3933 99.4042 37.5003L94.4396 40.4465L97.3929 44.3388L117.085 165.415C118.009 171.182 121.265 177.253 124.999 180.502L175.25 199.661L223.313 171.967V116.402C223.135 110.635 219.559 103.779 215.22 101.297Z" fill="#9B9B9B" class="svg-elem-27"></path>
  <path d="M214.874 101.71L104.337 38.091C103.083 37.3115 101.991 37.1522 101.22 37.3115C100.271 37.4532 99.502 37.9139 98.5691 38.3922L93.8958 41.1737L96.5465 44.717L96.6898 44.8585L116.519 164.992C116.983 167.773 117.932 170.537 119.331 173.177C120.744 175.799 122.446 178.12 124.327 179.82L181.164 195.57L180.374 196.03L123.699 180.423C121.82 178.722 119.957 176.26 118.56 173.62C117.144 170.998 116.07 168.074 115.586 165.134L95.7569 45.018L92.9447 41.156L92.6239 40.837L93.088 40.5182L98.0868 37.5772C99.0174 36.9572 99.9662 36.4967 101.061 36.3372C102.153 36.1954 103.406 36.4789 104.803 37.2762L215.179 100.895C217.363 102.135 219.388 104.598 220.962 107.379C222.378 110.16 223.31 113.402 223.31 116.326V171.813L222.378 172.273V116.396C222.378 113.615 221.447 110.532 220.032 107.91C218.778 105.271 216.896 102.95 214.874 101.71Z" stroke="#D2D2D2" stroke-miterlimit="10" class="svg-elem-28"></path>
  <path fill-rule="evenodd" clip-rule="evenodd" d="M209.973 104.741L98.8101 40.8633C94.4121 38.3915 90.8103 41.0058 90.8103 46.7497V191.382L154.57 210.551L178.911 197.072L217.863 175.838V119.91C217.988 114.184 214.387 107.373 209.973 104.741Z" fill="white" class="svg-elem-29"></path>
  <path d="M209.256 106.035L98.7578 41.6709C97.6657 41.0436 96.7351 40.7387 95.7863 40.7387C95.1606 40.7387 94.3734 40.8823 93.907 41.2049C93.2813 41.5275 92.8148 41.9935 92.4918 42.7641C91.8661 43.8576 91.5611 45.4168 91.5611 47.2989V176.655C91.5611 184.004 93.1197 190.098 102.339 196.03L93.2972 192.123L90.8103 189.309V47.2989C90.8103 45.2735 91.2745 43.714 91.9025 42.4415C92.3666 41.6529 92.9946 41.0436 93.6203 40.5596C94.246 40.0934 95.1788 39.9321 95.9661 39.9321C97.0582 39.9321 98.1503 40.2547 99.2606 40.8643L209.738 105.229C211.923 106.483 213.945 108.975 215.522 111.789C216.935 114.603 217.866 117.883 217.866 120.84V176.583L216.935 177.049V120.876C216.935 118.062 216.004 114.943 214.589 112.29C213.158 109.476 211.279 107.29 209.256 106.035Z" stroke="#D2D2D2" stroke-miterlimit="10" class="svg-elem-30"></path>
  <path fill-rule="evenodd" clip-rule="evenodd" d="M136.495 222.291L37.6489 165.305L42.5044 162.493V161.544L36.5727 164.982C36.4294 165.125 36.2497 165.305 36.4294 165.609L36.5727 165.752L136.37 223.203C136.514 223.274 136.693 223.274 136.837 223.203L226.939 172.002V170.91L136.495 222.291Z" fill="#BABABA" class="svg-elem-31"></path>
  <path fill-rule="evenodd" clip-rule="evenodd" d="M230.259 5.28847C223.408 1.39777 217.311 0.933615 213.204 3.11104L210.269 4.44958C209.727 4.62819 209.22 4.86004 208.715 5.11009L197.898 10.0895L200.328 15.8543C198.947 19.1382 198.492 23.1718 198.492 27.6873C198.492 48.212 210.671 72.0206 226.066 81.1942C226.974 81.6584 227.586 82.1223 228.493 82.6042L231.902 88.9401C231.902 88.9401 247.731 81.5155 248.204 81.3728C254.145 78.0887 257.797 70.0218 257.797 58.8134C257.831 38.2887 245.635 14.4801 230.259 5.28847Z" fill="#BABABA" class="svg-elem-32"></path>
  <path fill-rule="evenodd" clip-rule="evenodd" d="M215.142 12.6455C230.848 21.8644 243.274 45.79 243.274 66.4157C243.274 87.0412 230.527 96.2778 215.142 87.364C199.438 78.1453 187.013 54.2196 187.013 33.5761C186.692 12.6455 199.277 3.42683 215.142 12.6455Z" fill="#D2D2D2" class="svg-elem-33"></path>
  <path d="M217.866 128.872L90.8103 54.4531" stroke="#D2D2D2" stroke-miterlimit="10" class="svg-elem-34"></path>
  <path fill-rule="evenodd" clip-rule="evenodd" d="M138.768 96.8503C136.034 95.2649 133.604 95.6389 131.349 97.0997L126.45 100.288L105.561 88.354C103.006 86.8755 100.414 86.7509 98.4076 87.873L92.6239 90.6873L94.2029 157.536L174.761 199.661L199.714 185.518V152.406C199.714 144.854 196.023 140.116 191.48 137.461L164.04 121.769L160.295 113.291C158.149 108.428 152.541 105.168 149.524 103.298L138.768 96.8503Z" fill="#D9D9D9" class="svg-elem-35"></path>
  <path fill-rule="evenodd" clip-rule="evenodd" d="M165.671 205.106L190.638 191.002V159.453C190.638 151.922 186.945 147.196 182.399 144.55L96.435 95.6107C93.8776 94.1363 91.2838 94.0121 89.277 95.1311C88.1235 95.7884 73.8462 102.787 72.6562 103.711L73.4731 164.836L165.671 205.106Z" fill="#BABABA" class="svg-elem-36"></path>
  <path fill-rule="evenodd" clip-rule="evenodd" d="M136.366 221.442L174.304 199.443V168.135C174.304 160.66 170.622 155.971 166.09 153.345L80.4035 104.762C75.8712 102.153 70.8429 103.157 70.8429 110.632V182.96L136.366 221.442Z" fill="#D2D2D2" class="svg-elem-37"></path>
  <path fill-rule="evenodd" clip-rule="evenodd" d="M153.164 151.291L164.076 157.596C165.487 158.382 166.684 160.686 166.684 162.704V167.812C166.684 168.812 166.381 169.527 165.881 169.902C165.38 170.313 164.379 171.098 163.38 171.706L153.271 163.615C151.86 162.811 150.664 160.525 150.664 158.507L149.055 153.006C149.663 152.506 150.664 151.809 151.36 151.291C151.86 150.988 152.468 150.898 153.164 151.291Z" fill="#5B5B5B" class="svg-elem-38"></path>
  <path fill-rule="evenodd" clip-rule="evenodd" d="M150.864 153.006L161.776 159.311C163.187 160.096 164.383 162.4 164.383 164.419V169.527C164.383 171.527 163.187 172.438 161.776 171.616L150.864 165.312C149.453 164.526 148.256 162.222 148.256 160.204V155.096C148.256 153.113 149.362 152.095 150.864 153.006Z" fill="#929292" class="svg-elem-39"></path>
  <path d="M120.4 136.738C134.42 143.999 146.338 165.479 147.046 184.692C147.735 203.907 136.95 213.593 122.928 206.314C108.908 199.054 96.9923 177.575 96.2847 158.361C95.5953 139.147 106.398 129.46 120.4 136.738Z" stroke="#BABABA" stroke-miterlimit="10" class="svg-elem-40"></path>
  <path fill-rule="evenodd" clip-rule="evenodd" d="M121.363 139.879C115.217 136.468 109.734 136.039 106.036 137.968L103.413 139.147C102.931 139.308 102.448 139.486 102.018 139.719L92.3029 144.112L94.4826 149.167C93.2494 152.042 92.8375 155.596 92.8375 159.561C92.8375 177.618 103.786 198.551 117.592 206.624C118.414 207.033 118.951 207.445 119.772 207.857L122.826 213.447C122.826 213.447 137.044 206.926 137.471 206.785C142.811 203.909 146.099 196.799 146.099 186.958C146.115 168.884 135.185 147.952 121.363 139.879Z" fill="#D2D2D2" class="svg-elem-41"></path>
  <path fill-rule="evenodd" clip-rule="evenodd" d="M107.447 146.291C121.251 154.364 132.218 175.296 132.218 193.336C132.218 211.393 121.003 219.465 107.447 211.661C93.6409 203.588 82.6923 182.655 82.6923 164.598C82.4056 146.291 93.4794 138.236 107.447 146.291Z" fill="white" class="svg-elem-42"></path>
  <path fill-rule="evenodd" clip-rule="evenodd" d="M105.329 164.362C110.325 167.179 114.405 175.116 114.405 182.078C114.405 189.04 110.344 192.408 105.329 189.591C100.332 186.774 96.2529 178.836 96.2529 171.874C96.2711 164.911 100.332 161.527 105.329 164.362Z" fill="#D2D2D2" class="svg-elem-43"></path>
  <path fill-rule="evenodd" clip-rule="evenodd" d="M90.2395 98.222L94.1052 100.477C95.1518 101.08 96.1643 102.82 96.1643 104.33L96.253 108.324L92.9539 110.721L89.1929 106.709L85.3613 100.246L87.9165 98.4352C88.5717 97.9381 89.4773 97.9026 90.2395 98.222Z" fill="#545454" class="svg-elem-44"></path>
  <path fill-rule="evenodd" clip-rule="evenodd" d="M85.7321 100.085L90.4373 102.675C91.7547 103.551 92.6807 104.938 92.6216 106.653V110.721L83.5479 105.887C83.5479 105.832 83.5479 105.74 83.5479 105.686V101.709C83.5683 100.176 84.4739 99.3916 85.7321 100.085Z" fill="#808080" class="svg-elem-45"></path>
  <path fill-rule="evenodd" clip-rule="evenodd" d="M130.029 104.48C127.324 102.91 124.919 103.28 122.687 104.728L107.145 114.873L163.344 147.023L163.414 141.412C159.182 137.424 158.286 136.63 155.037 129.254L151.296 120.767C149.171 115.95 143.622 112.721 140.636 110.868L130.029 104.48Z" fill="#BABABA" class="svg-elem-46"></path>
  <path fill-rule="evenodd" clip-rule="evenodd" d="M127.128 116.122L134.689 120.702C137.74 122.545 140.668 126.283 142.823 131.091L146.575 139.409C147.258 140.918 148.031 142.252 148.891 143.393L103.516 118.123C105.076 118.351 106.514 117.859 107.663 116.631L111.415 112.683C113.57 110.401 116.498 110.103 119.549 111.823L127.128 116.122Z" fill="#D2D2D2" class="svg-elem-47"></path>
  <path fill-rule="evenodd" clip-rule="evenodd" d="M45.9216 145.273L57.1364 139.2C58.8519 138.111 59.7803 136.093 59.7803 133.289L59.9236 100.908C59.9236 94.5138 54.6199 86.1195 48.2424 82.5475L22.8641 68.2234C17.8813 65.4193 15.2374 66.3481 11.5037 68.6878L3.09204 73.0458L26.7571 108.231L45.9216 145.273Z" fill="#2ACB11" class="svg-elem-48"></path>
  <path fill-rule="evenodd" clip-rule="evenodd" d="M0 111.499L0.141076 79.1185C0.141076 72.7423 5.59034 70.4026 11.9838 73.9926L37.3621 88.3165C43.7579 91.8886 49.2049 100.301 49.0433 106.677L48.9 139.058C48.9 145.434 43.453 147.791 37.0595 144.184L11.6789 129.878C5.28544 126.145 0 117.893 0 111.499Z" fill="#2DDD11" class="svg-elem-49"></path>
  <path fill-rule="evenodd" clip-rule="evenodd" d="M18.648 89.7958L39.2323 115.224C39.9377 116.102 40.2084 117.303 39.7761 117.876C39.6305 118.073 39.4508 118.181 39.2141 118.181L28.9413 118.987C28.9049 118.987 28.8867 118.987 28.8503 118.987L18.6298 119.794C17.9245 119.848 17.003 119.041 16.5866 117.984C16.4433 117.643 16.3887 117.303 16.3887 117.016V89.9929C16.3887 89.0432 17.0576 88.6668 17.8903 89.1508C18.1611 89.2762 18.4136 89.5271 18.648 89.7958Z" fill="white" class="svg-elem-50"></path>
  <path fill-rule="evenodd" clip-rule="evenodd" d="M163.394 185.875C163.679 185.661 166.216 183.964 166.537 183.713C168.753 182.089 170.056 182.268 172.2 183.499L222.69 212.504C225.279 213.97 227.388 218.006 227.388 221.435V261.336C227.566 263.568 226.549 265.73 224.708 267.015C223.368 267.907 221.725 268.997 220.797 269.461H218.565L166.305 239.796H166.252L166.054 239.653L165.965 239.582L165.895 239.51V239.277C164.948 237.616 164.448 235.76 164.393 233.867V189.77C163.376 188.732 163.019 187.251 163.394 185.875Z" fill="#EEEEEE" class="svg-elem-51"></path>
  <path fill-rule="evenodd" clip-rule="evenodd" d="M166.539 186.839L165.968 187.233V187.517L164.503 188.216L164.414 188.393C164.252 188.805 164.182 189.269 164.182 189.734V230.902C164.182 231.598 164.289 232.258 164.484 232.92C164.698 233.669 164.985 234.383 165.36 235.064C165.36 235.205 165.501 235.33 165.574 235.473V235.58L165.645 235.723C165.752 235.901 165.859 236.026 165.968 236.188L166.359 236.634L166.484 236.777V236.847L166.591 236.938L166.789 237.134L167.021 237.314L167.306 237.491L218.638 266.942C218.797 267.033 218.977 267.086 219.173 267.159L219.352 267.068C219.958 266.765 221.102 266.014 222.21 265.281L222.959 264.783C223.477 264.46 223.887 263.996 224.155 263.443C224.424 262.747 224.567 262.014 224.531 261.282V221.453C224.476 220.042 224.119 218.666 223.477 217.435C222.959 216.363 222.155 215.435 221.154 214.755L170.878 185.786C170.432 185.465 169.913 185.267 169.378 185.179C168.878 185.267 168.414 185.499 168.038 185.857L166.521 186.91L166.539 186.839ZM160.787 184.644C161.126 184.287 161.538 183.982 161.966 183.75L164.967 181.677C166.216 180.642 167.754 180.071 169.36 180C170.825 180.052 172.254 180.516 173.467 181.338L223.96 210.291C225.816 211.451 227.318 213.112 228.28 215.041C229.336 217.005 229.907 219.203 229.978 221.435V261.336C229.996 262.781 229.709 264.228 229.156 265.55C228.515 267.049 227.443 268.301 226.067 269.177L225.316 269.675C224.155 270.426 222.959 271.211 222.067 271.677C221.905 271.784 221.744 271.855 221.566 271.925C221.279 272.05 221.047 272.087 220.763 272.212C220.424 272.282 220.067 272.355 219.71 272.373H219.405C219.102 272.373 218.763 272.373 218.458 272.282L217.851 272.141H217.53L216.941 271.909C216.797 271.836 216.636 271.766 216.51 271.677H216.369C204.67 264.979 187.417 256.067 174.273 247.887C170.414 245.493 166.698 243.707 163.825 241.366L163.608 241.189L163.467 241.064L163.394 240.993L163.199 240.67H163.126L163.001 240.529C162.503 240.028 162.054 239.491 161.663 238.938L161.483 238.706L161.288 238.386L160.983 237.885L160.842 237.635C160.268 236.599 159.822 235.51 159.501 234.365C159.181 233.278 159.019 232.133 159.001 230.991V189.786C158.983 188.589 159.233 187.392 159.697 186.305C159.966 185.697 160.323 185.16 160.769 184.696L160.787 184.644Z" fill="#BABABA" class="svg-elem-52"></path>
  <path fill-rule="evenodd" clip-rule="evenodd" d="M220.727 269.443L171.378 236.615C168.646 234.42 166.951 231.168 166.682 227.685L163.379 185.893C163.663 185.679 166.2 183.982 166.521 183.731C168.737 182.107 170.057 182.284 172.184 183.518L222.674 212.523C225.264 213.988 227.37 218.024 227.37 221.453V261.352C227.55 263.584 226.531 265.746 224.692 267.031C223.352 267.925 221.71 269.015 220.799 269.479L220.727 269.443Z" fill="#EEEEEE" class="svg-elem-53"></path>
  <path fill-rule="evenodd" clip-rule="evenodd" d="M171.626 236.331L220.76 268.979C221.493 268.569 222.601 267.871 223.636 267.174L224.403 266.674C225.279 266.121 225.975 265.318 226.387 264.353C226.779 263.388 226.976 262.371 226.94 261.352V221.417C226.885 219.667 226.44 217.951 225.6 216.416C224.904 214.969 223.796 213.719 222.44 212.862L171.965 183.893C171.18 183.374 170.304 183.053 169.376 182.981C168.411 183.053 167.519 183.429 166.787 184.07L165.321 185.072L163.822 186.107L167.107 227.703C167.269 229.453 167.788 231.168 168.625 232.722C169.324 234.151 170.377 235.384 171.663 236.313L171.626 236.331ZM220.474 269.782L171.126 237.009C169.733 235.992 168.609 234.652 167.84 233.116C166.964 231.455 166.411 229.633 166.234 227.758L162.894 185.75L163.071 185.606C163.214 185.481 164.036 184.928 164.787 184.409C165.553 183.893 166.125 183.536 166.216 183.445C167.089 182.696 168.179 182.248 169.324 182.196C170.395 182.248 171.449 182.605 172.341 183.213L222.833 212.147C224.333 213.112 225.548 214.452 226.314 216.058C227.19 217.701 227.691 219.542 227.743 221.417V261.318C227.78 262.478 227.548 263.602 227.12 264.674C226.637 265.782 225.832 266.71 224.815 267.354L224.046 267.855C222.867 268.64 221.636 269.443 220.867 269.837L220.635 269.943L220.44 269.8L220.474 269.782Z" fill="#979797" class="svg-elem-54"></path>
  <path fill-rule="evenodd" clip-rule="evenodd" d="M217.6 269.229L166.307 239.814C163.413 237.742 161.663 234.438 161.608 230.884V189.752C161.608 186.323 163.718 184.733 166.307 186.214L217.6 215.667C220.476 217.738 222.21 221.025 222.281 224.561V265.693C222.299 269.14 220.174 270.731 217.6 269.229Z" fill="white" class="svg-elem-55"></path>
  <path fill-rule="evenodd" clip-rule="evenodd" d="M166.52 239.439L217.798 268.89C218.299 269.211 218.852 269.391 219.423 269.391C219.798 269.391 220.155 269.284 220.478 269.086C220.799 268.872 221.084 268.585 221.282 268.246C221.691 267.461 221.889 266.603 221.871 265.711V224.561C221.816 222.809 221.37 221.096 220.531 219.56C219.834 218.113 218.726 216.88 217.389 216.006L166.093 186.553C165.592 186.25 165.039 186.07 164.468 186.054C164.111 186.036 163.736 186.143 163.415 186.339C163.092 186.553 162.807 186.839 162.609 187.178C162.2 187.963 162.002 188.858 162.038 189.75V230.884C162.093 232.634 162.539 234.347 163.378 235.883C164.075 237.33 165.164 238.563 166.52 239.439ZM217.37 269.604L166.075 240.153C164.575 239.189 163.378 237.849 162.591 236.24C161.717 234.597 161.217 232.759 161.162 230.884V189.75C161.128 188.714 161.378 187.697 161.861 186.785C162.127 186.321 162.502 185.911 162.948 185.624C163.397 185.356 163.913 185.215 164.45 185.215C165.183 185.249 165.897 185.447 166.52 185.82L217.798 215.273C219.3 216.238 220.494 217.594 221.282 219.185C222.173 220.827 222.674 222.668 222.729 224.543V265.675C222.763 266.71 222.512 267.73 222.032 268.64C221.782 269.122 221.388 269.516 220.943 269.8C220.494 270.069 219.978 270.212 219.459 270.212C218.726 270.194 217.994 269.98 217.37 269.604Z" fill="#979797" class="svg-elem-56"></path>
  <path fill-rule="evenodd" clip-rule="evenodd" d="M192.989 249.298L190.131 253.047L186.47 253.816L172.377 263.55V246.69L171.198 242.172L172.377 238.581H192.149L192.989 249.298Z" fill="white" class="svg-elem-57"></path>
  <path fill-rule="evenodd" clip-rule="evenodd" d="M184.361 253.441L173.842 260.692V246.834C173.842 244.797 172.716 242.92 170.93 241.958V263.514C170.894 264.069 171.217 264.585 171.717 264.854C171.931 264.961 172.163 265.015 172.414 265.015C172.716 265.015 173.003 264.924 173.235 264.747L190.165 253.029C187.326 251.334 185.951 252.351 184.361 253.441Z" fill="#BABABA" class="svg-elem-58"></path>
  <path fill-rule="evenodd" clip-rule="evenodd" d="M180.382 213.469C182.739 215.078 184.186 217.701 184.293 220.559C184.293 223.239 182.541 224.381 180.382 223.132C178.022 221.524 176.577 218.882 176.47 216.024C176.452 213.362 178.22 212.22 180.382 213.469Z" fill="#979797" class="svg-elem-59"></path>
  <path fill-rule="evenodd" clip-rule="evenodd" d="M191.31 219.881C193.667 221.489 195.114 224.131 195.221 226.973C195.221 229.651 193.469 230.811 191.31 229.544C188.934 227.953 187.433 225.346 187.289 222.488C187.289 219.81 189.041 218.666 191.2 219.935L191.31 219.881Z" fill="#979797" class="svg-elem-60"></path>
  <path fill-rule="evenodd" clip-rule="evenodd" d="M202.192 226.632C204.531 228.24 205.96 230.884 206.049 233.724C206.049 236.402 204.299 237.546 202.137 236.295C199.798 234.67 198.37 232.026 198.279 229.168C198.279 226.49 200.031 225.364 202.192 226.632Z" fill="#979797" class="svg-elem-61"></path>
  <path fill-rule="evenodd" clip-rule="evenodd" d="M214.319 28.6449C217.372 30.4133 219.872 35.164 219.872 39.2363V56.5071C219.872 60.5794 217.372 62.4547 214.319 60.7043C211.263 58.9362 208.762 54.1852 208.762 50.1132V32.8421C208.762 28.7701 211.263 26.8768 214.319 28.6449Z" fill="white" class="svg-elem-62"></path>
  <path fill-rule="evenodd" clip-rule="evenodd" d="M222.516 59.5972C222.516 58.1506 223.411 57.4896 224.535 58.1326C225.643 58.7756 226.553 60.4902 226.553 61.9368C226.553 66.3306 225.178 69.5453 222.962 71.1528C220.749 72.7603 217.695 72.796 214.337 70.8493V70.867C210.96 68.9203 207.925 65.3661 205.709 61.1867C203.495 57.0075 202.121 52.2208 202.121 47.8093C202.121 46.3626 203.013 45.7019 204.139 46.3449C205.245 46.9877 206.157 48.7023 206.157 50.1491C206.157 53.0961 207.086 56.3108 208.567 59.115C210.05 61.9191 212.105 64.3122 214.355 65.6162V65.6339C216.605 66.9379 218.642 66.9021 220.141 65.8125C221.588 64.7051 222.516 62.5441 222.516 59.5972Z" fill="white" class="svg-elem-63"></path>
  <path fill-rule="evenodd" clip-rule="evenodd" d="M212.278 66.9909C212.278 65.544 213.172 64.8833 214.296 65.5263C215.404 66.1693 216.314 67.8837 216.314 69.3305V79.0643C216.314 80.511 215.422 81.1719 214.296 80.5289C213.19 79.8859 212.278 78.1713 212.278 76.7247V66.9909Z" fill="white" class="svg-elem-64"></path>
  <path fill-rule="evenodd" clip-rule="evenodd" d="M157.708 93.5491L147.456 68.9913L164.513 78.9214L174.766 103.444L157.708 93.5491Z" fill="#151515" class="svg-elem-65"></path>
  <path fill-rule="evenodd" clip-rule="evenodd" d="M191.072 112.928L180.82 88.4236L197.896 98.354L208.13 122.823L191.072 112.928Z" fill="#151515" class="svg-elem-66"></path>
  <path fill-rule="evenodd" clip-rule="evenodd" d="M124.684 74.35L114.416 49.7742L131.49 59.7046L141.76 84.2626L124.684 74.35Z" fill="#151515" class="svg-elem-67"></path>
  <path fill-rule="evenodd" clip-rule="evenodd" d="M97.4474 40.2008L107.556 64.4194L91.2496 54.9534L91.3042 46.8805C91.3202 41.9334 93.9458 39.272 97.4474 40.2008Z" fill="#151515" class="svg-elem-68"></path>
</svg>
