<svg width="512" height="512" class="active" viewBox="0 0 512 512" fill="none" xmlns="http://www.w3.org/2000/svg">
    <style>
      svg .svg-elem-1 {
        stroke-dashoffset: 1579.2783203125px;
        stroke-dasharray: 1579.2783203125px;
        fill: transparent;
        transition: stroke-dashoffset 0.6s cubic-bezier(0.39, 0.575, 0.565, 1) 0s, fill 0.6s cubic-bezier(0.47, 0, 0.745, 0.715) 0.4s
      }

      svg .svg-elem-1 {
        stroke-dashoffset: 0;
        fill: rgb(85, 255, 57)
      }

      svg .svg-elem-2 {
        stroke-dashoffset: 1553.64599609375px;
        stroke-dasharray: 1553.64599609375px;
        fill: transparent;
        transition: stroke-dashoffset 0.6s cubic-bezier(0.39, 0.575, 0.565, 1) 0.2s, fill 0.6s cubic-bezier(0.47, 0, 0.745, 0.715) 0.6000000000000001s
      }

      svg .svg-elem-2 {
        stroke-dashoffset: 0;
        fill: rgb(45, 221, 17)
      }

      svg .svg-elem-3 {
        stroke-dashoffset: 3082.033203125px;
        stroke-dasharray: 3082.033203125px;
        fill: transparent;
        transition: stroke-dashoffset 0.6s cubic-bezier(0.39, 0.575, 0.565, 1) 0.4s, fill 0.6s cubic-bezier(0.47, 0, 0.745, 0.715) 0.8s
      }

      svg .svg-elem-3 {
        stroke-dashoffset: 0;
        fill: rgb(0, 0, 0)
      }
    </style>
  <path
    d="M497.431 170.693L413.145 82.6748L260.012 225.256L247.42 111.109L11.4473 423.251L191.528 279.468L233.219 419.846L497.431 170.693Z"
    fill="#55FF39" class="svg-elem-1"></path>
  <path
    d="M19.7715 419.106L191.474 279.612L202.984 433.374L493.267 164.786L451.267 124.301L244.814 333.822L221.791 203.228L19.7715 419.106Z"
    fill="#2DDD11" class="svg-elem-2"></path>
  <path
    d="M203.576 451.065L182.692 298.106L0 437.405L252.426 81.7404L265.606 205.415L412.396 64.9839L512 168.008L203.576 451.065ZM201.119 261.273L221.422 407.327L482.667 166.884L411.846 93.7932L254.663 244.583L243.213 128.388L80.2268 354.555L201.119 261.273Z"
    fill="black" stroke="black" stroke-width="2" class="svg-elem-3"></path>
</svg>
