<svg width="640" height="480" viewBox="0 0 640 480" fill="none" xmlns="http://www.w3.org/2000/svg">
<defs>
  <style>
    @keyframes animate-svg-fill-1{0%{fill:transparent}100%{fill:rgb(186,186,186)}}.svg-elem-1{animation:animate-svg-fill-1 0.1s ease 0s both}@keyframes animate-svg-fill-2{0%{fill:transparent}100%{fill:rgb(255,255,255)}}.svg-elem-2{animation:animate-svg-fill-2 0.1s ease 0.07s both}@keyframes animate-svg-fill-3{0%{fill:transparent}100%{fill:rgb(186,186,186)}}.svg-elem-3{animation:animate-svg-fill-3 0.1s ease 0.14s both}@keyframes animate-svg-fill-4{0%{fill:transparent}100%{fill:rgb(186,186,186)}}.svg-elem-4{animation:animate-svg-fill-4 0.1s ease 0.21000000000000002s both}@keyframes animate-svg-fill-5{0%{fill:transparent}100%{fill:rgb(248,248,248)}}.svg-elem-5{animation:animate-svg-fill-5 0.1s ease 0.28s both}@keyframes animate-svg-fill-6{0%{fill:transparent}100%{fill:rgb(186,186,186)}}.svg-elem-6{animation:animate-svg-fill-6 0.1s ease 0.35000000000000003s both}@keyframes animate-svg-fill-7{0%{fill:transparent}100%{fill:rgb(255,255,255)}}.svg-elem-7{animation:animate-svg-fill-7 0.1s ease 0.42000000000000004s both}@keyframes animate-svg-fill-8{0%{fill:transparent}100%{fill:rgb(186,186,186)}}.svg-elem-8{animation:animate-svg-fill-8 0.1s ease 0.49000000000000005s both}@keyframes animate-svg-fill-9{0%{fill:transparent}100%{fill:rgb(210,210,210)}}.svg-elem-9{animation:animate-svg-fill-9 0.1s ease 0.56s both}@keyframes animate-svg-fill-10{0%{fill:transparent}100%{fill:rgb(230,230,230)}}.svg-elem-10{animation:animate-svg-fill-10 0.1s ease 0.6300000000000001s both}@keyframes animate-svg-fill-11{0%{fill:transparent}100%{fill:rgb(255,255,255)}}.svg-elem-11{animation:animate-svg-fill-11 0.1s ease 0.7000000000000001s both}@keyframes animate-svg-fill-12{0%{fill:transparent}100%{fill:rgb(186,186,186)}}.svg-elem-12{animation:animate-svg-fill-12 0.1s ease 0.77s both}@keyframes animate-svg-fill-13{0%{fill:transparent}100%{fill:rgb(255,255,255)}}.svg-elem-13{animation:animate-svg-fill-13 0.1s ease 0.8400000000000001s both}@keyframes animate-svg-fill-14{0%{fill:transparent}100%{fill:rgb(186,186,186)}}.svg-elem-14{animation:animate-svg-fill-14 0.1s ease 0.9100000000000001s both}@keyframes animate-svg-fill-15{0%{fill:transparent}100%{fill:rgb(255,255,255)}}.svg-elem-15{animation:animate-svg-fill-15 0.1s ease 0.9800000000000001s both}@keyframes animate-svg-fill-16{0%{fill:transparent}100%{fill:rgb(240,240,240)}}.svg-elem-16{animation:animate-svg-fill-16 0.1s ease 1.05s both}@keyframes animate-svg-fill-17{0%{fill:transparent}100%{fill:rgb(220,220,220)}}.svg-elem-17{animation:animate-svg-fill-17 0.1s ease 1.12s both}@keyframes animate-svg-fill-18{0%{fill:transparent}100%{fill:rgb(225,225,225)}}.svg-elem-18{animation:animate-svg-fill-18 0.1s ease 1.1900000000000002s both}@keyframes animate-svg-fill-19{0%{fill:transparent}100%{fill:rgb(186,186,186)}}.svg-elem-19{animation:animate-svg-fill-19 0.1s ease 1.2600000000000002s both}@keyframes animate-svg-fill-20{0%{fill:transparent}100%{fill:rgb(186,186,186)}}.svg-elem-20{animation:animate-svg-fill-20 0.1s ease 1.33s both}@keyframes animate-svg-fill-21{0%{fill:transparent}100%{fill:rgb(240,240,240)}}.svg-elem-21{animation:animate-svg-fill-21 0.1s ease 1.4000000000000001s both}@keyframes animate-svg-fill-22{0%{fill:transparent}100%{fill:rgb(186,186,186)}}.svg-elem-22{animation:animate-svg-fill-22 0.1s ease 1.4700000000000002s both}@keyframes animate-svg-fill-23{0%{fill:transparent}100%{fill:rgb(248,248,248)}}.svg-elem-23{animation:animate-svg-fill-23 0.1s ease 1.54s both}@keyframes animate-svg-fill-24{0%{fill:transparent}100%{fill:rgb(186,186,186)}}.svg-elem-24{animation:animate-svg-fill-24 0.1s ease 1.61s both}@keyframes animate-svg-fill-25{0%{fill:transparent}100%{fill:rgb(186,186,186)}}.svg-elem-25{animation:animate-svg-fill-25 0.1s ease 1.6800000000000002s both}@keyframes animate-svg-fill-26{0%{fill:transparent}100%{fill:rgb(186,186,186)}}.svg-elem-26{animation:animate-svg-fill-26 0.1s ease 1.7500000000000002s both}@keyframes animate-svg-fill-27{0%{fill:transparent}100%{fill:rgb(155,155,155)}}.svg-elem-27{animation:animate-svg-fill-27 0.1s ease 1.8200000000000003s both}.svg-elem-28{animation:animate-svg-fill-28 0.1s ease 1.8900000000000001s both}@keyframes animate-svg-fill-29{0%{fill:transparent}100%{fill:rgb(255,255,255)}}.svg-elem-29{animation:animate-svg-fill-29 0.1s ease 1.9600000000000002s both}.svg-elem-30{animation:animate-svg-fill-30 0.1s ease 2.0300000000000002s both}@keyframes animate-svg-fill-31{0%{fill:transparent}100%{fill:rgb(186,186,186)}}.svg-elem-31{animation:animate-svg-fill-31 0.1s ease 2.1s both}@keyframes animate-svg-fill-32{0%{fill:transparent}100%{fill:rgb(186,186,186)}}.svg-elem-32{animation:animate-svg-fill-32 0.1s ease 2.1700000000000004s both}@keyframes animate-svg-fill-33{0%{fill:transparent}100%{fill:rgb(210,210,210)}}.svg-elem-33{animation:animate-svg-fill-33 0.1s ease 2.24s both}.svg-elem-34{animation:animate-svg-fill-34 0.1s ease 2.31s both}@keyframes animate-svg-fill-35{0%{fill:transparent}100%{fill:rgb(217,217,217)}}.svg-elem-35{animation:animate-svg-fill-35 0.1s ease 2.3800000000000003s both}@keyframes animate-svg-fill-36{0%{fill:transparent}100%{fill:rgb(186,186,186)}}.svg-elem-36{animation:animate-svg-fill-36 0.1s ease 2.45s both}@keyframes animate-svg-fill-37{0%{fill:transparent}100%{fill:rgb(210,210,210)}}.svg-elem-37{animation:animate-svg-fill-37 0.1s ease 2.5200000000000005s both}@keyframes animate-svg-fill-38{0%{fill:transparent}100%{fill:rgb(91,91,91)}}.svg-elem-38{animation:animate-svg-fill-38 0.1s ease 2.5900000000000003s both}@keyframes animate-svg-fill-39{0%{fill:transparent}100%{fill:rgb(146,146,146)}}.svg-elem-39{animation:animate-svg-fill-39 0.1s ease 2.66s both}.svg-elem-40{animation:animate-svg-fill-40 0.1s ease 2.7300000000000004s both}@keyframes animate-svg-fill-41{0%{fill:transparent}100%{fill:rgb(210,210,210)}}.svg-elem-41{animation:animate-svg-fill-41 0.1s ease 2.8000000000000003s both}@keyframes animate-svg-fill-42{0%{fill:transparent}100%{fill:rgb(255,255,255)}}.svg-elem-42{animation:animate-svg-fill-42 0.1s ease 2.87s both}@keyframes animate-svg-fill-43{0%{fill:transparent}100%{fill:rgb(210,210,210)}}.svg-elem-43{animation:animate-svg-fill-43 0.1s ease 2.9400000000000004s both}@keyframes animate-svg-fill-44{0%{fill:transparent}100%{fill:rgb(84,84,84)}}.svg-elem-44{animation:animate-svg-fill-44 0.1s ease 3.0100000000000002s both}@keyframes animate-svg-fill-45{0%{fill:transparent}100%{fill:rgb(128,128,128)}}.svg-elem-45{animation:animate-svg-fill-45 0.1s ease 3.08s both}@keyframes animate-svg-fill-46{0%{fill:transparent}100%{fill:rgb(186,186,186)}}.svg-elem-46{animation:animate-svg-fill-46 0.1s ease 3.1500000000000004s both}@keyframes animate-svg-fill-47{0%{fill:transparent}100%{fill:rgb(210,210,210)}}.svg-elem-47{animation:animate-svg-fill-47 0.1s ease 3.22s both}@keyframes animate-svg-fill-48{0%{fill:transparent}100%{fill:rgb(42,203,17)}}.svg-elem-48{animation:animate-svg-fill-48 0.1s ease 3.2900000000000005s both}@keyframes animate-svg-fill-49{0%{fill:transparent}100%{fill:rgb(45,221,17)}}.svg-elem-49{animation:animate-svg-fill-49 0.1s ease 3.3600000000000003s both}@keyframes animate-svg-fill-50{0%{fill:transparent}100%{fill:rgb(255,255,255)}}.svg-elem-50{animation:animate-svg-fill-50 0.1s ease 3.43s both}@keyframes animate-svg-fill-51{0%{fill:transparent}100%{fill:rgb(238,238,238)}}.svg-elem-51{animation:animate-svg-fill-51 0.1s ease 3.5000000000000004s both}@keyframes animate-svg-fill-52{0%{fill:transparent}100%{fill:rgb(186,186,186)}}.svg-elem-52{animation:animate-svg-fill-52 0.1s ease 3.5700000000000003s both}@keyframes animate-svg-fill-53{0%{fill:transparent}100%{fill:rgb(238,238,238)}}.svg-elem-53{animation:animate-svg-fill-53 0.1s ease 3.6400000000000006s both}@keyframes animate-svg-fill-54{0%{fill:transparent}100%{fill:rgb(151,151,151)}}.svg-elem-54{animation:animate-svg-fill-54 0.1s ease 3.7100000000000004s both}@keyframes animate-svg-fill-55{0%{fill:transparent}100%{fill:rgb(255,255,255)}}.svg-elem-55{animation:animate-svg-fill-55 0.1s ease 3.7800000000000002s both}@keyframes animate-svg-fill-56{0%{fill:transparent}100%{fill:rgb(151,151,151)}}.svg-elem-56{animation:animate-svg-fill-56 0.1s ease 3.8500000000000005s both}@keyframes animate-svg-fill-57{0%{fill:transparent}100%{fill:rgb(255,255,255)}}.svg-elem-57{animation:animate-svg-fill-57 0.1s ease 3.9200000000000004s both}@keyframes animate-svg-fill-58{0%{fill:transparent}100%{fill:rgb(186,186,186)}}.svg-elem-58{animation:animate-svg-fill-58 0.1s ease 3.99s both}@keyframes animate-svg-fill-59{0%{fill:transparent}100%{fill:rgb(151,151,151)}}.svg-elem-59{animation:animate-svg-fill-59 0.1s ease 4.0600000000000005s both}@keyframes animate-svg-fill-60{0%{fill:transparent}100%{fill:rgb(151,151,151)}}.svg-elem-60{animation:animate-svg-fill-60 0.1s ease 4.130000000000001s both}@keyframes animate-svg-fill-61{0%{fill:transparent}100%{fill:rgb(151,151,151)}}.svg-elem-61{animation:animate-svg-fill-61 0.1s ease 4.2s both}@keyframes animate-svg-fill-62{0%{fill:transparent}100%{fill:rgb(255,255,255)}}.svg-elem-62{animation:animate-svg-fill-62 0.1s ease 4.2700000000000005s both}@keyframes animate-svg-fill-63{0%{fill:transparent}100%{fill:rgb(255,255,255)}}.svg-elem-63{animation:animate-svg-fill-63 0.1s ease 4.340000000000001s both}@keyframes animate-svg-fill-64{0%{fill:transparent}100%{fill:rgb(255,255,255)}}.svg-elem-64{animation:animate-svg-fill-64 0.1s ease 4.41s both}@keyframes animate-svg-fill-65{0%{fill:transparent}100%{fill:rgb(21,21,21)}}.svg-elem-65{animation:animate-svg-fill-65 0.1s ease 4.48s both}@keyframes animate-svg-fill-66{0%{fill:transparent}100%{fill:rgb(21,21,21)}}.svg-elem-66{animation:animate-svg-fill-66 0.1s ease 4.550000000000001s both}@keyframes animate-svg-fill-67{0%{fill:transparent}100%{fill:rgb(21,21,21)}}.svg-elem-67{animation:animate-svg-fill-67 0.1s ease 4.62s both}@keyframes animate-svg-fill-68{0%{fill:transparent}100%{fill:rgb(21,21,21)}}.svg-elem-68{animation:animate-svg-fill-68 0.1s ease 4.69s both}
  </style>
</defs>
  <path fill-rule="evenodd" clip-rule="evenodd" d="M440.395 245.485L429.226 251.776C428.281 252.407 427.055 252.407 425.97 251.776L320.236 189.87C319.151 189.402 318.368 188.14 318.368 186.878V90.5575C318.368 89.9265 318.511 89.4578 318.83 88.8269L318.973 88.5022C319.294 87.8713 319.756 87.4026 320.218 87.0781L331.533 80.6244C334.004 79.2003 336.352 78.4251 338.504 78.1004C340.977 77.776 343.148 78.2629 345.016 79.2003C345.157 79.2003 345.157 79.3443 345.157 79.3443L345.3 79.4885L450.891 141.413C451.032 141.413 451.212 141.557 451.353 141.737C452.9 142.693 454.147 144.099 455.07 145.974C455.853 147.704 456.315 149.741 456.315 151.941L455.996 219.67C455.996 224.375 454.128 229.567 451.175 234.128C448.775 238.887 444.895 242.979 440.395 245.485ZM427.676 245.16L437.141 239.662C440.557 237.625 443.81 234.488 445.981 230.702C448.311 227.097 449.699 223.167 449.699 219.85L450.019 152.139C450.019 150.877 449.876 149.777 449.396 149.002C449.075 148.371 448.613 147.903 448.151 147.434L448.008 147.29L342.418 85.3655C342.276 85.3655 342.099 85.2213 341.956 85.2213C341.173 84.8968 340.409 84.7526 339.323 84.8968C337.917 85.0411 336.529 85.5278 334.823 86.4652L325.057 92.1078V184.985L427.676 245.16Z" fill="#BABABA" class="svg-elem-1"></path>
  <path fill-rule="evenodd" clip-rule="evenodd" d="M334.443 150.742V141.283L425.986 199.612L449.057 144.9L343.958 82.6291L343.817 82.4844C341.205 81.0555 337.515 81.3811 333.367 83.7503L322.141 90.2253L322 90.5509V182.61V162.552C329.519 158.158 334.443 158.773 334.443 150.742Z" fill="white" class="svg-elem-2"></path>
  <path fill-rule="evenodd" clip-rule="evenodd" d="M346.948 149.218V157.705C346.948 161.71 345.216 166.193 342.545 170.374C339.874 174.538 336.247 178.1 332.149 180.403L320.819 186.587L320.186 186.906V88.6722L320.33 88.3532L320.475 88.2114L331.952 81.868C333.99 80.6277 336.049 80.0075 337.924 79.8658C339.658 79.724 341.066 79.8658 342.329 80.486L342.959 80.805L343.105 80.9645L450.547 141.971L450.873 142.113L450.729 142.431L427.144 180.12L426.998 180.439L426.673 180.297L346.948 149.218ZM345.992 157.705V147.676L346.622 148.137L426.837 179.181L449.954 142.13L342.977 81.4427L342.834 81.301C341.571 80.681 340.001 80.3797 338.268 80.5215C336.536 80.6632 334.659 81.301 332.62 82.5237L321.287 88.8494L321.142 88.9912V185.524L331.826 179.659C335.76 177.497 339.369 173.936 341.894 169.931C344.422 165.909 345.992 161.568 345.992 157.705Z" fill="#BABABA" class="svg-elem-3"></path>
  <path fill-rule="evenodd" clip-rule="evenodd" d="M204.018 320.507V243.638C204.018 242.391 204.644 241.305 205.729 240.681L310.737 180.113C311.822 179.49 313.071 179.49 314.3 180.113L427.078 245.331C428.325 245.954 429.092 247.041 429.092 248.43V325.298C429.092 330.588 427.381 336.327 424.903 341.455C422.266 346.57 418.38 350.934 414.352 353.409L335.901 399.049C333.726 400.296 331.713 400.919 329.681 401.062C327.506 401.206 325.333 400.742 323.622 399.513L210.844 334.454C210.703 334.295 210.382 334.295 210.22 334.136C208.207 332.886 206.657 331.034 205.713 328.702C204.482 326.243 204.018 323.446 204.018 320.507ZM211.005 245.651V320.489C211.005 322.502 211.326 324.372 211.931 325.601C212.395 326.689 213.019 327.471 213.804 327.935C213.945 327.935 213.945 328.077 214.125 328.077L326.757 392.974C326.9 393.117 327.078 393.117 327.221 393.295C327.845 393.615 328.468 393.759 329.094 393.616C330.02 393.616 331.107 393.154 332.193 392.53L410.646 347.032C413.604 345.321 416.543 341.919 418.575 337.876C420.75 333.849 421.997 329.164 421.997 324.978V250.141L312.482 186.811L211.005 245.651Z" fill="#BABABA" class="svg-elem-4"></path>
  <path fill-rule="evenodd" clip-rule="evenodd" d="M207.649 243.174V319.961C207.649 325.244 209.369 328.946 212.184 330.495L319.811 392.225C323.251 394.237 325.599 395.179 329.344 395.643L370.435 362.135C377.782 357.953 383.714 346.777 383.714 337.15V272.785L321.549 307.058L207.649 243.174Z" fill="#F8F8F8" class="svg-elem-5"></path>
  <path fill-rule="evenodd" clip-rule="evenodd" d="M382.788 337.487C382.788 342.174 381.381 347.507 378.904 351.892C376.572 356.435 373.329 360.19 369.748 362.219L327.353 390.865L327.21 391.01V391.154L326.124 396.164L212.78 330.086C211.372 329.296 210.304 328.056 209.681 326.17C208.896 324.445 208.593 322.254 208.593 319.74V242.706L321.315 307.834L321.458 307.977L321.599 307.834L382.61 273.079L382.788 337.487ZM207.649 319.938L207.793 320.566V321.035L207.649 319.938ZM383.09 272.198L321.617 307.115L208.434 241.682L207.811 241.359V319.956C207.811 322.614 208.273 324.823 209.058 326.691L208.737 324.966L209.058 326.224L209.681 327.321L209.058 326.529C209.681 328.092 210.766 329.512 211.854 330.284C211.995 330.427 212.316 330.607 212.477 330.75L211.854 330.122H211.995L212.459 330.75L213.547 331.38L326.427 397.135L326.891 397.458L327.032 396.846L328.12 391.37L370.353 362.722C374.078 360.531 377.336 356.615 379.83 352.087C382.308 347.4 383.714 342.229 383.714 337.216V271.461L383.09 272.198Z" fill="#BABABA" class="svg-elem-6"></path>
  <path fill-rule="evenodd" clip-rule="evenodd" d="M322 308.102V384.216C322 393.763 327.854 398.253 335.107 394.08L412.352 349.712C419.447 345.557 425.46 334.456 425.46 324.893V248.619L322.318 308.084L322 308.102Z" fill="white" class="svg-elem-7"></path>
  <path fill-rule="evenodd" clip-rule="evenodd" d="M320.186 385.566V307.317L320.812 307.64L425.463 246.804V325.198C425.463 330.072 423.909 335.378 421.567 340.092C419.083 344.786 415.795 348.709 412.061 350.74L333.872 395.893C331.997 396.99 330.138 397.456 328.423 397.456C327.012 397.456 325.779 397.133 324.527 396.359C323.438 395.729 322.509 394.633 321.722 393.374C320.955 391.377 320.186 388.696 320.186 385.566ZM321.114 308.575V385.566C321.114 388.696 321.74 391.197 322.83 393.085C323.456 394.346 324.384 395.281 325.315 395.909C326.243 396.539 327.494 396.846 328.746 396.846C330.3 396.846 331.854 396.378 333.731 395.424L411.918 350.274C415.492 348.24 418.78 344.463 421.103 339.912C423.442 335.362 424.998 330.199 424.998 325.485V248.657L321.114 308.575Z" fill="#BABABA" class="svg-elem-8"></path>
  <path fill-rule="evenodd" clip-rule="evenodd" d="M311.872 183.276L425.46 248.696L321.078 308.518L207.649 243.259L311.872 183.276Z" fill="#D2D2D2" class="svg-elem-9"></path>
  <path fill-rule="evenodd" clip-rule="evenodd" d="M394.603 235.914L412.755 247.881L394.603 259.51C395.47 257.045 396.487 253.112 396.487 248.032C396.637 242.782 395.486 238.529 394.603 235.914Z" fill="#E6E6E6" class="svg-elem-10"></path>
  <path fill-rule="evenodd" clip-rule="evenodd" d="M264.549 217.196V210.502L207.649 243.168L321.162 308.516L425.46 248.451L400.043 233.85L393.8 236.635L412.045 248.148L320.677 300.432L236.34 252.361L221.69 242.704L264.549 217.196Z" fill="white" class="svg-elem-11"></path>
  <path fill-rule="evenodd" clip-rule="evenodd" d="M424.161 247.596L312.22 182.369L208.951 242.296L321.21 307.378L424.161 247.596ZM312.523 181.581L425.244 247.274C425.387 247.417 425.565 247.596 425.387 247.9L425.244 248.043L321.51 308.455C321.369 308.598 321.192 308.455 321.048 308.455L207.865 242.905C207.724 242.762 207.547 242.583 207.724 242.278L207.865 242.135L311.902 181.581C312.204 181.42 312.364 181.42 312.523 181.581Z" fill="#BABABA" class="svg-elem-12"></path>
  <path fill-rule="evenodd" clip-rule="evenodd" d="M452.367 219.538L452.686 151.861C452.686 143.843 446.361 141.015 438.654 145.411L427.417 151.861L427.273 152.186V248.619L438.372 242.331C445.901 237.592 452.367 227.394 452.367 219.538Z" fill="white" class="svg-elem-13"></path>
  <path fill-rule="evenodd" clip-rule="evenodd" d="M454.502 152.036L454.178 218.96C454.178 222.986 452.456 227.493 449.801 231.697C447.148 235.722 443.542 239.463 439.471 241.779L427.901 248.298L427.273 248.619V152.499L427.419 152.179L427.562 152.036L439.31 145.516C441.965 144.109 444.313 143.343 446.502 143.343C447.919 143.343 449.157 143.664 450.249 144.27C451.343 144.893 452.276 145.819 452.904 146.906C454.178 148.153 454.502 150.023 454.502 152.036ZM453.569 219.121L453.892 152.214C453.892 150.344 453.569 148.652 452.797 147.387C452.169 146.3 451.38 145.516 450.447 145.053C449.514 144.59 448.258 144.27 447.005 144.27C444.977 144.27 442.627 144.893 440.279 146.283L428.548 152.802L428.404 152.945V247.194L439.346 240.977C443.255 238.804 446.7 235.224 449.353 231.198C451.828 227.35 453.407 222.861 453.569 219.121Z" fill="#BABABA" class="svg-elem-14"></path>
  <path fill-rule="evenodd" clip-rule="evenodd" d="M322 186.899V90.7056L427.276 152.57V248.619L322 186.899Z" fill="white" class="svg-elem-15"></path>
  <path fill-rule="evenodd" clip-rule="evenodd" d="M421.831 244.201V155.683L325.631 99.7812L326.095 125.538V189.231L412.81 239.992L421.688 244.989L421.831 244.201Z" fill="#F0F0F0" class="svg-elem-16"></path>
  <path fill-rule="evenodd" clip-rule="evenodd" d="M316.555 143.343V184.3L407.31 235.913V206.853C407.31 200.665 403.39 193.254 398.517 190.47L316.555 143.343Z" fill="#DCDCDC" class="svg-elem-17"></path>
  <path fill-rule="evenodd" clip-rule="evenodd" d="M347.421 112.427L325.631 99.7812L326.095 125.538V189.231L412.81 239.992L421.688 244.989L421.831 244.201V169.26L347.421 126.004V112.427Z" fill="#E1E1E1" class="svg-elem-18"></path>
  <path fill-rule="evenodd" clip-rule="evenodd" d="M421.831 244.989L421.053 244.527V155.975L326.409 100.847V189.559L325.631 189.098V100.243C325.631 100.101 325.772 99.7812 326.09 99.7812C326.231 99.7812 326.231 99.7812 326.231 99.7812L421.635 155.353C421.777 155.353 421.777 155.495 421.777 155.673L421.831 244.989Z" fill="#BABABA" class="svg-elem-19"></path>
  <path fill-rule="evenodd" clip-rule="evenodd" d="M321.133 91.9395V186.552L426.366 247.654V153.059L321.133 91.9395ZM320.186 186.873V91.1707C320.186 91.0275 320.329 90.7056 320.65 90.7056C320.794 90.7056 320.794 90.7056 320.971 90.7056L427.135 152.272C427.276 152.272 427.276 152.416 427.276 152.594V248.154C427.276 248.297 427.135 248.619 426.812 248.619C426.671 248.619 426.671 248.619 426.671 248.619L320.507 187.052C320.348 187.178 320.186 187.035 320.186 186.873Z" fill="#BABABA" class="svg-elem-20"></path>
  <path fill-rule="evenodd" clip-rule="evenodd" d="M269.361 307.654L254.401 299.442L249.396 302.789L252.775 309.936L258.076 325.296L262.251 330.299C268.365 326.811 269.011 326.045 269.177 321.18L269.361 307.654Z" fill="#F0F0F0" class="svg-elem-21"></path>
  <path fill-rule="evenodd" clip-rule="evenodd" d="M254.902 297.745L269.047 306.136C269.186 306.28 269.361 306.457 269.361 306.76V320.425C269.361 323.062 269.047 324.611 267.982 326.017C267.075 327.408 265.398 328.495 262.515 330.204C262.201 330.347 261.905 330.347 261.607 330.063L257.662 324.95L252.649 309.253C252.649 309.253 252.649 309.253 252.649 309.112L249.453 301.968C249.314 301.647 249.453 301.344 249.594 301.183L254.326 297.763C254.431 297.586 254.745 297.586 254.902 297.745ZM268.139 307.062L254.588 298.992L250.64 301.788L253.68 308.471L258.551 323.988L262.201 328.636C264.629 327.087 266.149 326.161 266.918 325.073C267.684 323.988 267.982 322.598 267.982 320.263L268.139 307.062Z" fill="#BABABA" class="svg-elem-22"></path>
  <path fill-rule="evenodd" clip-rule="evenodd" d="M263.916 310.65L249.396 303.071V317.767C249.396 329.499 263.916 334.83 263.916 325.633V310.65Z" fill="#F8F8F8" class="svg-elem-23"></path>
  <path fill-rule="evenodd" clip-rule="evenodd" d="M264.249 326.259C264.249 328.5 263.432 329.785 262.301 330.263C261.484 330.595 260.688 330.741 259.871 330.595C258.906 330.447 257.926 329.951 256.961 329.474C253.566 327.544 250.49 323.392 250.49 317.79V303.056L264.228 310.587L264.249 326.259ZM250.36 301.438C250.026 301.108 249.544 301.274 249.544 301.586C249.396 301.731 249.396 301.731 249.396 301.916V317.772C249.396 324.018 252.788 328.648 256.515 330.741C257.646 331.385 258.777 331.863 259.91 332.026C261.041 332.174 262.003 332.174 262.986 331.697C264.599 330.889 265.732 329.144 265.732 326.425V310.239C265.732 309.909 265.582 309.761 265.398 309.595L250.36 301.438Z" fill="#BABABA" class="svg-elem-24"></path>
  <path fill-rule="evenodd" clip-rule="evenodd" d="M320.418 300.282L221.628 243.379L234.7 235.779L260.934 220.668C260.934 220.346 261.077 219.881 261.257 219.577L220.573 243.057C220.429 243.2 220.25 243.379 220.429 243.683L220.573 243.826L320.311 301.194C320.455 301.335 320.632 301.194 320.775 301.194L409.124 250.997V249.906L320.418 300.282Z" fill="#BABABA" class="svg-elem-25"></path>
  <path fill-rule="evenodd" clip-rule="evenodd" d="M397.818 182.271L287.017 118.027C286.389 117.705 286.082 117.562 285.759 117.562C285.616 117.562 285.293 117.723 284.806 118.027L281.049 120.371C279.791 121.159 279.017 121.624 278.694 122.089C278.371 122.555 278.226 123.342 278.226 124.738V260.134L345.375 285.618L340.252 288.551L318.516 276.044L285.131 261.691C277.293 257.163 271.179 251.097 271.179 238.767V124.881C271.179 121.767 271.646 119.888 272.906 118.17C274.003 116.613 275.404 115.683 277.293 114.43L281.049 112.086C282.612 111.155 284.034 110.672 285.741 110.672C287.306 110.672 288.869 111.137 290.596 112.086L401.233 176.348C404.057 177.905 406.393 180.875 408.282 184.15C410.007 187.443 410.942 191.165 410.942 194.601V248.251L403.895 252.313V194.458C403.895 192.114 403.103 189.465 402.007 187.282C400.785 185.099 399.381 183.22 397.818 182.271Z" fill="#BABABA" class="svg-elem-26"></path>
  <path fill-rule="evenodd" clip-rule="evenodd" d="M399.22 179.297L289.611 115.179C286.979 113.625 285.111 114.393 283.404 115.5L278.44 118.446L281.393 122.339L301.085 243.415C302.009 249.182 305.265 255.253 308.999 258.502L359.25 277.661L407.313 249.967V194.402C407.135 188.635 403.559 181.779 399.22 179.297Z" fill="#9B9B9B" class="svg-elem-27"></path>
  <path d="M398.874 179.71L288.337 116.091C287.083 115.311 285.991 115.152 285.22 115.311C284.271 115.453 283.502 115.914 282.569 116.392L277.896 119.174L280.546 122.717L280.69 122.859L300.519 242.992C300.983 245.773 301.932 248.537 303.331 251.177C304.744 253.799 306.446 256.12 308.327 257.82L365.164 273.57L364.374 274.03L307.699 258.423C305.82 256.722 303.957 254.26 302.56 251.62C301.144 248.998 300.07 246.074 299.586 243.134L279.757 123.018L276.945 119.156L276.624 118.837L277.088 118.518L282.087 115.577C283.017 114.957 283.966 114.497 285.061 114.337C286.153 114.195 287.406 114.479 288.803 115.276L399.179 178.895C401.363 180.135 403.388 182.598 404.962 185.379C406.378 188.16 407.31 191.402 407.31 194.326V249.813L406.378 250.273V194.396C406.378 191.615 405.447 188.532 404.032 185.91C402.778 183.271 400.896 180.95 398.874 179.71Z" stroke="#D2D2D2" stroke-miterlimit="10" class="svg-elem-28"></path>
  <path fill-rule="evenodd" clip-rule="evenodd" d="M393.973 182.741L282.81 118.863C278.412 116.391 274.81 119.006 274.81 124.75V269.382L338.57 288.551L362.911 275.072L401.863 253.838V197.91C401.988 192.184 398.387 185.373 393.973 182.741Z" fill="white" class="svg-elem-29"></path>
  <path d="M393.256 184.035L282.758 119.671C281.666 119.044 280.735 118.739 279.786 118.739C279.161 118.739 278.373 118.882 277.907 119.205C277.281 119.528 276.815 119.993 276.492 120.764C275.866 121.858 275.561 123.417 275.561 125.299V254.655C275.561 262.004 277.12 268.098 286.339 274.03L277.297 270.123L274.81 267.309V125.299C274.81 123.274 275.274 121.714 275.902 120.441C276.367 119.653 276.995 119.044 277.62 118.56C278.246 118.093 279.179 117.932 279.966 117.932C281.058 117.932 282.15 118.255 283.261 118.864L393.738 183.229C395.923 184.483 397.945 186.975 399.522 189.789C400.935 192.603 401.866 195.883 401.866 198.84V254.583L400.935 255.049V198.876C400.935 196.062 400.004 192.943 398.589 190.29C397.158 187.476 395.279 185.29 393.256 184.035Z" stroke="#D2D2D2" stroke-miterlimit="10" class="svg-elem-30"></path>
  <path fill-rule="evenodd" clip-rule="evenodd" d="M320.495 300.291L221.649 243.305L226.504 240.493V239.544L220.573 242.982C220.429 243.125 220.25 243.305 220.429 243.609L220.573 243.752L320.37 301.203C320.514 301.274 320.693 301.274 320.837 301.203L410.939 250.002V248.91L320.495 300.291Z" fill="#BABABA" class="svg-elem-31"></path>
  <path fill-rule="evenodd" clip-rule="evenodd" d="M414.259 83.2885C407.408 79.3978 401.311 78.9336 397.204 81.111L394.269 82.4496C393.727 82.6282 393.22 82.86 392.715 83.1101L381.898 88.0895L384.328 93.8543C382.947 97.1382 382.492 101.172 382.492 105.687C382.492 126.212 394.671 150.021 410.066 159.194C410.974 159.658 411.586 160.122 412.493 160.604L415.902 166.94C415.902 166.94 431.731 159.515 432.204 159.373C438.145 156.089 441.797 148.022 441.797 136.813C441.831 116.289 429.635 92.4801 414.259 83.2885Z" fill="#BABABA" class="svg-elem-32"></path>
  <path fill-rule="evenodd" clip-rule="evenodd" d="M399.142 90.6455C414.848 99.8644 427.274 123.79 427.274 144.416C427.274 165.041 414.527 174.278 399.142 165.364C383.438 156.145 371.013 132.22 371.013 111.576C370.692 90.6455 383.277 81.4268 399.142 90.6455Z" fill="#D2D2D2" class="svg-elem-33"></path>
  <path d="M401.866 206.872L274.81 132.453" stroke="#D2D2D2" stroke-miterlimit="10" class="svg-elem-34"></path>
  <path fill-rule="evenodd" clip-rule="evenodd" d="M322.768 174.85C320.034 173.265 317.604 173.639 315.349 175.1L310.45 178.288L289.561 166.354C287.006 164.876 284.414 164.751 282.408 165.873L276.624 168.687L278.203 235.536L358.761 277.661L383.714 263.518V230.406C383.714 222.854 380.023 218.116 375.48 215.461L348.04 199.769L344.295 191.291C342.149 186.428 336.541 183.168 333.524 181.298L322.768 174.85Z" fill="#D9D9D9" class="svg-elem-35"></path>
  <path fill-rule="evenodd" clip-rule="evenodd" d="M349.671 283.106L374.638 269.002V237.453C374.638 229.922 370.945 225.196 366.399 222.55L280.435 173.611C277.878 172.136 275.284 172.012 273.277 173.131C272.123 173.788 257.846 180.787 256.656 181.711L257.473 242.836L349.671 283.106Z" fill="#BABABA" class="svg-elem-36"></path>
  <path fill-rule="evenodd" clip-rule="evenodd" d="M320.366 299.442L358.304 277.443V246.135C358.304 238.66 354.622 233.971 350.09 231.345L264.404 182.762C259.871 180.153 254.843 181.157 254.843 188.632V260.96L320.366 299.442Z" fill="#D2D2D2" class="svg-elem-37"></path>
  <path fill-rule="evenodd" clip-rule="evenodd" d="M337.164 229.291L348.076 235.596C349.487 236.382 350.684 238.686 350.684 240.704V245.812C350.684 246.812 350.381 247.527 349.881 247.902C349.38 248.313 348.379 249.098 347.38 249.706L337.271 241.615C335.86 240.811 334.664 238.525 334.664 236.507L333.055 231.006C333.663 230.506 334.664 229.809 335.36 229.291C335.86 228.988 336.468 228.898 337.164 229.291Z" fill="#5B5B5B" class="svg-elem-38"></path>
  <path fill-rule="evenodd" clip-rule="evenodd" d="M334.864 231.006L345.776 237.311C347.187 238.096 348.383 240.4 348.383 242.419V247.527C348.383 249.527 347.187 250.438 345.776 249.616L334.864 243.312C333.453 242.526 332.256 240.222 332.256 238.204V233.096C332.256 231.113 333.362 230.095 334.864 231.006Z" fill="#929292" class="svg-elem-39"></path>
  <path d="M304.4 214.738C318.42 221.999 330.338 243.479 331.046 262.692C331.735 281.907 320.95 291.593 306.928 284.314C292.908 277.054 280.992 255.575 280.285 236.361C279.595 217.147 290.398 207.46 304.4 214.738Z" stroke="#BABABA" stroke-miterlimit="10" class="svg-elem-40"></path>
  <path fill-rule="evenodd" clip-rule="evenodd" d="M305.363 217.879C299.217 214.468 293.734 214.039 290.036 215.968L287.413 217.147C286.931 217.308 286.448 217.486 286.018 217.719L276.303 222.112L278.483 227.167C277.249 230.042 276.838 233.596 276.838 237.561C276.838 255.618 287.786 276.551 301.592 284.624C302.414 285.033 302.951 285.445 303.772 285.857L306.826 291.447C306.826 291.447 321.044 284.926 321.471 284.785C326.811 281.909 330.099 274.799 330.099 264.958C330.115 246.884 319.185 225.952 305.363 217.879Z" fill="#D2D2D2" class="svg-elem-41"></path>
  <path fill-rule="evenodd" clip-rule="evenodd" d="M291.447 224.291C305.251 232.364 316.218 253.296 316.218 271.336C316.218 289.393 305.003 297.465 291.447 289.661C277.641 281.588 266.692 260.655 266.692 242.598C266.406 224.291 277.479 216.236 291.447 224.291Z" fill="white" class="svg-elem-42"></path>
  <path fill-rule="evenodd" clip-rule="evenodd" d="M289.329 242.362C294.325 245.179 298.405 253.116 298.405 260.078C298.405 267.04 294.344 270.408 289.329 267.591C284.332 264.774 280.253 256.836 280.253 249.874C280.271 242.911 284.332 239.527 289.329 242.362Z" fill="#D2D2D2" class="svg-elem-43"></path>
  <path fill-rule="evenodd" clip-rule="evenodd" d="M274.239 176.222L278.105 178.477C279.152 179.08 280.164 180.82 280.164 182.33L280.253 186.324L276.954 188.721L273.193 184.709L269.361 178.246L271.916 176.435C272.572 175.938 273.477 175.903 274.239 176.222Z" fill="#545454" class="svg-elem-44"></path>
  <path fill-rule="evenodd" clip-rule="evenodd" d="M269.732 178.085L274.437 180.675C275.755 181.551 276.681 182.938 276.622 184.653V188.721L267.548 183.887C267.548 183.832 267.548 183.74 267.548 183.686V179.709C267.568 178.176 268.474 177.392 269.732 178.085Z" fill="#808080" class="svg-elem-45"></path>
  <path fill-rule="evenodd" clip-rule="evenodd" d="M314.029 182.48C311.324 180.91 308.919 181.28 306.687 182.728L291.145 192.873L347.344 225.023L347.414 219.412C343.182 215.424 342.286 214.63 339.037 207.254L335.296 198.767C333.171 193.95 327.622 190.721 324.636 188.868L314.029 182.48Z" fill="#BABABA" class="svg-elem-46"></path>
  <path fill-rule="evenodd" clip-rule="evenodd" d="M311.128 194.122L318.689 198.702C321.74 200.545 324.668 204.283 326.823 209.091L330.575 217.409C331.258 218.918 332.031 220.252 332.891 221.393L287.516 196.123C289.076 196.351 290.514 195.859 291.663 194.631L295.415 190.683C297.57 188.401 300.498 188.103 303.549 189.823L311.128 194.122Z" fill="#D2D2D2" class="svg-elem-47"></path>
  <path fill-rule="evenodd" clip-rule="evenodd" d="M229.922 223.273L241.136 217.2C242.852 216.111 243.78 214.093 243.78 211.289L243.924 178.908C243.924 172.514 238.62 164.119 232.242 160.548L206.864 146.223C201.881 143.419 199.237 144.348 195.504 146.688L187.092 151.046L210.757 186.231L229.922 223.273Z" fill="#2ACB11" class="svg-elem-48"></path>
  <path fill-rule="evenodd" clip-rule="evenodd" d="M184 189.499L184.141 157.118C184.141 150.742 189.59 148.403 195.984 151.993L221.362 166.316C227.758 169.889 233.205 178.301 233.043 184.677L232.9 217.058C232.9 223.434 227.453 225.791 221.059 222.184L195.679 207.878C189.285 204.145 184 195.893 184 189.499Z" fill="#2DDD11" class="svg-elem-49"></path>
  <path fill-rule="evenodd" clip-rule="evenodd" d="M202.648 167.796L223.232 193.224C223.938 194.102 224.208 195.303 223.776 195.876C223.63 196.073 223.451 196.181 223.214 196.181L212.941 196.987C212.905 196.987 212.887 196.987 212.85 196.987L202.63 197.794C201.924 197.848 201.003 197.041 200.587 195.984C200.443 195.643 200.389 195.303 200.389 195.016V167.993C200.389 167.043 201.058 166.667 201.89 167.151C202.161 167.276 202.414 167.527 202.648 167.796Z" fill="white" class="svg-elem-50"></path>
  <path fill-rule="evenodd" clip-rule="evenodd" d="M347.394 263.875C347.679 263.661 350.216 261.964 350.537 261.713C352.753 260.089 354.056 260.268 356.2 261.499L406.69 290.504C409.279 291.97 411.388 296.006 411.388 299.435V339.336C411.566 341.568 410.549 343.73 408.708 345.015C407.368 345.907 405.725 346.997 404.797 347.461H402.565L350.305 317.796H350.252L350.054 317.653L349.965 317.582L349.895 317.51V317.277C348.948 315.616 348.448 313.76 348.393 311.867V267.77C347.376 266.732 347.019 265.251 347.394 263.875Z" fill="#EEEEEE" class="svg-elem-51"></path>
  <path fill-rule="evenodd" clip-rule="evenodd" d="M350.539 264.839L349.968 265.233V265.517L348.503 266.216L348.414 266.393C348.252 266.805 348.182 267.269 348.182 267.734V308.902C348.182 309.598 348.289 310.258 348.484 310.92C348.698 311.669 348.985 312.383 349.36 313.064C349.36 313.205 349.501 313.33 349.574 313.473V313.58L349.645 313.723C349.752 313.901 349.859 314.026 349.968 314.188L350.359 314.634L350.484 314.777V314.847L350.591 314.938L350.789 315.134L351.021 315.314L351.306 315.491L402.638 344.942C402.797 345.033 402.977 345.086 403.173 345.159L403.352 345.068C403.958 344.765 405.102 344.014 406.21 343.281L406.959 342.783C407.477 342.46 407.887 341.996 408.155 341.443C408.424 340.747 408.567 340.014 408.531 339.282V299.453C408.476 298.042 408.119 296.666 407.477 295.435C406.959 294.363 406.155 293.435 405.154 292.755L354.878 263.786C354.432 263.465 353.913 263.267 353.378 263.179C352.878 263.267 352.414 263.499 352.038 263.857L350.521 264.91L350.539 264.839ZM344.787 262.644C345.126 262.287 345.538 261.982 345.966 261.75L348.967 259.677C350.216 258.642 351.754 258.071 353.36 258C354.825 258.052 356.254 258.516 357.467 259.338L407.96 288.291C409.816 289.451 411.318 291.112 412.28 293.041C413.336 295.005 413.907 297.203 413.978 299.435V339.336C413.996 340.781 413.709 342.228 413.156 343.55C412.515 345.049 411.443 346.301 410.067 347.177L409.316 347.675C408.155 348.426 406.959 349.211 406.067 349.677C405.905 349.784 405.744 349.855 405.566 349.925C405.279 350.05 405.047 350.087 404.763 350.212C404.424 350.282 404.067 350.355 403.71 350.373H403.405C403.102 350.373 402.763 350.373 402.458 350.282L401.851 350.141H401.53L400.941 349.909C400.797 349.836 400.636 349.766 400.51 349.677H400.369C388.67 342.979 371.417 334.067 358.273 325.887C354.414 323.493 350.698 321.707 347.825 319.366L347.608 319.189L347.467 319.064L347.394 318.993L347.199 318.67H347.126L347.001 318.529C346.503 318.028 346.054 317.491 345.663 316.938L345.483 316.706L345.288 316.386L344.983 315.885L344.842 315.635C344.268 314.599 343.822 313.51 343.501 312.365C343.181 311.278 343.019 310.133 343.001 308.991V267.786C342.983 266.589 343.233 265.392 343.697 264.305C343.966 263.697 344.323 263.16 344.769 262.696L344.787 262.644Z" fill="#BABABA" class="svg-elem-52"></path>
  <path fill-rule="evenodd" clip-rule="evenodd" d="M404.727 347.443L355.378 314.615C352.646 312.42 350.951 309.168 350.682 305.685L347.379 263.893C347.663 263.679 350.2 261.982 350.521 261.731C352.737 260.107 354.057 260.284 356.184 261.518L406.674 290.523C409.264 291.988 411.37 296.024 411.37 299.453V339.352C411.55 341.584 410.531 343.746 408.692 345.031C407.352 345.925 405.71 347.015 404.799 347.479L404.727 347.443Z" fill="#EEEEEE" class="svg-elem-53"></path>
  <path fill-rule="evenodd" clip-rule="evenodd" d="M355.626 314.331L404.76 346.979C405.493 346.569 406.601 345.871 407.636 345.174L408.403 344.674C409.279 344.121 409.975 343.318 410.387 342.353C410.779 341.388 410.976 340.371 410.94 339.352V299.417C410.885 297.667 410.44 295.951 409.6 294.416C408.904 292.969 407.796 291.719 406.44 290.862L355.965 261.893C355.18 261.374 354.304 261.053 353.376 260.981C352.411 261.053 351.519 261.429 350.787 262.07L349.321 263.072L347.822 264.107L351.107 305.703C351.269 307.453 351.788 309.168 352.625 310.722C353.324 312.151 354.377 313.384 355.663 314.313L355.626 314.331ZM404.474 347.782L355.126 315.009C353.733 313.992 352.609 312.652 351.84 311.116C350.964 309.455 350.411 307.633 350.234 305.758L346.894 263.75L347.071 263.606C347.214 263.481 348.036 262.928 348.787 262.409C349.553 261.893 350.125 261.536 350.216 261.445C351.089 260.696 352.179 260.248 353.324 260.196C354.395 260.248 355.449 260.605 356.341 261.213L406.833 290.147C408.333 291.112 409.548 292.452 410.314 294.058C411.19 295.701 411.691 297.542 411.743 299.417V339.318C411.78 340.478 411.548 341.602 411.12 342.674C410.637 343.782 409.832 344.71 408.815 345.354L408.046 345.855C406.867 346.64 405.636 347.443 404.867 347.837L404.635 347.943L404.44 347.8L404.474 347.782Z" fill="#979797" class="svg-elem-54"></path>
  <path fill-rule="evenodd" clip-rule="evenodd" d="M401.6 347.229L350.307 317.814C347.413 315.742 345.663 312.438 345.608 308.884V267.752C345.608 264.323 347.718 262.733 350.307 264.214L401.6 293.667C404.476 295.738 406.21 299.025 406.281 302.561V343.693C406.299 347.14 404.174 348.731 401.6 347.229Z" fill="white" class="svg-elem-55"></path>
  <path fill-rule="evenodd" clip-rule="evenodd" d="M350.52 317.439L401.798 346.89C402.299 347.211 402.852 347.391 403.423 347.391C403.798 347.391 404.155 347.284 404.478 347.086C404.799 346.872 405.084 346.585 405.282 346.246C405.691 345.461 405.889 344.603 405.871 343.711V302.561C405.816 300.809 405.37 299.096 404.531 297.56C403.834 296.113 402.726 294.88 401.389 294.006L350.093 264.553C349.592 264.25 349.039 264.07 348.468 264.054C348.111 264.036 347.736 264.143 347.415 264.339C347.092 264.553 346.807 264.839 346.609 265.178C346.2 265.963 346.002 266.858 346.038 267.75V308.884C346.093 310.634 346.539 312.347 347.378 313.883C348.075 315.33 349.164 316.563 350.52 317.439ZM401.37 347.604L350.075 318.153C348.575 317.189 347.378 315.849 346.591 314.24C345.717 312.597 345.217 310.759 345.162 308.884V267.75C345.128 266.714 345.378 265.697 345.861 264.785C346.127 264.321 346.502 263.911 346.948 263.624C347.397 263.356 347.913 263.215 348.45 263.215C349.183 263.249 349.897 263.447 350.52 263.82L401.798 293.273C403.3 294.238 404.494 295.594 405.282 297.185C406.173 298.827 406.674 300.668 406.729 302.543V343.675C406.763 344.71 406.512 345.73 406.032 346.64C405.782 347.122 405.388 347.516 404.943 347.8C404.494 348.069 403.978 348.212 403.459 348.212C402.726 348.194 401.994 347.98 401.37 347.604Z" fill="#979797" class="svg-elem-56"></path>
  <path fill-rule="evenodd" clip-rule="evenodd" d="M376.989 327.298L374.131 331.047L370.47 331.816L356.377 341.55V324.69L355.198 320.172L356.377 316.581H376.149L376.989 327.298Z" fill="white" class="svg-elem-57"></path>
  <path fill-rule="evenodd" clip-rule="evenodd" d="M368.361 331.441L357.842 338.692V324.834C357.842 322.797 356.716 320.92 354.93 319.958V341.514C354.894 342.069 355.217 342.585 355.717 342.854C355.931 342.961 356.163 343.015 356.414 343.015C356.716 343.015 357.003 342.924 357.235 342.747L374.165 331.029C371.326 329.334 369.951 330.351 368.361 331.441Z" fill="#BABABA" class="svg-elem-58"></path>
  <path fill-rule="evenodd" clip-rule="evenodd" d="M364.382 291.469C366.739 293.078 368.186 295.701 368.293 298.559C368.293 301.239 366.541 302.381 364.382 301.132C362.022 299.524 360.577 296.882 360.47 294.024C360.452 291.362 362.22 290.22 364.382 291.469Z" fill="#979797" class="svg-elem-59"></path>
  <path fill-rule="evenodd" clip-rule="evenodd" d="M375.31 297.881C377.667 299.489 379.114 302.131 379.221 304.973C379.221 307.651 377.469 308.811 375.31 307.544C372.934 305.953 371.433 303.346 371.289 300.488C371.289 297.81 373.041 296.666 375.2 297.935L375.31 297.881Z" fill="#979797" class="svg-elem-60"></path>
  <path fill-rule="evenodd" clip-rule="evenodd" d="M386.192 304.632C388.531 306.24 389.96 308.884 390.049 311.724C390.049 314.402 388.299 315.546 386.137 314.295C383.798 312.67 382.37 310.026 382.279 307.168C382.279 304.49 384.031 303.364 386.192 304.632Z" fill="#979797" class="svg-elem-61"></path>
  <path fill-rule="evenodd" clip-rule="evenodd" d="M398.319 106.645C401.372 108.413 403.872 113.164 403.872 117.236V134.507C403.872 138.579 401.372 140.455 398.319 138.704C395.263 136.936 392.762 132.185 392.762 128.113V110.842C392.762 106.77 395.263 104.877 398.319 106.645Z" fill="white" class="svg-elem-62"></path>
  <path fill-rule="evenodd" clip-rule="evenodd" d="M406.516 137.597C406.516 136.151 407.411 135.49 408.535 136.133C409.643 136.776 410.553 138.49 410.553 139.937C410.553 144.331 409.178 147.545 406.962 149.153C404.749 150.76 401.695 150.796 398.337 148.849V148.867C394.96 146.92 391.925 143.366 389.709 139.187C387.495 135.007 386.121 130.221 386.121 125.809C386.121 124.363 387.013 123.702 388.139 124.345C389.245 124.988 390.157 126.702 390.157 128.149C390.157 131.096 391.086 134.311 392.567 137.115C394.05 139.919 396.105 142.312 398.355 143.616V143.634C400.605 144.938 402.642 144.902 404.141 143.813C405.588 142.705 406.516 140.544 406.516 137.597Z" fill="white" class="svg-elem-63"></path>
  <path fill-rule="evenodd" clip-rule="evenodd" d="M396.278 144.991C396.278 143.544 397.172 142.883 398.296 143.526C399.404 144.169 400.314 145.884 400.314 147.331V157.064C400.314 158.511 399.422 159.172 398.296 158.529C397.19 157.886 396.278 156.171 396.278 154.725V144.991Z" fill="white" class="svg-elem-64"></path>
  <path fill-rule="evenodd" clip-rule="evenodd" d="M341.708 171.549L331.456 146.991L348.513 156.921L358.766 181.444L341.708 171.549Z" fill="#151515" class="svg-elem-65"></path>
  <path fill-rule="evenodd" clip-rule="evenodd" d="M375.072 190.928L364.82 166.424L381.896 176.354L392.13 200.823L375.072 190.928Z" fill="#151515" class="svg-elem-66"></path>
  <path fill-rule="evenodd" clip-rule="evenodd" d="M308.684 152.35L298.416 127.774L315.49 137.705L325.76 162.263L308.684 152.35Z" fill="#151515" class="svg-elem-67"></path>
  <path fill-rule="evenodd" clip-rule="evenodd" d="M281.447 118.201L291.556 142.419L275.25 132.953L275.304 124.88C275.32 119.933 277.946 117.272 281.447 118.201Z" fill="#151515" class="svg-elem-68"></path>
</svg>
