  <svg width="360" height="180" viewBox="0 0 360 180" fill="none" xmlns="http://www.w3.org/2000/svg">
  <defs>
    <style>
      @keyframes animate-svg-stroke-1{0%{stroke-dashoffset:426.7256774902344px;stroke-dasharray:426.7256774902344px}100%{stroke-dashoffset:0;stroke-dasharray:426.7256774902344px}}@keyframes animate-svg-fill-1{0%{fill:transparent}100%{fill:rgb(186,186,186)}}.svg-elem-1{animation:animate-svg-stroke-1 1s cubic-bezier(0.86,0,0.07,1) 0s both,animate-svg-fill-1 0.6s cubic-bezier(0.47,0,0.745,0.715) 0s both}@keyframes animate-svg-stroke-2{0%{stroke-dashoffset:201.86077880859375px;stroke-dasharray:201.86077880859375px}100%{stroke-dashoffset:0;stroke-dasharray:201.86077880859375px}}@keyframes animate-svg-fill-2{0%{fill:transparent}100%{fill:rgb(255,255,255)}}.svg-elem-2{animation:animate-svg-stroke-2 1s cubic-bezier(0.86,0,0.07,1) 0.12s both,animate-svg-fill-2 0.6s cubic-bezier(0.47,0,0.745,0.715) 0.02s both}@keyframes animate-svg-stroke-3{0%{stroke-dashoffset:376.6710205078125px;stroke-dasharray:376.6710205078125px}100%{stroke-dashoffset:0;stroke-dasharray:376.6710205078125px}}@keyframes animate-svg-fill-3{0%{fill:transparent}100%{fill:rgb(186,186,186)}}.svg-elem-3{animation:animate-svg-stroke-3 1s cubic-bezier(0.86,0,0.07,1) 0.24s both,animate-svg-fill-3 0.6s cubic-bezier(0.47,0,0.745,0.715) 0.04s both}@keyframes animate-svg-stroke-4{0%{stroke-dashoffset:597.1193237304688px;stroke-dasharray:597.1193237304688px}100%{stroke-dashoffset:0;stroke-dasharray:597.1193237304688px}}@keyframes animate-svg-fill-4{0%{fill:transparent}100%{fill:rgb(186,186,186)}}.svg-elem-4{animation:animate-svg-stroke-4 1s cubic-bezier(0.86,0,0.07,1) 0.36s both,animate-svg-fill-4 0.6s cubic-bezier(0.47,0,0.745,0.715) 0.06s both}@keyframes animate-svg-stroke-5{0%{stroke-dashoffset:253.16798400878906px;stroke-dasharray:253.16798400878906px}100%{stroke-dashoffset:0;stroke-dasharray:253.16798400878906px}}@keyframes animate-svg-fill-5{0%{fill:transparent}100%{fill:rgb(248,248,248)}}.svg-elem-5{animation:animate-svg-stroke-5 1s cubic-bezier(0.86,0,0.07,1) 0.48s both,animate-svg-fill-5 0.6s cubic-bezier(0.47,0,0.745,0.715) 0.08s both}@keyframes animate-svg-stroke-6{0%{stroke-dashoffset:511.68988037109375px;stroke-dasharray:511.68988037109375px}100%{stroke-dashoffset:0;stroke-dasharray:511.68988037109375px}}@keyframes animate-svg-fill-6{0%{fill:transparent}100%{fill:rgb(186,186,186)}}.svg-elem-6{animation:animate-svg-stroke-6 1s cubic-bezier(0.86,0,0.07,1) 0.6s both,animate-svg-fill-6 0.6s cubic-bezier(0.47,0,0.745,0.715) 0.1s both}@keyframes animate-svg-stroke-7{0%{stroke-dashoffset:182.64268493652344px;stroke-dasharray:182.64268493652344px}100%{stroke-dashoffset:0;stroke-dasharray:182.64268493652344px}}@keyframes animate-svg-fill-7{0%{fill:transparent}100%{fill:rgb(255,255,255)}}.svg-elem-7{animation:animate-svg-stroke-7 1s cubic-bezier(0.86,0,0.07,1) 0.72s both,animate-svg-fill-7 0.6s cubic-bezier(0.47,0,0.745,0.715) 0.12s both}@keyframes animate-svg-stroke-8{0%{stroke-dashoffset:368.66094970703125px;stroke-dasharray:368.66094970703125px}100%{stroke-dashoffset:0;stroke-dasharray:368.66094970703125px}}@keyframes animate-svg-fill-8{0%{fill:transparent}100%{fill:rgb(186,186,186)}}.svg-elem-8{animation:animate-svg-stroke-8 1s cubic-bezier(0.86,0,0.07,1) 0.84s both,animate-svg-fill-8 0.6s cubic-bezier(0.47,0,0.745,0.715) 0.14s both}@keyframes animate-svg-stroke-9{0%{stroke-dashoffset:222.85484313964844px;stroke-dasharray:222.85484313964844px}100%{stroke-dashoffset:0;stroke-dasharray:222.85484313964844px}}@keyframes animate-svg-fill-9{0%{fill:transparent}100%{fill:rgb(210,210,210)}}.svg-elem-9{animation:animate-svg-stroke-9 1s cubic-bezier(0.86,0,0.07,1) 0.96s both,animate-svg-fill-9 0.6s cubic-bezier(0.47,0,0.745,0.715) 0.16s both}@keyframes animate-svg-stroke-10{0%{stroke-dashoffset:31.585716247558594px;stroke-dasharray:31.585716247558594px}100%{stroke-dashoffset:0;stroke-dasharray:31.585716247558594px}}@keyframes animate-svg-fill-10{0%{fill:transparent}100%{fill:rgb(230,230,230)}}.svg-elem-10{animation:animate-svg-stroke-10 1s cubic-bezier(0.86,0,0.07,1) 1.08s both,animate-svg-fill-10 0.6s cubic-bezier(0.47,0,0.745,0.715) 0.18s both}@keyframes animate-svg-stroke-11{0%{stroke-dashoffset:288.1780700683594px;stroke-dasharray:288.1780700683594px}100%{stroke-dashoffset:0;stroke-dasharray:288.1780700683594px}}@keyframes animate-svg-fill-11{0%{fill:transparent}100%{fill:rgb(255,255,255)}}.svg-elem-11{animation:animate-svg-stroke-11 1s cubic-bezier(0.86,0,0.07,1) 1.2s both,animate-svg-fill-11 0.6s cubic-bezier(0.47,0,0.745,0.715) 0.2s both}@keyframes animate-svg-stroke-12{0%{stroke-dashoffset:442.58056640625px;stroke-dasharray:442.58056640625px}100%{stroke-dashoffset:0;stroke-dasharray:442.58056640625px}}@keyframes animate-svg-fill-12{0%{fill:transparent}100%{fill:rgb(186,186,186)}}.svg-elem-12{animation:animate-svg-stroke-12 1s cubic-bezier(0.86,0,0.07,1) 1.3199999999999998s both,animate-svg-fill-12 0.6s cubic-bezier(0.47,0,0.745,0.715) 0.22s both}@keyframes animate-svg-stroke-13{0%{stroke-dashoffset:106.46317291259766px;stroke-dasharray:106.46317291259766px}100%{stroke-dashoffset:0;stroke-dasharray:106.46317291259766px}}@keyframes animate-svg-fill-13{0%{fill:transparent}100%{fill:rgb(255,255,255)}}.svg-elem-13{animation:animate-svg-stroke-13 1s cubic-bezier(0.86,0,0.07,1) 1.44s both,animate-svg-fill-13 0.6s cubic-bezier(0.47,0,0.745,0.715) 0.24s both}@keyframes animate-svg-stroke-14{0%{stroke-dashoffset:210.09458923339844px;stroke-dasharray:210.09458923339844px}100%{stroke-dashoffset:0;stroke-dasharray:210.09458923339844px}}@keyframes animate-svg-fill-14{0%{fill:transparent}100%{fill:rgb(186,186,186)}}.svg-elem-14{animation:animate-svg-stroke-14 1s cubic-bezier(0.86,0,0.07,1) 1.56s both,animate-svg-fill-14 0.6s cubic-bezier(0.47,0,0.745,0.715) 0.26s both}@keyframes animate-svg-stroke-15{0%{stroke-dashoffset:193.7954864501953px;stroke-dasharray:193.7954864501953px}100%{stroke-dashoffset:0;stroke-dasharray:193.7954864501953px}}@keyframes animate-svg-fill-15{0%{fill:transparent}100%{fill:rgb(255,255,255)}}.svg-elem-15{animation:animate-svg-stroke-15 1s cubic-bezier(0.86,0,0.07,1) 1.68s both,animate-svg-fill-15 0.6s cubic-bezier(0.47,0,0.745,0.715) 0.28s both}@keyframes animate-svg-stroke-16{0%{stroke-dashoffset:178.1130828857422px;stroke-dasharray:178.1130828857422px}100%{stroke-dashoffset:0;stroke-dasharray:178.1130828857422px}}@keyframes animate-svg-fill-16{0%{fill:transparent}100%{fill:rgb(240,240,240)}}.svg-elem-16{animation:animate-svg-stroke-16 1s cubic-bezier(0.86,0,0.07,1) 1.7999999999999998s both,animate-svg-fill-16 0.6s cubic-bezier(0.47,0,0.745,0.715) 0.3s both}@keyframes animate-svg-stroke-17{0%{stroke-dashoffset:128.70751190185547px;stroke-dasharray:128.70751190185547px}100%{stroke-dashoffset:0;stroke-dasharray:128.70751190185547px}}@keyframes animate-svg-fill-17{0%{fill:transparent}100%{fill:rgb(220,220,220)}}.svg-elem-17{animation:animate-svg-stroke-17 1s cubic-bezier(0.86,0,0.07,1) 1.92s both,animate-svg-fill-17 0.6s cubic-bezier(0.47,0,0.745,0.715) 0.32s both}@keyframes animate-svg-stroke-18{0%{stroke-dashoffset:178.11306762695312px;stroke-dasharray:178.11306762695312px}100%{stroke-dashoffset:0;stroke-dasharray:178.11306762695312px}}@keyframes animate-svg-fill-18{0%{fill:transparent}100%{fill:rgb(225,225,225)}}.svg-elem-18{animation:animate-svg-stroke-18 1s cubic-bezier(0.86,0,0.07,1) 2.04s both,animate-svg-fill-18 0.6s cubic-bezier(0.47,0,0.745,0.715) 0.34s both}@keyframes animate-svg-stroke-19{0%{stroke-dashoffset:256.2286682128906px;stroke-dasharray:256.2286682128906px}100%{stroke-dashoffset:0;stroke-dasharray:256.2286682128906px}}@keyframes animate-svg-fill-19{0%{fill:transparent}100%{fill:rgb(186,186,186)}}.svg-elem-19{animation:animate-svg-stroke-19 1s cubic-bezier(0.86,0,0.07,1) 2.16s both,animate-svg-fill-19 0.6s cubic-bezier(0.47,0,0.745,0.715) 0.36s both}@keyframes animate-svg-stroke-20{0%{stroke-dashoffset:385.2833557128906px;stroke-dasharray:385.2833557128906px}100%{stroke-dashoffset:0;stroke-dasharray:385.2833557128906px}}@keyframes animate-svg-fill-20{0%{fill:transparent}100%{fill:rgb(186,186,186)}}.svg-elem-20{animation:animate-svg-stroke-20 1s cubic-bezier(0.86,0,0.07,1) 2.28s both,animate-svg-fill-20 0.6s cubic-bezier(0.47,0,0.745,0.715) 0.38s both}@keyframes animate-svg-stroke-21{0%{stroke-dashoffset:36.9953727722168px;stroke-dasharray:36.9953727722168px}100%{stroke-dashoffset:0;stroke-dasharray:36.9953727722168px}}@keyframes animate-svg-fill-21{0%{fill:transparent}100%{fill:rgb(240,240,240)}}.svg-elem-21{animation:animate-svg-stroke-21 1s cubic-bezier(0.86,0,0.07,1) 2.4s both,animate-svg-fill-21 0.6s cubic-bezier(0.47,0,0.745,0.715) 0.4s both}@keyframes animate-svg-stroke-22{0%{stroke-dashoffset:71.06702423095703px;stroke-dasharray:71.06702423095703px}100%{stroke-dashoffset:0;stroke-dasharray:71.06702423095703px}}@keyframes animate-svg-fill-22{0%{fill:transparent}100%{fill:rgb(186,186,186)}}.svg-elem-22{animation:animate-svg-stroke-22 1s cubic-bezier(0.86,0,0.07,1) 2.52s both,animate-svg-fill-22 0.6s cubic-bezier(0.47,0,0.745,0.715) 0.42s both}@keyframes animate-svg-stroke-23{0%{stroke-dashoffset:33.19418716430664px;stroke-dasharray:33.19418716430664px}100%{stroke-dashoffset:0;stroke-dasharray:33.19418716430664px}}@keyframes animate-svg-fill-23{0%{fill:transparent}100%{fill:rgb(248,248,248)}}.svg-elem-23{animation:animate-svg-stroke-23 1s cubic-bezier(0.86,0,0.07,1) 2.6399999999999997s both,animate-svg-fill-23 0.6s cubic-bezier(0.47,0,0.745,0.715) 0.44s both}@keyframes animate-svg-stroke-24{0%{stroke-dashoffset:68.05582427978516px;stroke-dasharray:68.05582427978516px}100%{stroke-dashoffset:0;stroke-dasharray:68.05582427978516px}}@keyframes animate-svg-fill-24{0%{fill:transparent}100%{fill:rgb(186,186,186)}}.svg-elem-24{animation:animate-svg-stroke-24 1s cubic-bezier(0.86,0,0.07,1) 2.76s both,animate-svg-fill-24 0.6s cubic-bezier(0.47,0,0.745,0.715) 0.46s both}@keyframes animate-svg-stroke-25{0%{stroke-dashoffset:234.36904907226562px;stroke-dasharray:234.36904907226562px}100%{stroke-dashoffset:0;stroke-dasharray:234.36904907226562px}}@keyframes animate-svg-fill-25{0%{fill:transparent}100%{fill:rgb(186,186,186)}}.svg-elem-25{animation:animate-svg-stroke-25 1s cubic-bezier(0.86,0,0.07,1) 2.88s both,animate-svg-fill-25 0.6s cubic-bezier(0.47,0,0.745,0.715) 0.48s both}@keyframes animate-svg-stroke-26{0%{stroke-dashoffset:383.4694519042969px;stroke-dasharray:383.4694519042969px}100%{stroke-dashoffset:0;stroke-dasharray:383.4694519042969px}}@keyframes animate-svg-fill-26{0%{fill:transparent}100%{fill:rgb(186,186,186)}}.svg-elem-26{animation:animate-svg-stroke-26 1s cubic-bezier(0.86,0,0.07,1) 3s both,animate-svg-fill-26 0.6s cubic-bezier(0.47,0,0.745,0.715) 0.5s both}@keyframes animate-svg-stroke-27{0%{stroke-dashoffset:207.19102478027344px;stroke-dasharray:207.19102478027344px}100%{stroke-dashoffset:0;stroke-dasharray:207.19102478027344px}}@keyframes animate-svg-fill-27{0%{fill:transparent}100%{fill:rgb(155,155,155)}}.svg-elem-27{animation:animate-svg-stroke-27 1s cubic-bezier(0.86,0,0.07,1) 3.12s both,animate-svg-fill-27 0.6s cubic-bezier(0.47,0,0.745,0.715) 0.52s both}@keyframes animate-svg-stroke-28{0%{stroke-dashoffset:368.6985778808594px;stroke-dasharray:368.6985778808594px}100%{stroke-dashoffset:0;stroke-dasharray:368.6985778808594px}}.svg-elem-28{animation:animate-svg-stroke-28 1s cubic-bezier(0.86,0,0.07,1) 3.2399999999999998s both,animate-svg-fill-28 0.6s cubic-bezier(0.47,0,0.745,0.715) 0.54s both}@keyframes animate-svg-stroke-29{0%{stroke-dashoffset:220.87741088867188px;stroke-dasharray:220.87741088867188px}100%{stroke-dashoffset:0;stroke-dasharray:220.87741088867188px}}@keyframes animate-svg-fill-29{0%{fill:transparent}100%{fill:rgb(255,255,255)}}.svg-elem-29{animation:animate-svg-stroke-29 1s cubic-bezier(0.86,0,0.07,1) 3.36s both,animate-svg-fill-29 0.6s cubic-bezier(0.47,0,0.745,0.715) 0.56s both}@keyframes animate-svg-stroke-30{0%{stroke-dashoffset:326.3990173339844px;stroke-dasharray:326.3990173339844px}100%{stroke-dashoffset:0;stroke-dasharray:326.3990173339844px}}.svg-elem-30{animation:animate-svg-stroke-30 1s cubic-bezier(0.86,0,0.07,1) 3.48s both,animate-svg-fill-30 0.6s cubic-bezier(0.47,0,0.745,0.715) 0.58s both}@keyframes animate-svg-stroke-31{0%{stroke-dashoffset:201.01417541503906px;stroke-dasharray:201.01417541503906px}100%{stroke-dashoffset:0;stroke-dasharray:201.01417541503906px}}@keyframes animate-svg-fill-31{0%{fill:transparent}100%{fill:rgb(186,186,186)}}.svg-elem-31{animation:animate-svg-stroke-31 1s cubic-bezier(0.86,0,0.07,1) 3.5999999999999996s both,animate-svg-fill-31 0.6s cubic-bezier(0.47,0,0.745,0.715) 0.6s both}@keyframes animate-svg-stroke-32{0%{stroke-dashoffset:103.82486724853516px;stroke-dasharray:103.82486724853516px}100%{stroke-dashoffset:0;stroke-dasharray:103.82486724853516px}}@keyframes animate-svg-fill-32{0%{fill:transparent}100%{fill:rgb(186,186,186)}}.svg-elem-32{animation:animate-svg-stroke-32 1s cubic-bezier(0.86,0,0.07,1) 3.7199999999999998s both,animate-svg-fill-32 0.6s cubic-bezier(0.47,0,0.745,0.715) 0.62s both}@keyframes animate-svg-stroke-33{0%{stroke-dashoffset:97.17959594726562px;stroke-dasharray:97.17959594726562px}100%{stroke-dashoffset:0;stroke-dasharray:97.17959594726562px}}@keyframes animate-svg-fill-33{0%{fill:transparent}100%{fill:rgb(210,210,210)}}.svg-elem-33{animation:animate-svg-stroke-33 1s cubic-bezier(0.86,0,0.07,1) 3.84s both,animate-svg-fill-33 0.6s cubic-bezier(0.47,0,0.745,0.715) 0.64s both}@keyframes animate-svg-stroke-34{0%{stroke-dashoffset:66.7158203125px;stroke-dasharray:66.7158203125px}100%{stroke-dashoffset:0;stroke-dasharray:66.7158203125px}}.svg-elem-34{animation:animate-svg-stroke-34 1s cubic-bezier(0.86,0,0.07,1) 3.96s both,animate-svg-fill-34 0.6s cubic-bezier(0.47,0,0.745,0.715) 0.66s both}@keyframes animate-svg-stroke-35{0%{stroke-dashoffset:159.14627075195312px;stroke-dasharray:159.14627075195312px}100%{stroke-dashoffset:0;stroke-dasharray:159.14627075195312px}}@keyframes animate-svg-fill-35{0%{fill:transparent}100%{fill:rgb(217,217,217)}}.svg-elem-35{animation:animate-svg-stroke-35 1s cubic-bezier(0.86,0,0.07,1) 4.08s both,animate-svg-fill-35 0.6s cubic-bezier(0.47,0,0.745,0.715) 0.68s both}@keyframes animate-svg-stroke-36{0%{stroke-dashoffset:162.417724609375px;stroke-dasharray:162.417724609375px}100%{stroke-dashoffset:0;stroke-dasharray:162.417724609375px}}@keyframes animate-svg-fill-36{0%{fill:transparent}100%{fill:rgb(186,186,186)}}.svg-elem-36{animation:animate-svg-stroke-36 1s cubic-bezier(0.86,0,0.07,1) 4.2s both,animate-svg-fill-36 0.6s cubic-bezier(0.47,0,0.745,0.715) 0.7000000000000001s both}@keyframes animate-svg-stroke-37{0%{stroke-dashoffset:157.74160766601562px;stroke-dasharray:157.74160766601562px}100%{stroke-dashoffset:0;stroke-dasharray:157.74160766601562px}}@keyframes animate-svg-fill-37{0%{fill:transparent}100%{fill:rgb(210,210,210)}}.svg-elem-37{animation:animate-svg-stroke-37 1s cubic-bezier(0.86,0,0.07,1) 4.32s both,animate-svg-fill-37 0.6s cubic-bezier(0.47,0,0.745,0.715) 0.72s both}@keyframes animate-svg-stroke-38{0%{stroke-dashoffset:27.706832885742188px;stroke-dasharray:27.706832885742188px}100%{stroke-dashoffset:0;stroke-dasharray:27.706832885742188px}}@keyframes animate-svg-fill-38{0%{fill:transparent}100%{fill:rgb(91,91,91)}}.svg-elem-38{animation:animate-svg-stroke-38 1s cubic-bezier(0.86,0,0.07,1) 4.4399999999999995s both,animate-svg-fill-38 0.6s cubic-bezier(0.47,0,0.745,0.715) 0.74s both}@keyframes animate-svg-stroke-39{0%{stroke-dashoffset:26.587215423583984px;stroke-dasharray:26.587215423583984px}100%{stroke-dashoffset:0;stroke-dasharray:26.587215423583984px}}@keyframes animate-svg-fill-39{0%{fill:transparent}100%{fill:rgb(146,146,146)}}.svg-elem-39{animation:animate-svg-stroke-39 1s cubic-bezier(0.86,0,0.07,1) 4.56s both,animate-svg-fill-39 0.6s cubic-bezier(0.47,0,0.745,0.715) 0.76s both}@keyframes animate-svg-stroke-40{0%{stroke-dashoffset:88.37832641601562px;stroke-dasharray:88.37832641601562px}100%{stroke-dashoffset:0;stroke-dasharray:88.37832641601562px}}.svg-elem-40{animation:animate-svg-stroke-40 1s cubic-bezier(0.86,0,0.07,1) 4.68s both,animate-svg-fill-40 0.6s cubic-bezier(0.47,0,0.745,0.715) 0.78s both}@keyframes animate-svg-stroke-41{0%{stroke-dashoffset:92.25895690917969px;stroke-dasharray:92.25895690917969px}100%{stroke-dashoffset:0;stroke-dasharray:92.25895690917969px}}@keyframes animate-svg-fill-41{0%{fill:transparent}100%{fill:rgb(210,210,210)}}.svg-elem-41{animation:animate-svg-stroke-41 1s cubic-bezier(0.86,0,0.07,1) 4.8s both,animate-svg-fill-41 0.6s cubic-bezier(0.47,0,0.745,0.715) 0.8s both}@keyframes animate-svg-stroke-42{0%{stroke-dashoffset:85.45498657226562px;stroke-dasharray:85.45498657226562px}100%{stroke-dashoffset:0;stroke-dasharray:85.45498657226562px}}@keyframes animate-svg-fill-42{0%{fill:transparent}100%{fill:rgb(255,255,255)}}.svg-elem-42{animation:animate-svg-stroke-42 1s cubic-bezier(0.86,0,0.07,1) 4.92s both,animate-svg-fill-42 0.6s cubic-bezier(0.47,0,0.745,0.715) 0.8200000000000001s both}@keyframes animate-svg-stroke-43{0%{stroke-dashoffset:33.366493225097656px;stroke-dasharray:33.366493225097656px}100%{stroke-dashoffset:0;stroke-dasharray:33.366493225097656px}}@keyframes animate-svg-fill-43{0%{fill:transparent}100%{fill:rgb(210,210,210)}}.svg-elem-43{animation:animate-svg-stroke-43 1s cubic-bezier(0.86,0,0.07,1) 5.04s both,animate-svg-fill-43 0.6s cubic-bezier(0.47,0,0.745,0.715) 0.84s both}@keyframes animate-svg-stroke-44{0%{stroke-dashoffset:17.67595100402832px;stroke-dasharray:17.67595100402832px}100%{stroke-dashoffset:0;stroke-dasharray:17.67595100402832px}}@keyframes animate-svg-fill-44{0%{fill:transparent}100%{fill:rgb(84,84,84)}}.svg-elem-44{animation:animate-svg-stroke-44 1s cubic-bezier(0.86,0,0.07,1) 5.16s both,animate-svg-fill-44 0.6s cubic-bezier(0.47,0,0.745,0.715) 0.86s both}@keyframes animate-svg-stroke-45{0%{stroke-dashoffset:16.117605209350586px;stroke-dasharray:16.117605209350586px}100%{stroke-dashoffset:0;stroke-dasharray:16.117605209350586px}}@keyframes animate-svg-fill-45{0%{fill:transparent}100%{fill:rgb(128,128,128)}}.svg-elem-45{animation:animate-svg-stroke-45 1s cubic-bezier(0.86,0,0.07,1) 5.279999999999999s both,animate-svg-fill-45 0.6s cubic-bezier(0.47,0,0.745,0.715) 0.88s both}@keyframes animate-svg-stroke-46{0%{stroke-dashoffset:67.07952880859375px;stroke-dasharray:67.07952880859375px}100%{stroke-dashoffset:0;stroke-dasharray:67.07952880859375px}}@keyframes animate-svg-fill-46{0%{fill:transparent}100%{fill:rgb(186,186,186)}}.svg-elem-46{animation:animate-svg-stroke-46 1s cubic-bezier(0.86,0,0.07,1) 5.3999999999999995s both,animate-svg-fill-46 0.6s cubic-bezier(0.47,0,0.745,0.715) 0.9s both}@keyframes animate-svg-stroke-47{0%{stroke-dashoffset:52.787933349609375px;stroke-dasharray:52.787933349609375px}100%{stroke-dashoffset:0;stroke-dasharray:52.787933349609375px}}@keyframes animate-svg-fill-47{0%{fill:transparent}100%{fill:rgb(210,210,210)}}.svg-elem-47{animation:animate-svg-stroke-47 1s cubic-bezier(0.86,0,0.07,1) 5.52s both,animate-svg-fill-47 0.6s cubic-bezier(0.47,0,0.745,0.715) 0.92s both}@keyframes animate-svg-stroke-48{0%{stroke-dashoffset:94.04277038574219px;stroke-dasharray:94.04277038574219px}100%{stroke-dashoffset:0;stroke-dasharray:94.04277038574219px}}@keyframes animate-svg-fill-48{0%{fill:transparent}100%{fill:rgb(68,6,177)}}.svg-elem-48{animation:animate-svg-stroke-48 1s cubic-bezier(0.86,0,0.07,1) 5.64s both,animate-svg-fill-48 0.6s cubic-bezier(0.47,0,0.745,0.715) 0.9400000000000001s both}@keyframes animate-svg-stroke-49{0%{stroke-dashoffset:90.36093139648438px;stroke-dasharray:90.36093139648438px}100%{stroke-dashoffset:0;stroke-dasharray:90.36093139648438px}}@keyframes animate-svg-fill-49{0%{fill:transparent}100%{fill:rgb(98,22,233)}}.svg-elem-49{animation:animate-svg-stroke-49 1s cubic-bezier(0.86,0,0.07,1) 5.76s both,animate-svg-fill-49 0.6s cubic-bezier(0.47,0,0.745,0.715) 0.96s both}@keyframes animate-svg-stroke-50{0%{stroke-dashoffset:42.008426666259766px;stroke-dasharray:42.008426666259766px}100%{stroke-dashoffset:0;stroke-dasharray:42.008426666259766px}}@keyframes animate-svg-fill-50{0%{fill:transparent}100%{fill:rgb(255,255,255)}}.svg-elem-50{animation:animate-svg-stroke-50 1s cubic-bezier(0.86,0,0.07,1) 5.88s both,animate-svg-fill-50 0.6s cubic-bezier(0.47,0,0.745,0.715) 0.98s both}@keyframes animate-svg-stroke-51{0%{stroke-dashoffset:127.2921142578125px;stroke-dasharray:127.2921142578125px}100%{stroke-dashoffset:0;stroke-dasharray:127.2921142578125px}}@keyframes animate-svg-fill-51{0%{fill:transparent}100%{fill:rgb(186,186,186)}}.svg-elem-51{animation:animate-svg-stroke-51 1s cubic-bezier(0.86,0,0.07,1) 6s both,animate-svg-fill-51 0.6s cubic-bezier(0.47,0,0.745,0.715) 1s both}@keyframes animate-svg-stroke-52{0%{stroke-dashoffset:128.0696563720703px;stroke-dasharray:128.0696563720703px}100%{stroke-dashoffset:0;stroke-dasharray:128.0696563720703px}}@keyframes animate-svg-fill-52{0%{fill:transparent}100%{fill:rgb(210,210,210)}}.svg-elem-52{animation:animate-svg-stroke-52 1s cubic-bezier(0.86,0,0.07,1) 6.12s both,animate-svg-fill-52 0.6s cubic-bezier(0.47,0,0.745,0.715) 1.02s both}@keyframes animate-svg-stroke-53{0%{stroke-dashoffset:64.8281478881836px;stroke-dasharray:64.8281478881836px}100%{stroke-dashoffset:0;stroke-dasharray:64.8281478881836px}}@keyframes animate-svg-fill-53{0%{fill:transparent}100%{fill:rgb(255,255,255)}}.svg-elem-53{animation:animate-svg-stroke-53 1s cubic-bezier(0.86,0,0.07,1) 6.24s both,animate-svg-fill-53 0.6s cubic-bezier(0.47,0,0.745,0.715) 1.04s both}@keyframes animate-svg-stroke-54{0%{stroke-dashoffset:110.47660064697266px;stroke-dasharray:110.47660064697266px}100%{stroke-dashoffset:0;stroke-dasharray:110.47660064697266px}}@keyframes animate-svg-fill-54{0%{fill:transparent}100%{fill:rgb(238,238,238)}}.svg-elem-54{animation:animate-svg-stroke-54 1s cubic-bezier(0.86,0,0.07,1) 6.359999999999999s both,animate-svg-fill-54 0.6s cubic-bezier(0.47,0,0.745,0.715) 1.06s both}@keyframes animate-svg-stroke-55{0%{stroke-dashoffset:220.2328643798828px;stroke-dasharray:220.2328643798828px}100%{stroke-dashoffset:0;stroke-dasharray:220.2328643798828px}}@keyframes animate-svg-fill-55{0%{fill:transparent}100%{fill:rgb(186,186,186)}}.svg-elem-55{animation:animate-svg-stroke-55 1s cubic-bezier(0.86,0,0.07,1) 6.4799999999999995s both,animate-svg-fill-55 0.6s cubic-bezier(0.47,0,0.745,0.715) 1.08s both}@keyframes animate-svg-stroke-56{0%{stroke-dashoffset:108.09615325927734px;stroke-dasharray:108.09615325927734px}100%{stroke-dashoffset:0;stroke-dasharray:108.09615325927734px}}@keyframes animate-svg-fill-56{0%{fill:transparent}100%{fill:rgb(238,238,238)}}.svg-elem-56{animation:animate-svg-stroke-56 1s cubic-bezier(0.86,0,0.07,1) 6.6s both,animate-svg-fill-56 0.6s cubic-bezier(0.47,0,0.745,0.715) 1.1s both}@keyframes animate-svg-stroke-57{0%{stroke-dashoffset:214.16677856445312px;stroke-dasharray:214.16677856445312px}100%{stroke-dashoffset:0;stroke-dasharray:214.16677856445312px}}@keyframes animate-svg-fill-57{0%{fill:transparent}100%{fill:rgb(151,151,151)}}.svg-elem-57{animation:animate-svg-stroke-57 1s cubic-bezier(0.86,0,0.07,1) 6.72s both,animate-svg-fill-57 0.6s cubic-bezier(0.47,0,0.745,0.715) 1.12s both}@keyframes animate-svg-stroke-58{0%{stroke-dashoffset:105.9411849975586px;stroke-dasharray:105.9411849975586px}100%{stroke-dashoffset:0;stroke-dasharray:105.9411849975586px}}@keyframes animate-svg-fill-58{0%{fill:transparent}100%{fill:rgb(255,255,255)}}.svg-elem-58{animation:animate-svg-stroke-58 1s cubic-bezier(0.86,0,0.07,1) 6.84s both,animate-svg-fill-58 0.6s cubic-bezier(0.47,0,0.745,0.715) 1.1400000000000001s both}@keyframes animate-svg-stroke-59{0%{stroke-dashoffset:209.96035766601562px;stroke-dasharray:209.96035766601562px}100%{stroke-dashoffset:0;stroke-dasharray:209.96035766601562px}}@keyframes animate-svg-fill-59{0%{fill:transparent}100%{fill:rgb(151,151,151)}}.svg-elem-59{animation:animate-svg-stroke-59 1s cubic-bezier(0.86,0,0.07,1) 6.96s both,animate-svg-fill-59 0.6s cubic-bezier(0.47,0,0.745,0.715) 1.16s both}@keyframes animate-svg-stroke-60{0%{stroke-dashoffset:37.7816276550293px;stroke-dasharray:37.7816276550293px}100%{stroke-dashoffset:0;stroke-dasharray:37.7816276550293px}}@keyframes animate-svg-fill-60{0%{fill:transparent}100%{fill:rgb(255,255,255)}}.svg-elem-60{animation:animate-svg-stroke-60 1s cubic-bezier(0.86,0,0.07,1) 7.08s both,animate-svg-fill-60 0.6s cubic-bezier(0.47,0,0.745,0.715) 1.18s both}@keyframes animate-svg-stroke-61{0%{stroke-dashoffset:39.04951095581055px;stroke-dasharray:39.04951095581055px}100%{stroke-dashoffset:0;stroke-dasharray:39.04951095581055px}}@keyframes animate-svg-fill-61{0%{fill:transparent}100%{fill:rgb(186,186,186)}}.svg-elem-61{animation:animate-svg-stroke-61 1s cubic-bezier(0.86,0,0.07,1) 7.199999999999999s both,animate-svg-fill-61 0.6s cubic-bezier(0.47,0,0.745,0.715) 1.2s both}@keyframes animate-svg-stroke-62{0%{stroke-dashoffset:14.691798210144043px;stroke-dasharray:14.691798210144043px}100%{stroke-dashoffset:0;stroke-dasharray:14.691798210144043px}}@keyframes animate-svg-fill-62{0%{fill:transparent}100%{fill:rgb(151,151,151)}}.svg-elem-62{animation:animate-svg-stroke-62 1s cubic-bezier(0.86,0,0.07,1) 7.319999999999999s both,animate-svg-fill-62 0.6s cubic-bezier(0.47,0,0.745,0.715) 1.22s both}@keyframes animate-svg-stroke-63{0%{stroke-dashoffset:14.754802703857422px;stroke-dasharray:14.754802703857422px}100%{stroke-dashoffset:0;stroke-dasharray:14.754802703857422px}}@keyframes animate-svg-fill-63{0%{fill:transparent}100%{fill:rgb(151,151,151)}}.svg-elem-63{animation:animate-svg-stroke-63 1s cubic-bezier(0.86,0,0.07,1) 7.4399999999999995s both,animate-svg-fill-63 0.6s cubic-bezier(0.47,0,0.745,0.715) 1.24s both}@keyframes animate-svg-stroke-64{0%{stroke-dashoffset:14.676460266113281px;stroke-dasharray:14.676460266113281px}100%{stroke-dashoffset:0;stroke-dasharray:14.676460266113281px}}@keyframes animate-svg-fill-64{0%{fill:transparent}100%{fill:rgb(151,151,151)}}.svg-elem-64{animation:animate-svg-stroke-64 1s cubic-bezier(0.86,0,0.07,1) 7.56s both,animate-svg-fill-64 0.6s cubic-bezier(0.47,0,0.745,0.715) 1.26s both}@keyframes animate-svg-stroke-65{0%{stroke-dashoffset:35.94243240356445px;stroke-dasharray:35.94243240356445px}100%{stroke-dashoffset:0;stroke-dasharray:35.94243240356445px}}@keyframes animate-svg-fill-65{0%{fill:transparent}100%{fill:rgb(255,255,255)}}.svg-elem-65{animation:animate-svg-stroke-65 1s cubic-bezier(0.86,0,0.07,1) 7.68s both,animate-svg-fill-65 0.6s cubic-bezier(0.47,0,0.745,0.715) 1.28s both}@keyframes animate-svg-stroke-66{0%{stroke-dashoffset:42.92780303955078px;stroke-dasharray:42.92780303955078px}100%{stroke-dashoffset:0;stroke-dasharray:42.92780303955078px}}@keyframes animate-svg-fill-66{0%{fill:transparent}100%{fill:rgb(255,255,255)}}.svg-elem-66{animation:animate-svg-stroke-66 1s cubic-bezier(0.86,0,0.07,1) 7.8s both,animate-svg-fill-66 0.6s cubic-bezier(0.47,0,0.745,0.715) 1.3s both}@keyframes animate-svg-stroke-67{0%{stroke-dashoffset:17.303812980651855px;stroke-dasharray:17.303812980651855px}100%{stroke-dashoffset:0;stroke-dasharray:17.303812980651855px}}@keyframes animate-svg-fill-67{0%{fill:transparent}100%{fill:rgb(255,255,255)}}.svg-elem-67{animation:animate-svg-stroke-67 1s cubic-bezier(0.86,0,0.07,1) 7.92s both,animate-svg-fill-67 0.6s cubic-bezier(0.47,0,0.745,0.715) 1.32s both}@keyframes animate-svg-stroke-68{0%{stroke-dashoffset:42.719886779785156px;stroke-dasharray:42.719886779785156px}100%{stroke-dashoffset:0;stroke-dasharray:42.719886779785156px}}@keyframes animate-svg-fill-68{0%{fill:transparent}100%{fill:rgb(95,26,218)}}.svg-elem-68{animation:animate-svg-stroke-68 1s cubic-bezier(0.86,0,0.07,1) 8.04s both,animate-svg-fill-68 0.6s cubic-bezier(0.47,0,0.745,0.715) 1.34s both}@keyframes animate-svg-stroke-69{0%{stroke-dashoffset:42.68030548095703px;stroke-dasharray:42.68030548095703px}100%{stroke-dashoffset:0;stroke-dasharray:42.68030548095703px}}@keyframes animate-svg-fill-69{0%{fill:transparent}100%{fill:rgb(95,26,218)}}.svg-elem-69{animation:animate-svg-stroke-69 1s cubic-bezier(0.86,0,0.07,1) 8.16s both,animate-svg-fill-69 0.6s cubic-bezier(0.47,0,0.745,0.715) 1.36s both}@keyframes animate-svg-stroke-70{0%{stroke-dashoffset:42.76445388793945px;stroke-dasharray:42.76445388793945px}100%{stroke-dashoffset:0;stroke-dasharray:42.76445388793945px}}@keyframes animate-svg-fill-70{0%{fill:transparent}100%{fill:rgb(95,26,218)}}.svg-elem-70{animation:animate-svg-stroke-70 1s cubic-bezier(0.86,0,0.07,1) 8.28s both,animate-svg-fill-70 0.6s cubic-bezier(0.47,0,0.745,0.715) 1.3800000000000001s both}@keyframes animate-svg-stroke-71{0%{stroke-dashoffset:30.08063316345215px;stroke-dasharray:30.08063316345215px}100%{stroke-dashoffset:0;stroke-dasharray:30.08063316345215px}}@keyframes animate-svg-fill-71{0%{fill:transparent}100%{fill:rgb(95,26,218)}}.svg-elem-71{animation:animate-svg-stroke-71 1s cubic-bezier(0.86,0,0.07,1) 8.4s both,animate-svg-fill-71 0.6s cubic-bezier(0.47,0,0.745,0.715) 1.4000000000000001s both}
    </style>
  </defs>
  <path fill-rule="evenodd" clip-rule="evenodd" d="M230.831 92.6111L225.922 95.3763C225.507 95.6536 224.968 95.6536 224.491 95.3763L178.02 68.168C177.543 67.962 177.199 67.4074 177.199 66.8528V24.5191C177.199 24.2418 177.262 24.0358 177.402 23.7585L177.465 23.6158C177.606 23.3385 177.809 23.1325 178.012 22.9899L182.985 20.1534C184.071 19.5275 185.103 19.1868 186.049 19.0441C187.136 18.9015 188.09 19.1155 188.911 19.5275C188.973 19.5275 188.973 19.5908 188.973 19.5908L189.036 19.6542L235.444 46.8704C235.506 46.8704 235.585 46.9338 235.647 47.0131C236.327 47.433 236.875 48.051 237.281 48.875C237.625 49.6356 237.828 50.531 237.828 51.4976L237.688 81.2651C237.688 83.333 236.867 85.6149 235.569 87.6195C234.514 89.7112 232.809 91.5098 230.831 92.6111ZM225.241 92.4685L229.401 90.0519C230.902 89.1566 232.332 87.7779 233.286 86.1141C234.31 84.5294 234.92 82.8022 234.92 81.3443L235.061 51.5847C235.061 51.0301 234.998 50.5468 234.787 50.2061C234.646 49.9288 234.443 49.7228 234.24 49.5168L234.177 49.4534L187.769 22.2372C187.707 22.2372 187.629 22.1738 187.566 22.1738C187.222 22.0312 186.886 21.9678 186.409 22.0312C185.791 22.0946 185.181 22.3085 184.431 22.7205L180.139 25.2005V66.0208L225.241 92.4685Z" fill="#BABABA" class="svg-elem-1"></path>
  <path fill-rule="evenodd" clip-rule="evenodd" d="M184.264 50.9709V46.8135L224.498 72.4494L234.638 48.4033L188.446 21.0345L188.384 20.9709C187.236 20.3429 185.614 20.486 183.791 21.5273L178.857 24.3731L178.795 24.5162V64.9772V56.1616C182.1 54.23 184.264 54.5003 184.264 50.9709Z" fill="white" class="svg-elem-2"></path>
  <path fill-rule="evenodd" clip-rule="evenodd" d="M189.76 50.3009V54.0312C189.76 55.7912 188.999 57.7615 187.825 59.5994C186.651 61.4295 185.057 62.9948 183.256 64.0072L178.276 66.7251L177.998 66.8653V23.6905L178.061 23.5503L178.125 23.488L183.169 20.7C184.065 20.1549 184.97 19.8823 185.794 19.82C186.556 19.7577 187.175 19.82 187.73 20.0926L188.007 20.2328L188.071 20.3029L235.293 47.1158L235.436 47.1781L235.373 47.3182L225.007 63.8826L224.943 64.0228L224.8 63.9605L189.76 50.3009ZM189.34 54.0312V49.6234L189.617 49.8259L224.872 63.4698L235.032 47.1859L188.015 20.5131L187.952 20.4508C187.397 20.1783 186.707 20.0459 185.945 20.1082C185.184 20.1705 184.359 20.4508 183.463 20.9882L178.482 23.7684L178.418 23.8307V66.2578L183.114 63.6801C184.843 62.73 186.429 61.1647 187.539 59.4047C188.65 57.6369 189.34 55.7289 189.34 54.0312Z" fill="#BABABA" class="svg-elem-3"></path>
  <path fill-rule="evenodd" clip-rule="evenodd" d="M126.941 125.584V91.7996C126.941 91.2516 127.216 90.774 127.693 90.4999L173.845 63.8796C174.322 63.6056 174.871 63.6056 175.411 63.8796L224.978 92.5434C225.526 92.8175 225.863 93.2951 225.863 93.9058V127.69C225.863 130.015 225.111 132.537 224.022 134.791C222.863 137.039 221.155 138.957 219.385 140.045L184.905 160.104C183.949 160.652 183.064 160.926 182.171 160.989C181.215 161.052 180.26 160.848 179.508 160.308L129.941 131.714C129.879 131.644 129.738 131.644 129.667 131.574C128.782 131.025 128.101 130.211 127.686 129.186C127.145 128.105 126.941 126.876 126.941 125.584ZM130.012 92.6844V125.576C130.012 126.461 130.153 127.283 130.419 127.823C130.623 128.301 130.897 128.645 131.242 128.849C131.304 128.849 131.304 128.911 131.383 128.911L180.886 157.434C180.949 157.497 181.027 157.497 181.09 157.575C181.364 157.716 181.638 157.779 181.913 157.716C182.32 157.716 182.798 157.513 183.275 157.239L217.756 137.242C219.056 136.49 220.348 134.995 221.241 133.218C222.197 131.448 222.745 129.389 222.745 127.549V94.6574L174.612 66.8235L130.012 92.6844Z" fill="#BABABA" class="svg-elem-4"></path>
  <path fill-rule="evenodd" clip-rule="evenodd" d="M128.537 91.5955V125.344C128.537 127.666 129.293 129.293 130.53 129.974L177.833 157.105C179.345 157.989 180.377 158.403 182.023 158.607L200.083 143.88C203.312 142.042 205.919 137.13 205.919 132.899V104.61L178.597 119.673L128.537 91.5955Z" fill="#F8F8F8" class="svg-elem-5"></path>
  <path fill-rule="evenodd" clip-rule="evenodd" d="M205.512 133.047C205.512 135.107 204.894 137.451 203.805 139.378C202.78 141.375 201.355 143.025 199.781 143.917L181.148 156.507L181.085 156.571V156.634L180.608 158.836L130.792 129.794C130.173 129.447 129.704 128.902 129.43 128.073C129.085 127.315 128.952 126.352 128.952 125.247V91.3899L178.494 120.014L178.557 120.077L178.619 120.014L205.434 104.739L205.512 133.047ZM128.537 125.334L128.6 125.61V125.816L128.537 125.334ZM205.645 104.352L178.627 119.698L128.882 90.9399L128.608 90.7979V125.342C128.608 126.51 128.811 127.481 129.156 128.302L129.015 127.544L129.156 128.097L129.43 128.579L129.156 128.231C129.43 128.918 129.907 129.542 130.385 129.881C130.447 129.944 130.588 130.023 130.659 130.086L130.385 129.81H130.447L130.651 130.086L131.129 130.363L180.741 159.263L180.945 159.405L181.007 159.136L181.485 156.729L200.047 144.138C201.684 143.175 203.116 141.454 204.212 139.464C205.301 137.404 205.919 135.131 205.919 132.928V104.028L205.645 104.352Z" fill="#BABABA" class="svg-elem-6"></path>
  <path fill-rule="evenodd" clip-rule="evenodd" d="M178.795 120.132V153.585C178.795 157.781 181.368 159.754 184.556 157.92L218.506 138.42C221.624 136.594 224.267 131.715 224.267 127.512V93.9888L178.935 120.124L178.795 120.132Z" fill="white" class="svg-elem-7"></path>
  <path fill-rule="evenodd" clip-rule="evenodd" d="M177.998 154.178V119.787L178.273 119.929L224.268 93.1909V127.646C224.268 129.788 223.585 132.12 222.556 134.192C221.464 136.255 220.019 137.979 218.378 138.872L184.013 158.717C183.189 159.199 182.372 159.404 181.618 159.404C180.998 159.404 180.456 159.262 179.906 158.922C179.427 158.645 179.019 158.163 178.673 157.61C178.336 156.732 177.998 155.554 177.998 154.178ZM178.406 120.34V154.178C178.406 155.554 178.681 156.653 179.16 157.483C179.435 158.037 179.843 158.448 180.252 158.724C180.66 159.001 181.21 159.136 181.76 159.136C182.443 159.136 183.126 158.93 183.951 158.511L218.315 138.667C219.886 137.773 221.331 136.113 222.352 134.113C223.38 132.113 224.064 129.844 224.064 127.772V94.0053L178.406 120.34Z" fill="#BABABA" class="svg-elem-8"></path>
  <path fill-rule="evenodd" clip-rule="evenodd" d="M174.344 65.2698L224.267 94.0223L178.39 120.315L128.537 91.6327L174.344 65.2698Z" fill="#D2D2D2" class="svg-elem-9"></path>
  <path fill-rule="evenodd" clip-rule="evenodd" d="M210.705 88.4045L218.683 93.6644L210.705 98.7753C211.086 97.6919 211.533 95.9635 211.533 93.7305C211.599 91.4232 211.093 89.5541 210.705 88.4045Z" fill="#E6E6E6" class="svg-elem-10"></path>
  <path fill-rule="evenodd" clip-rule="evenodd" d="M153.545 80.1778V77.2358L128.537 91.5928L178.427 120.314L224.267 93.915L213.096 87.4975L210.352 88.7214L218.371 93.7816L178.214 116.761L141.147 95.6331L134.708 91.3888L153.545 80.1778Z" fill="white" class="svg-elem-11"></path>
  <path fill-rule="evenodd" clip-rule="evenodd" d="M223.696 93.539L174.497 64.8713L129.109 91.2097L178.448 119.814L223.696 93.539ZM174.63 64.525L224.172 93.3974C224.235 93.4603 224.313 93.539 224.235 93.6728L224.172 93.7357L178.58 120.287C178.518 120.35 178.44 120.287 178.377 120.287L128.632 91.4773C128.57 91.4143 128.492 91.3356 128.57 91.2018L128.632 91.1389L174.357 64.525C174.49 64.4542 174.56 64.4542 174.63 64.525Z" fill="#BABABA" class="svg-elem-12"></path>
  <path fill-rule="evenodd" clip-rule="evenodd" d="M236.093 81.2072L236.233 51.4628C236.233 47.9388 233.453 46.6955 230.066 48.6278L225.127 51.4628L225.064 51.6054V93.9887L229.942 91.2249C233.251 89.1421 236.093 84.6599 236.093 81.2072Z" fill="white" class="svg-elem-13"></path>
  <path fill-rule="evenodd" clip-rule="evenodd" d="M237.031 51.5396L236.889 80.9533C236.889 82.7227 236.132 84.7034 234.965 86.5511C233.799 88.3204 232.214 89.9645 230.425 90.9823L225.34 93.8477L225.064 93.9887V51.7431L225.128 51.6022L225.191 51.5396L230.354 48.6741C231.521 48.0556 232.553 47.719 233.515 47.719C234.138 47.719 234.682 47.8599 235.162 48.1261C235.643 48.4001 236.053 48.8072 236.329 49.2848C236.889 49.8328 237.031 50.6549 237.031 51.5396ZM236.621 81.0238L236.763 51.6179C236.763 50.7958 236.621 50.0521 236.282 49.4962C236.006 49.0186 235.659 48.6741 235.249 48.4706C234.839 48.267 234.287 48.1261 233.736 48.1261C232.845 48.1261 231.812 48.4001 230.78 49.0108L225.624 51.8762L225.561 51.9388V93.3623L230.37 90.63C232.088 89.6749 233.602 88.1012 234.768 86.3319C235.856 84.6408 236.55 82.6679 236.621 81.0238Z" fill="#BABABA" class="svg-elem-14"></path>
  <path fill-rule="evenodd" clip-rule="evenodd" d="M178.795 66.862V24.5842L225.065 51.7741V93.9887L178.795 66.862Z" fill="white" class="svg-elem-15"></path>
  <path fill-rule="evenodd" clip-rule="evenodd" d="M222.672 92.0468V53.1422L180.391 28.573L180.595 39.8933V67.887L218.707 90.1969L222.609 92.3932L222.672 92.0468Z" fill="#F0F0F0" class="svg-elem-16"></path>
  <path fill-rule="evenodd" clip-rule="evenodd" d="M176.402 47.719V65.72L216.29 88.4044V75.6322C216.29 72.9126 214.567 69.6553 212.425 68.4318L176.402 47.719Z" fill="#DCDCDC" class="svg-elem-17"></path>
  <path fill-rule="evenodd" clip-rule="evenodd" d="M189.968 34.1308L180.391 28.573L180.595 39.8933V67.887L218.707 90.1969L222.609 92.3932L222.672 92.0468V59.1094L189.968 40.098V34.1308Z" fill="#E1E1E1" class="svg-elem-18"></path>
  <path fill-rule="evenodd" clip-rule="evenodd" d="M222.672 92.3932L222.33 92.1903V53.2706L180.733 29.0413V68.0313L180.391 67.8284V28.7759C180.391 28.7135 180.453 28.573 180.593 28.573C180.655 28.573 180.655 28.573 180.655 28.573L222.586 52.9973C222.648 52.9973 222.648 53.0598 222.648 53.1379L222.672 92.3932Z" fill="#BABABA" class="svg-elem-19"></path>
  <path fill-rule="evenodd" clip-rule="evenodd" d="M178.414 25.1265V66.7095L224.665 93.5643V51.9892L178.414 25.1265ZM177.998 66.8509V24.7886C177.998 24.7257 178.061 24.5842 178.202 24.5842C178.265 24.5842 178.265 24.5842 178.343 24.5842L225.003 51.6434C225.065 51.6434 225.065 51.7063 225.065 51.7849V93.7844C225.065 93.8473 225.003 93.9887 224.861 93.9887C224.799 93.9887 224.799 93.9887 224.799 93.9887L178.139 66.9295C178.069 66.9846 177.998 66.9217 177.998 66.8509Z" fill="#BABABA" class="svg-elem-20"></path>
  <path fill-rule="evenodd" clip-rule="evenodd" d="M155.66 119.935L149.085 116.326L146.885 117.797L148.37 120.938L150.7 127.689L152.535 129.888C155.222 128.355 155.506 128.018 155.579 125.88L155.66 119.935Z" fill="#F0F0F0" class="svg-elem-21"></path>
  <path fill-rule="evenodd" clip-rule="evenodd" d="M149.305 115.58L155.522 119.268C155.583 119.331 155.66 119.409 155.66 119.542V125.548C155.66 126.707 155.522 127.388 155.054 128.006C154.655 128.617 153.918 129.095 152.651 129.846C152.513 129.909 152.383 129.909 152.252 129.784L150.518 127.537L148.315 120.638C148.315 120.638 148.315 120.638 148.315 120.576L146.91 117.436C146.849 117.295 146.91 117.162 146.972 117.091L149.052 115.588C149.098 115.51 149.236 115.51 149.305 115.58ZM155.123 119.675L149.167 116.128L147.432 117.357L148.768 120.294L150.909 127.114L152.513 129.157C153.58 128.476 154.248 128.069 154.586 127.591C154.923 127.114 155.054 126.503 155.054 125.477L155.123 119.675Z" fill="#BABABA" class="svg-elem-22"></path>
  <path fill-rule="evenodd" clip-rule="evenodd" d="M153.267 121.252L146.885 117.921V124.38C146.885 129.536 153.267 131.879 153.267 127.837V121.252Z" fill="#F8F8F8" class="svg-elem-23"></path>
  <path fill-rule="evenodd" clip-rule="evenodd" d="M153.413 128.112C153.413 129.097 153.054 129.662 152.557 129.872C152.198 130.018 151.848 130.082 151.489 130.018C151.065 129.953 150.634 129.735 150.21 129.525C148.718 128.677 147.366 126.852 147.366 124.39V117.914L153.404 121.224L153.413 128.112ZM147.309 117.203C147.162 117.058 146.95 117.131 146.95 117.268C146.885 117.332 146.885 117.332 146.885 117.413V124.382C146.885 127.127 148.376 129.162 150.014 130.082C150.511 130.365 151.008 130.575 151.506 130.647C152.003 130.712 152.426 130.712 152.858 130.502C153.567 130.147 154.065 129.38 154.065 128.185V121.071C154.065 120.926 153.999 120.861 153.918 120.788L147.309 117.203Z" fill="#BABABA" class="svg-elem-24"></path>
  <path fill-rule="evenodd" clip-rule="evenodd" d="M178.1 116.695L134.681 91.6857L140.426 88.3453L151.956 81.704C151.956 81.5626 152.019 81.3582 152.098 81.2246L134.217 91.5442C134.154 91.6071 134.075 91.6857 134.154 91.8193L134.217 91.8821L178.053 117.096C178.116 117.158 178.194 117.096 178.257 117.096L217.087 95.0338V94.5544L178.1 116.695Z" fill="#BABABA" class="svg-elem-25"></path>
  <path fill-rule="evenodd" clip-rule="evenodd" d="M212.118 64.8282L163.42 36.5922C163.144 36.4506 163.009 36.3877 162.867 36.3877C162.804 36.3877 162.662 36.4585 162.448 36.5922L160.797 37.6225C160.244 37.9686 159.904 38.1731 159.762 38.3776C159.62 38.5821 159.556 38.9282 159.556 39.5416V99.0495L189.069 110.25L186.817 111.539L177.264 106.042L162.591 99.7338C159.146 97.7439 156.459 95.0776 156.459 89.6585V39.6046C156.459 38.236 156.664 37.4102 157.218 36.6551C157.7 35.9709 158.316 35.5619 159.146 35.0113L160.797 33.981C161.484 33.572 162.109 33.3596 162.859 33.3596C163.547 33.3596 164.234 33.5641 164.993 33.981L213.619 62.2248C214.86 62.9091 215.887 64.2147 216.717 65.654C217.475 67.1012 217.886 68.7371 217.886 70.2473V93.827L214.789 95.6124V70.1843C214.789 69.154 214.441 67.99 213.959 67.0304C213.422 66.0709 212.805 65.245 212.118 64.8282Z" fill="#BABABA" class="svg-elem-26"></path>
  <path fill-rule="evenodd" clip-rule="evenodd" d="M212.734 63.5209L164.56 35.3405C163.403 34.6577 162.582 34.9952 161.832 35.4817L159.65 36.7766L160.948 38.4873L169.603 91.7013C170.009 94.2361 171.44 96.9042 173.081 98.3325L195.167 106.753L216.291 94.5813V70.1599C216.213 67.6251 214.641 64.6117 212.734 63.5209Z" fill="#9B9B9B" class="svg-elem-27"></path>
  <path d="M212.582 63.7024L164 35.7413C163.449 35.3987 162.969 35.3287 162.63 35.3987C162.213 35.461 161.875 35.6635 161.465 35.8737L159.411 37.0962L160.576 38.6535L160.639 38.7157L169.354 91.5155C169.558 92.738 169.975 93.9527 170.59 95.1128C171.211 96.2652 171.959 97.2852 172.786 98.0327L197.766 104.955L197.419 105.157L172.51 98.2975C171.684 97.55 170.865 96.4677 170.251 95.3075C169.629 94.1551 169.157 92.8703 168.944 91.5778L160.229 38.7858L158.993 37.0884L158.852 36.9482L159.056 36.8081L161.253 35.5155C161.662 35.243 162.079 35.0406 162.56 34.9705C163.04 34.9082 163.591 35.0328 164.205 35.3832L212.716 63.3442C213.676 63.8893 214.566 64.9716 215.258 66.194C215.88 67.4165 216.29 68.8414 216.29 70.1262V94.5133L215.88 94.7157V70.1573C215.88 68.9349 215.471 67.58 214.849 66.4276C214.298 65.2675 213.471 64.2474 212.582 63.7024Z" stroke="#D2D2D2" stroke-miterlimit="10" class="svg-elem-28"></path>
  <path fill-rule="evenodd" clip-rule="evenodd" d="M210.428 65.0346L161.571 36.9598C159.638 35.8734 158.055 37.0224 158.055 39.5469V103.114L186.078 111.539L196.776 105.615L213.896 96.2826V71.7016C213.951 69.1849 212.368 66.1914 210.428 65.0346Z" fill="white" class="svg-elem-29"></path>
  <path d="M210.113 65.6034L161.548 37.3147C161.068 37.039 160.659 36.905 160.242 36.905C159.967 36.905 159.621 36.9681 159.416 37.1099C159.141 37.2517 158.936 37.4565 158.794 37.7952C158.519 38.2758 158.385 38.9611 158.385 39.7883V96.6415C158.385 99.8714 159.07 102.55 163.122 105.157L159.148 103.44L158.055 102.203V39.7883C158.055 38.8981 158.259 38.2127 158.535 37.6534C158.739 37.3068 159.015 37.039 159.29 36.8263C159.565 36.6214 159.975 36.5505 160.321 36.5505C160.801 36.5505 161.281 36.6923 161.769 36.9602L210.325 65.2489C211.285 65.8004 212.174 66.8954 212.867 68.1322C213.488 69.369 213.897 70.8106 213.897 72.1104V96.61L213.488 96.8148V72.1262C213.488 70.8894 213.079 69.5186 212.457 68.3527C211.828 67.1159 211.002 66.1549 210.113 65.6034Z" stroke="#D2D2D2" stroke-miterlimit="10" class="svg-elem-30"></path>
  <path fill-rule="evenodd" clip-rule="evenodd" d="M178.134 116.699L134.69 91.6529L136.824 90.4172V90L134.217 91.5112C134.154 91.5742 134.075 91.6529 134.154 91.7867L134.217 91.8497L178.079 117.1C178.142 117.131 178.221 117.131 178.284 117.1L217.885 94.5967V94.1165L178.134 116.699Z" fill="#BABABA" class="svg-elem-31"></path>
  <path fill-rule="evenodd" clip-rule="evenodd" d="M219.344 21.3243C216.333 19.6143 213.653 19.4103 211.848 20.3673L210.558 20.9556C210.32 21.0341 210.097 21.136 209.875 21.2459L205.121 23.4344L206.189 25.9681C205.582 27.4114 205.382 29.1842 205.382 31.1688C205.382 40.1896 210.735 50.6537 217.501 54.6856C217.9 54.8896 218.169 55.0935 218.568 55.3053L220.066 58.09C220.066 58.09 227.023 54.8268 227.231 54.7641C229.842 53.3207 231.447 49.7752 231.447 44.849C231.462 35.8282 226.102 25.3641 219.344 21.3243Z" fill="#BABABA" class="svg-elem-32"></path>
  <path fill-rule="evenodd" clip-rule="evenodd" d="M212.7 24.5578C219.603 28.6096 225.064 39.1251 225.064 48.1903C225.064 57.2554 219.462 61.315 212.7 57.3973C205.798 53.3456 200.337 42.83 200.337 33.757C200.196 24.5578 205.727 20.5061 212.7 24.5578Z" fill="#D2D2D2" class="svg-elem-33"></path>
  <path d="M213.897 75.6405L158.055 42.9326" stroke="#D2D2D2" stroke-miterlimit="10" class="svg-elem-34"></path>
  <path fill-rule="evenodd" clip-rule="evenodd" d="M179.133 61.5666C177.931 60.8698 176.863 61.0342 175.872 61.6762L173.719 63.0775L164.538 57.8324C163.415 57.1826 162.276 57.1278 161.394 57.621L158.852 58.8579L159.546 88.2384L194.952 106.753L205.919 100.537V85.9838C205.919 82.6645 204.297 80.5821 202.3 79.4156L190.24 72.5187L188.594 68.7923C187.651 66.6551 185.186 65.2225 183.86 64.4005L179.133 61.5666Z" fill="#D9D9D9" class="svg-elem-35"></path>
  <path fill-rule="evenodd" clip-rule="evenodd" d="M190.957 109.146L201.93 102.947V89.0813C201.93 85.771 200.307 83.6942 198.309 82.531L160.527 61.0218C159.403 60.3738 158.263 60.3192 157.381 60.811C156.874 61.0999 150.599 64.176 150.076 64.5819L150.435 91.4469L190.957 109.146Z" fill="#BABABA" class="svg-elem-36"></path>
  <path fill-rule="evenodd" clip-rule="evenodd" d="M178.077 116.326L194.751 106.657V92.8967C194.751 89.6117 193.133 87.5508 191.141 86.3964L153.481 65.0437C151.489 63.897 149.279 64.3386 149.279 67.6237V99.4126L178.077 116.326Z" fill="#D2D2D2" class="svg-elem-37"></path>
  <path fill-rule="evenodd" clip-rule="evenodd" d="M185.46 85.4939L190.256 88.2649C190.876 88.6103 191.402 89.6229 191.402 90.5099V92.755C191.402 93.1946 191.269 93.5086 191.049 93.6734C190.829 93.854 190.389 94.1993 189.95 94.4662L185.507 90.9103C184.887 90.557 184.361 89.5523 184.361 88.6652L183.654 86.2475C183.921 86.0277 184.361 85.7216 184.667 85.4939C184.887 85.3605 185.154 85.3212 185.46 85.4939Z" fill="#5B5B5B" class="svg-elem-38"></path>
  <path fill-rule="evenodd" clip-rule="evenodd" d="M184.449 86.2475L189.245 89.0185C189.865 89.3639 190.391 90.3765 190.391 91.2636V93.5086C190.391 94.3878 189.865 94.7881 189.245 94.427L184.449 91.656C183.829 91.3107 183.303 90.298 183.303 89.411V87.166C183.303 86.2946 183.789 85.8472 184.449 86.2475Z" fill="#929292" class="svg-elem-39"></path>
  <path d="M171.06 79.0978C177.222 82.2891 182.46 91.7296 182.771 100.174C183.074 108.619 178.334 112.876 172.171 109.677C166.009 106.486 160.772 97.0457 160.461 88.601C160.158 80.1564 164.906 75.8988 171.06 79.0978Z" stroke="#BABABA" stroke-miterlimit="10" class="svg-elem-40"></path>
  <path fill-rule="evenodd" clip-rule="evenodd" d="M171.483 80.4782C168.782 78.9789 166.372 78.7905 164.747 79.6383L163.594 80.1564C163.382 80.227 163.17 80.3055 162.981 80.4076L158.711 82.3386L159.669 84.5601C159.127 85.8239 158.946 87.386 158.946 89.1287C158.946 97.0648 163.758 106.265 169.826 109.813C170.187 109.993 170.423 110.174 170.784 110.355L172.126 112.812C172.126 112.812 178.375 109.946 178.563 109.884C180.91 108.62 182.355 105.495 182.355 101.17C182.362 93.2263 177.558 84.0263 171.483 80.4782Z" fill="#D2D2D2" class="svg-elem-41"></path>
  <path fill-rule="evenodd" clip-rule="evenodd" d="M165.367 83.2964C171.434 86.8445 176.254 96.0444 176.254 103.973C176.254 111.909 171.325 115.457 165.367 112.027C159.299 108.479 154.487 99.2786 154.487 91.3424C154.361 83.2964 159.228 79.7561 165.367 83.2964Z" fill="white" class="svg-elem-42"></path>
  <path fill-rule="evenodd" clip-rule="evenodd" d="M164.436 91.2386C166.632 92.4767 168.425 95.965 168.425 99.0251C168.425 102.085 166.64 103.565 164.436 102.327C162.24 101.089 160.447 97.6002 160.447 94.5401C160.455 91.48 162.24 89.9928 164.436 91.2386Z" fill="#D2D2D2" class="svg-elem-43"></path>
  <path fill-rule="evenodd" clip-rule="evenodd" d="M157.804 62.1695L159.503 63.1605C159.963 63.4258 160.408 64.1905 160.408 64.8538L160.447 66.6095L158.997 67.6629L157.344 65.8994L155.66 63.0591L156.783 62.2632C157.071 62.0447 157.469 62.0291 157.804 62.1695Z" fill="#545454" class="svg-elem-44"></path>
  <path fill-rule="evenodd" clip-rule="evenodd" d="M155.823 62.9882L157.891 64.1268C158.47 64.5117 158.877 65.1211 158.851 65.8749V67.663L154.863 65.5381C154.863 65.514 154.863 65.4739 154.863 65.4499V63.7019C154.872 63.0283 155.27 62.6835 155.823 62.9882Z" fill="#808080" class="svg-elem-45"></path>
  <path fill-rule="evenodd" clip-rule="evenodd" d="M175.292 64.9201C174.103 64.2299 173.046 64.3927 172.065 65.0287L165.234 69.4879L189.934 83.618L189.965 81.1518C188.105 79.3991 187.711 79.0502 186.283 75.8085L184.639 72.0782C183.705 69.961 181.266 68.5418 179.954 67.7275L175.292 64.9201Z" fill="#BABABA" class="svg-elem-46"></path>
  <path fill-rule="evenodd" clip-rule="evenodd" d="M174.017 70.0368L177.34 72.0498C178.681 72.8596 179.968 74.5024 180.915 76.6157L182.564 80.2716C182.864 80.9349 183.204 81.5211 183.582 82.0224L163.639 70.916C164.325 71.0163 164.957 70.8003 165.462 70.2604L167.111 68.5251C168.058 67.5224 169.345 67.3913 170.686 68.1471L174.017 70.0368Z" fill="#D2D2D2" class="svg-elem-47"></path>
  <path fill-rule="evenodd" clip-rule="evenodd" d="M138.326 82.8488L143.255 80.1799C144.009 79.7011 144.417 78.8141 144.417 77.5816L144.48 63.35C144.48 60.5397 142.149 56.8503 139.346 55.2804L128.192 48.9848C126.002 47.7524 124.84 48.1606 123.199 49.1889L119.502 51.1043L129.903 66.5684L138.326 82.8488Z" fill="#4406B1" class="svg-elem-48"></path>
  <path fill-rule="evenodd" clip-rule="evenodd" d="M118.143 68.005L118.205 53.7733C118.205 50.9709 120.6 49.9426 123.41 51.5204L134.564 57.8159C137.375 59.3859 139.769 63.0832 139.698 65.8855L139.635 80.1172C139.635 82.9196 137.241 83.9557 134.431 82.3701L123.276 76.0824C120.466 74.4418 118.143 70.8152 118.143 68.005Z" fill="#6216E9" class="svg-elem-49"></path>
  <path fill-rule="evenodd" clip-rule="evenodd" d="M126.339 58.4661L135.386 69.6421C135.696 70.0281 135.815 70.5558 135.625 70.8078C135.561 70.8944 135.482 70.9417 135.378 70.9417L130.863 71.2961C130.847 71.2961 130.839 71.2961 130.823 71.2961L126.331 71.6505C126.021 71.6742 125.616 71.3197 125.433 70.855C125.37 70.7054 125.346 70.5558 125.346 70.4297V58.5527C125.346 58.1353 125.64 57.9699 126.006 58.1826C126.125 58.2377 126.236 58.348 126.339 58.4661Z" fill="white" class="svg-elem-50"></path>
  <path fill-rule="evenodd" clip-rule="evenodd" d="M230.478 132.852L234.152 130.732C234.238 130.732 234.238 130.654 234.317 130.654H234.387C234.968 130.246 235.377 129.508 235.377 128.448L235.463 102.505C235.463 100.142 233.5 97.0411 231.138 95.6595L211.482 84.4029C209.606 83.3432 208.711 83.7514 207.243 84.5678L204.629 86.0357L219.465 107.316L230.478 132.852Z" fill="#BABABA" class="svg-elem-51"></path>
  <path fill-rule="evenodd" clip-rule="evenodd" d="M203.24 114.279L203.327 88.4063C203.327 86.0357 205.289 85.1408 207.73 86.5302L227.386 97.7868C229.749 99.1762 231.711 102.269 231.711 104.632L231.625 130.505C231.625 132.868 229.663 133.77 227.221 132.381L207.565 121.124C205.203 119.743 203.24 116.642 203.24 114.279Z" fill="#D2D2D2" class="svg-elem-52"></path>
  <path fill-rule="evenodd" clip-rule="evenodd" d="M211.453 113.534C211.453 110.92 211.453 108.298 211.453 105.684C211.555 103.98 212.214 102.567 213.525 101.476C213.863 101.052 214.193 100.621 214.522 100.197C214.868 99.7885 214.899 98.8544 214.632 97.4257C214.53 96.9783 214.53 96.5858 214.891 96.3817C215.566 96.1619 216.202 96.5623 216.767 97.7083C217.631 99.4824 217.725 101.06 217.568 102.575C217.427 103.25 217.278 103.933 217.136 104.616C217.019 105.009 216.869 105.393 216.673 105.747C218.204 106.594 219.735 107.434 221.265 108.282C223.212 109.365 222.843 112.372 221.776 112.073C222.906 113.149 222.937 115.763 221.666 115.363C222.749 116.925 222.372 118.518 221.446 118.345C222.239 119.931 221.799 121.281 220.818 120.795C218.282 119.397 215.747 117.992 213.211 116.595C212.105 116.132 211.39 115.26 211.453 113.534Z" fill="white" class="svg-elem-53"></path>
  <path fill-rule="evenodd" clip-rule="evenodd" d="M174.15 103.682C174.275 103.588 175.39 102.842 175.531 102.732C176.505 102.018 177.078 102.097 178.02 102.638L200.211 115.386C201.349 116.03 202.276 117.804 202.276 119.311V136.848C202.354 137.829 201.907 138.779 201.098 139.344C200.509 139.736 199.787 140.215 199.379 140.419H198.398L175.429 127.381H175.406L175.319 127.318L175.28 127.287L175.249 127.255V127.153C174.833 126.423 174.613 125.607 174.589 124.775V105.394C174.142 104.938 173.985 104.287 174.15 103.682Z" fill="#EEEEEE" class="svg-elem-54"></path>
  <path fill-rule="evenodd" clip-rule="evenodd" d="M175.532 104.106L175.281 104.279V104.404L174.637 104.711L174.598 104.789C174.527 104.97 174.496 105.174 174.496 105.378V123.472C174.496 123.778 174.543 124.068 174.629 124.359C174.723 124.688 174.849 125.002 175.014 125.301C175.014 125.363 175.076 125.418 175.108 125.481V125.528L175.139 125.591C175.186 125.669 175.233 125.724 175.281 125.795L175.453 125.991L175.508 126.054V126.085L175.555 126.125L175.642 126.211L175.744 126.29L175.869 126.368L198.43 139.312C198.5 139.352 198.579 139.375 198.665 139.407L198.744 139.367C199.01 139.234 199.513 138.904 200 138.582L200.329 138.363C200.557 138.221 200.737 138.017 200.855 137.774C200.973 137.468 201.036 137.146 201.02 136.824V119.319C200.996 118.699 200.839 118.094 200.557 117.553C200.329 117.082 199.976 116.674 199.536 116.375L177.439 103.643C177.243 103.502 177.015 103.415 176.78 103.376C176.56 103.415 176.356 103.517 176.191 103.674L175.524 104.137L175.532 104.106ZM173.004 103.141C173.153 102.984 173.334 102.85 173.522 102.748L174.841 101.837C175.39 101.382 176.066 101.131 176.772 101.1C177.416 101.123 178.044 101.327 178.577 101.688L200.769 114.413C201.585 114.923 202.245 115.653 202.668 116.501C203.132 117.364 203.383 118.33 203.414 119.311V136.848C203.422 137.483 203.296 138.119 203.053 138.7C202.771 139.359 202.3 139.909 201.695 140.294L201.365 140.513C200.855 140.843 200.329 141.188 199.937 141.393C199.866 141.44 199.795 141.471 199.717 141.502C199.591 141.557 199.489 141.573 199.364 141.628C199.215 141.659 199.058 141.691 198.901 141.699H198.767C198.634 141.699 198.485 141.699 198.351 141.659L198.084 141.597H197.943L197.684 141.495C197.621 141.463 197.55 141.432 197.495 141.393H197.433C192.291 138.449 184.708 134.532 178.931 130.937C177.235 129.885 175.602 129.1 174.339 128.071L174.244 127.993L174.182 127.938L174.15 127.907L174.064 127.765H174.032L173.977 127.703C173.758 127.483 173.561 127.247 173.389 127.004L173.31 126.902L173.224 126.761L173.09 126.541L173.028 126.431C172.776 125.976 172.58 125.497 172.439 124.994C172.298 124.516 172.227 124.013 172.219 123.511V105.401C172.211 104.875 172.321 104.349 172.525 103.871C172.643 103.604 172.8 103.368 172.996 103.164L173.004 103.141Z" fill="#BABABA" class="svg-elem-55"></path>
  <path fill-rule="evenodd" clip-rule="evenodd" d="M199.348 140.411L177.659 125.983C176.458 125.018 175.713 123.589 175.595 122.058L174.143 103.69C174.268 103.596 175.383 102.85 175.524 102.74C176.498 102.026 177.078 102.104 178.013 102.646L200.204 115.394C201.342 116.038 202.268 117.812 202.268 119.319V136.855C202.347 137.836 201.899 138.786 201.091 139.351C200.502 139.744 199.78 140.223 199.38 140.427L199.348 140.411Z" fill="#EEEEEE" class="svg-elem-56"></path>
  <path fill-rule="evenodd" clip-rule="evenodd" d="M177.768 125.858L199.363 140.207C199.685 140.027 200.172 139.72 200.627 139.414L200.964 139.194C201.349 138.951 201.655 138.598 201.836 138.174C202.008 137.75 202.095 137.303 202.079 136.855V119.303C202.055 118.534 201.859 117.78 201.49 117.105C201.184 116.469 200.697 115.92 200.101 115.543L177.917 102.811C177.572 102.583 177.187 102.442 176.779 102.41C176.355 102.442 175.963 102.607 175.641 102.889L174.997 103.329L174.338 103.784L175.782 122.066C175.853 122.835 176.081 123.589 176.449 124.272C176.756 124.9 177.219 125.442 177.784 125.85L177.768 125.858ZM199.237 140.56L177.548 126.156C176.936 125.709 176.442 125.12 176.104 124.445C175.719 123.715 175.476 122.914 175.398 122.09L173.93 103.627L174.008 103.564C174.071 103.509 174.432 103.266 174.762 103.038C175.099 102.811 175.35 102.654 175.39 102.614C175.774 102.285 176.253 102.088 176.756 102.065C177.227 102.088 177.69 102.245 178.082 102.512L200.274 115.229C200.933 115.653 201.467 116.242 201.804 116.948C202.189 117.67 202.409 118.479 202.432 119.303V136.84C202.448 137.35 202.346 137.844 202.158 138.315C201.946 138.802 201.592 139.21 201.145 139.493L200.807 139.713C200.289 140.058 199.748 140.411 199.41 140.584L199.308 140.631L199.222 140.568L199.237 140.56Z" fill="#979797" class="svg-elem-57"></path>
  <path fill-rule="evenodd" clip-rule="evenodd" d="M197.974 140.317L175.43 127.389C174.158 126.478 173.389 125.026 173.365 123.464V105.386C173.365 103.879 174.292 103.18 175.43 103.831L197.974 116.776C199.238 117.686 200 119.131 200.031 120.685V138.763C200.039 140.278 199.105 140.977 197.974 140.317Z" fill="white" class="svg-elem-58"></path>
  <path fill-rule="evenodd" clip-rule="evenodd" d="M175.524 127.224L198.061 140.168C198.281 140.309 198.524 140.388 198.775 140.388C198.94 140.388 199.097 140.341 199.239 140.254C199.38 140.16 199.505 140.034 199.592 139.885C199.772 139.54 199.859 139.163 199.851 138.771V120.685C199.827 119.915 199.631 119.162 199.262 118.487C198.956 117.851 198.469 117.309 197.881 116.925L175.336 103.98C175.116 103.847 174.873 103.768 174.622 103.761C174.465 103.753 174.3 103.8 174.159 103.886C174.017 103.98 173.892 104.106 173.805 104.255C173.625 104.6 173.538 104.993 173.554 105.385V123.464C173.578 124.233 173.774 124.986 174.143 125.661C174.449 126.297 174.928 126.839 175.524 127.224ZM197.873 140.482L175.328 127.538C174.669 127.114 174.143 126.525 173.797 125.818C173.413 125.096 173.193 124.288 173.169 123.464V105.385C173.154 104.93 173.264 104.483 173.476 104.082C173.593 103.878 173.758 103.698 173.954 103.572C174.151 103.454 174.378 103.392 174.614 103.392C174.936 103.407 175.25 103.494 175.524 103.658L198.061 116.603C198.721 117.027 199.246 117.623 199.592 118.322C199.984 119.044 200.204 119.853 200.228 120.677V138.755C200.243 139.21 200.133 139.658 199.922 140.058C199.812 140.27 199.639 140.443 199.443 140.568C199.246 140.686 199.019 140.749 198.791 140.749C198.469 140.741 198.147 140.647 197.873 140.482Z" fill="#979797" class="svg-elem-59"></path>
  <path fill-rule="evenodd" clip-rule="evenodd" d="M187.157 131.557L185.901 133.205L184.292 133.543L178.098 137.821V130.411L177.58 128.425L178.098 126.847H186.788L187.157 131.557Z" fill="white" class="svg-elem-60"></path>
  <path fill-rule="evenodd" clip-rule="evenodd" d="M183.365 133.378L178.742 136.565V130.474C178.742 129.579 178.247 128.754 177.462 128.331V137.805C177.446 138.049 177.588 138.276 177.808 138.394C177.902 138.441 178.004 138.465 178.114 138.465C178.247 138.465 178.373 138.425 178.475 138.347L185.916 133.197C184.668 132.452 184.064 132.899 183.365 133.378Z" fill="#BABABA" class="svg-elem-61"></path>
  <path fill-rule="evenodd" clip-rule="evenodd" d="M181.616 115.81C182.652 116.517 183.288 117.67 183.335 118.926C183.335 120.104 182.565 120.606 181.616 120.057C180.579 119.35 179.944 118.189 179.897 116.933C179.889 115.763 180.666 115.261 181.616 115.81Z" fill="#979797" class="svg-elem-62"></path>
  <path fill-rule="evenodd" clip-rule="evenodd" d="M186.419 118.628C187.455 119.335 188.091 120.496 188.138 121.745C188.138 122.922 187.368 123.432 186.419 122.875C185.375 122.176 184.715 121.03 184.652 119.774C184.652 118.597 185.422 118.094 186.371 118.652L186.419 118.628Z" fill="#979797" class="svg-elem-63"></path>
  <path fill-rule="evenodd" clip-rule="evenodd" d="M191.202 121.595C192.23 122.302 192.858 123.464 192.897 124.712C192.897 125.889 192.128 126.392 191.178 125.842C190.15 125.128 189.522 123.966 189.482 122.71C189.482 121.533 190.252 121.038 191.202 121.595Z" fill="#979797" class="svg-elem-64"></path>
  <path fill-rule="evenodd" clip-rule="evenodd" d="M212.338 31.5897C213.68 32.3669 214.779 34.4549 214.779 36.2447V43.8354C214.779 45.6252 213.68 46.4494 212.338 45.6801C210.995 44.903 209.896 42.8149 209.896 41.0252V33.4344C209.896 31.6447 210.995 30.8126 212.338 31.5897Z" fill="white" class="svg-elem-65"></path>
  <path fill-rule="evenodd" clip-rule="evenodd" d="M215.941 45.1935C215.941 44.5577 216.334 44.2672 216.828 44.5498C217.315 44.8324 217.715 45.586 217.715 46.2218C217.715 48.1529 217.111 49.5658 216.137 50.2723C215.164 50.9788 213.822 50.9945 212.346 50.1389V50.1467C210.862 49.2911 209.528 47.729 208.554 45.8921C207.581 44.0553 206.977 41.9515 206.977 40.0126C206.977 39.3768 207.369 39.0864 207.864 39.369C208.35 39.6515 208.751 40.4051 208.751 41.041C208.751 42.3362 209.159 43.7491 209.81 44.9816C210.462 46.214 211.365 47.2658 212.354 47.8389V47.8467C213.343 48.4198 214.238 48.4041 214.897 47.9252C215.533 47.4385 215.941 46.4887 215.941 45.1935Z" fill="white" class="svg-elem-66"></path>
  <path fill-rule="evenodd" clip-rule="evenodd" d="M211.441 48.4431C211.441 47.8072 211.834 47.5168 212.328 47.7994C212.815 48.082 213.215 48.8355 213.215 49.4714V53.7495C213.215 54.3853 212.823 54.6758 212.328 54.3932C211.842 54.1106 211.441 53.357 211.441 52.7212V48.4431Z" fill="white" class="svg-elem-67"></path>
  <path fill-rule="evenodd" clip-rule="evenodd" d="M187.457 60.1157L182.951 49.3223L190.448 53.6867L194.954 64.4645L187.457 60.1157Z" fill="#5F1ADA" class="svg-elem-68"></path>
  <path fill-rule="evenodd" clip-rule="evenodd" d="M202.121 68.6329L197.615 57.863L205.12 62.2275L209.618 72.9817L202.121 68.6329Z" fill="#5F1ADA" class="svg-elem-69"></path>
  <path fill-rule="evenodd" clip-rule="evenodd" d="M172.943 51.6775L168.43 40.8762L175.934 45.2407L180.448 56.0342L172.943 51.6775Z" fill="#5F1ADA" class="svg-elem-70"></path>
  <path fill-rule="evenodd" clip-rule="evenodd" d="M160.972 36.6686L165.415 47.3129L158.248 43.1525L158.272 39.6044C158.279 37.4301 159.433 36.2604 160.972 36.6686Z" fill="#5F1ADA" class="svg-elem-71"></path>
</svg>
