<svg fill="none" xmlns="http://www.w3.org/2000/svg">
  <path d="M68.44 76.565C70.307 73.968 71.838 71.249 71.838 69.371C71.838 67.915 70.918 66.963 68.522 66.963C61.863 66.963 55.243 71.723 51.356 73.699C51.869 72.348 52.1 71.245 52.1 70.353C52.1 67.997 50.478 67.133 48.166 67.133C46.449 67.133 44.351 67.609 42.254 68.298C40.49 60.348 37.253 53.297 31.483 53.297C26.672 53.297 21.426 60.63 20.4 71.697C18.37 70.239 16.178 69.595 13.896 69.595C9.638 69.595 5.05599 71.83 0.593994 75.16C4.87099 73.933 9.42601 73.195 13.712 73.195C23.986 73.195 34.336 79.253 49.296 79.253C55.605 79.253 62.168 78.277 68.44 76.565ZM140.785 53.615C141.235 27.662 149.657 0.187012 165.589 0.187012C175.965 0.187012 179.598 19.176 179.853 32.882C183.385 28.558 186.757 26.285 189.757 26.285C193.444 26.285 196.569 29.718 198.727 36.988C201.897 31.32 206.856 24.644 214.503 24.644C223.507 24.644 227.875 34.526 227.875 43.857C227.875 44.376 227.865 44.891 227.849 45.407C223.5 45.0654 219.139 44.8956 214.777 44.898C182.263 44.898 161.001 53.109 140.785 53.616V53.615ZM107.532 102.938C110.7 92.515 108.351 81.481 96.908 81.481C89.453 81.481 84.29 89.108 82.262 94.61C80.309 92.877 78.19 91.962 76.034 91.962C73.388 91.962 70.682 93.341 68.152 96.26C66.638 93.985 63.976 91.304 58.483 91.304C52.015 91.304 47.546 95.271 46.291 99.02C46.222 99.2251 46.1589 99.4322 46.102 99.641C49.253 99.504 52.406 99.437 55.559 99.438C78.911 99.438 93.079 102.735 107.532 102.938Z" fill="#FAFBFC"/>
  <path fill-rule="evenodd" clip-rule="evenodd" d="M83.93 118.82L109.213 129.635L108.987 130.164L83.704 119.348L83.93 118.82Z" fill="#B6BFC4"/>
  <path d="M129.247 131.215L107.278 120.04L107.857 117.945L129.823 129.121L129.247 131.215Z" fill="#B6BFC4"/>
  <path d="M109.237 131.408L109.087 130.769L130.076 121.662L130.227 122.303L109.237 131.408ZM128.345 130.631L128.191 129.997L154.007 118.237L154.163 118.873L128.345 130.631ZM108.33 129.387L108.055 128.097L130.657 119.209L130.933 120.495L108.33 129.387Z" fill="#B6BFC4"/>
  <path fill-rule="evenodd" clip-rule="evenodd" d="M88.417 111.954H90.184V112.948H88.417V111.954Z" fill="#CDCCCC"/>
  <path d="M148.095 112.81V112.95H149.864V111.956H148.095" fill="#CDCCCC"/>
  <path fill-rule="evenodd" clip-rule="evenodd" d="M88.417 110.962H90.184V111.956H88.417V110.962ZM148.094 110.962H149.863V111.956H148.094V110.962Z" fill="#CDCCCC"/>
  <path d="M149.864 131.42V129.29H155.632L155.615 131.42H149.864ZM143.54 126.177L133.565 121.26H148.095V126.177H143.54ZM90.184 126.177V121.26H104.716L94.739 126.177H90.184ZM88.418 131.42H82.666L82.65 129.29H88.418V131.42ZM160.725 128.263V131.42H156.406L156.217 118.822H155.711L155.653 126.177H149.864V121.26H151.236V118.822L149.864 118.848V112.809H148.095V118.885L119.141 119.473L90.184 118.885V112.809H88.418V118.848L87.046 118.822V121.26H88.418V126.177H82.626L82.57 118.822H82.064L81.875 131.42H77.554V128.263H76.35V138.814H77.554V132.976H81.852L81.758 138.814H82.722L82.678 132.976H88.418V138.814H90.184V129.29H94.739V129.136L108.398 122.002L110.099 137.981H112.899L110.262 121.26H128.017L125.382 137.981H128.182L129.883 122.002L143.54 129.136V129.29H148.095V138.814H149.864V132.976H155.601L155.557 138.814H156.523L156.427 132.976H160.725V138.814H161.929V128.263H160.725Z" fill="#B6BFC4"/>
  <path d="M153.033 41.837C153.033 44.469 148.397 46.602 142.669 46.602L153.033 41.837ZM108.559 37.377C108.559 40.009 103.925 42.141 98.196 42.141L108.559 37.377Z" stroke="#D1D5DA" stroke-width="0.806" stroke-miterlimit="10"/>
  <path d="M98.106 29.611L96.004 29.688L99.179 120.039L104.835 119.748L98.106 29.611Z" fill="#D1D5DA"/>
  <path d="M108.38 37.377V39.175L98.052 39.759L97.7 37.377H108.38ZM108.38 45.232V47.032H98.052L97.833 45.02L108.38 45.232Z" fill="#B6BFC4"/>
  <path d="M108.026 54.57V56.37L98.611 56.285L98.329 54.445L108.026 54.57Z" fill="#D1D5DA"/>
  <path d="M108.379 60.944V62.742H99.181L98.966 60.944H108.379Z" fill="#B6BFC4"/>
  <path d="M109.531 71.751L109.86 73.519L100.244 75.417L100.029 72.581L109.531 71.751Z" fill="#D1D5DA"/>
  <path d="M93.922 29.687L91.918 120.041H99.179L96.004 29.687H93.922Z" fill="#E1E4E8"/>
  <path fill-rule="evenodd" clip-rule="evenodd" d="M95.713 76.077H98.977V78.662H95.713V76.077ZM92.005 65.089H94.964V75.953H92.005V65.089Z" fill="#B6BFC4"/>
  <path fill-rule="evenodd" clip-rule="evenodd" d="M92.402 68.671H95.36V71.254H92.402V68.671Z" fill="#E4E4E4"/>
  <path fill-rule="evenodd" clip-rule="evenodd" d="M91.408 62.065H98.987V63.029H91.408V62.065ZM91.336 57.121H94.99V60.513H91.336V57.121ZM94.966 53.728H98.62V57.121H94.966V53.728Z" fill="#B6BFC4"/>
  <path d="M117.428 115.079H130.651L131.767 109.281H115.951L117.428 115.079Z" fill="#959DA5"/>
  <path fill-rule="evenodd" clip-rule="evenodd" d="M115.466 106.784H133.109V112.172H115.466V106.784Z" fill="#B6BFC4"/>
  <path d="M55.29 73.633H44.772V69.517C44.772 68.6125 44.9501 67.7169 45.2963 66.8814C45.6425 66.0458 46.1499 65.2866 46.7895 64.6471C47.4292 64.0077 48.1885 63.5005 49.0242 63.1546C49.8599 62.8086 50.7555 62.6307 51.66 62.631H52.71C53.0489 62.6303 53.3847 62.6966 53.6979 62.8262C54.0111 62.9558 54.2956 63.146 54.535 63.386C55.0181 63.8701 55.2896 64.526 55.29 65.21V73.633Z" fill="#E1E4E8"/>
  <path fill-rule="evenodd" clip-rule="evenodd" d="M54.395 64.625H56.301V69.643H54.395V64.625ZM52.188 66.282H52.519V74.355H52.188V66.282Z" fill="#B6BFC4"/>
  <path d="M52.922 66.852H51.83C51.6762 66.8515 51.5288 66.7901 51.4201 66.6812C51.3114 66.5723 51.2503 66.4249 51.25 66.271V66.143C51.25 65.821 51.508 65.562 51.83 65.562H52.922C52.9984 65.5618 53.0741 65.5766 53.1448 65.6057C53.2155 65.6348 53.2797 65.6776 53.3338 65.7315C53.3879 65.7855 53.4307 65.8497 53.4599 65.9203C53.4892 65.9909 53.5041 66.0666 53.504 66.143V66.271C53.5041 66.3474 53.4892 66.4231 53.4599 66.4937C53.4307 66.5644 53.3879 66.6285 53.3338 66.6825C53.2797 66.7365 53.2155 66.7793 53.1448 66.8084C53.0741 66.8374 52.9984 66.8523 52.922 66.852Z" fill="#B6BFC4"/>
  <path d="M160.489 40.656H155.92V36.038C155.919 35.8277 155.961 35.6193 156.041 35.425C156.122 35.2307 156.24 35.0543 156.389 34.906C156.69 34.6061 157.097 34.4375 157.521 34.437H158.363C158.573 34.4371 158.781 34.4786 158.975 34.5591C159.169 34.6396 159.345 34.7575 159.493 34.9061C159.642 35.0546 159.759 35.231 159.84 35.425C159.92 35.6191 159.961 35.827 159.961 36.037L160.489 40.655V40.656Z" fill="#D1D5DA"/>
  <path fill-rule="evenodd" clip-rule="evenodd" d="M155.43 36.11H157.862V36.959H155.43V36.109V36.11ZM157.88 35.199H160.312V35.49H157.88V35.2V35.199Z" fill="#B6BFC4"/>
  <path d="M133.542 109.155L142.415 116.535H146.013L133.55 107.935L133.542 109.155Z" fill="#959DA5"/>
  <path d="M134.905 75.488H133.026C133.026 75.488 133.717 86.443 133.552 107.933L136.716 110.117C140.054 103.184 143.09 96.072 144.257 88.788C141.926 81.046 138.27 76.122 134.905 75.488Z" fill="#B6BFC4"/>
  <path d="M144.256 88.787C143.09 96.074 140.054 103.184 136.717 110.119L146.013 116.535C147.444 105.636 146.424 95.99 144.256 88.787Z" fill="#D1D5DA"/>
  <path d="M124.206 10.03C120.596 13.1 117.593 16.38 115.115 19.82C110.898 37.29 108.118 55.784 114.272 72.764C111.702 74.822 109.568 77.323 107.665 80.05C109.902 90.88 112.938 100.954 114.87 109.154H130.128C121.091 64.664 124.206 10.03 124.206 10.03Z" fill="#E1E4E8"/>
  <path d="M114.273 72.764C108.118 55.784 110.899 37.288 115.116 19.82C102.143 37.829 103.563 60.206 107.665 80.051C109.569 77.323 111.7 74.822 114.273 72.764Z" fill="#EDF0F2"/>
  <path d="M124.206 10.03C124.206 10.03 121.091 64.664 130.128 109.154H133.542C139.686 83.058 157.027 37.969 124.206 10.03Z" fill="#D1D5DA"/>
  <path d="M167.715 28.457C167.616 28.3948 167.504 28.3552 167.388 28.341C167.272 28.3268 167.154 28.3384 167.043 28.375C166.838 28.4455 166.668 28.5924 166.569 28.785C166.511 28.896 166.476 29.0174 166.465 29.1422C166.454 29.267 166.468 29.3927 166.506 29.512C166.576 29.724 166.716 29.906 166.901 30.016C167.001 30.0763 167.114 30.1136 167.231 30.1252C167.347 30.1368 167.465 30.1224 167.575 30.083C167.776 30.0102 167.942 29.8636 168.039 29.673C168.151 29.4513 168.171 29.1948 168.097 28.958C168.034 28.7508 167.898 28.5731 167.715 28.457ZM168.942 29.05C168.97 29.29 168.949 29.537 168.884 29.768C168.695 30.438 168.156 30.926 167.505 31.012C167.273 31.043 167.037 31.022 166.814 30.952C166.165 30.744 165.689 30.144 165.61 29.422C165.581 29.171 165.602 28.9166 165.673 28.674C165.876 27.986 166.443 27.504 167.113 27.444C167.346 27.424 167.577 27.454 167.799 27.533C168.424 27.762 168.87 28.354 168.942 29.05Z" fill="#B6BFC4"/>
  <path d="M165.607 54.734C165.471 54.6498 165.318 54.5963 165.16 54.5773C165.001 54.5583 164.84 54.5743 164.688 54.624C164.415 54.715 164.184 54.914 164.042 55.177C163.964 55.327 163.916 55.491 163.901 55.6596C163.887 55.8281 163.906 55.9979 163.958 56.159C164.051 56.451 164.243 56.694 164.497 56.843C164.635 56.9247 164.789 56.9752 164.948 56.9909C165.107 57.0066 165.268 56.9872 165.419 56.934C165.691 56.836 165.916 56.637 166.049 56.379C166.203 56.0812 166.233 55.7347 166.132 55.415C166.044 55.1329 165.858 54.8917 165.607 54.735V54.734ZM167.287 55.534C167.322 55.862 167.295 56.193 167.206 56.509C166.947 57.413 166.214 58.073 165.321 58.189C165.005 58.2341 164.684 58.2068 164.38 58.109C163.493 57.829 162.84 57.019 162.733 56.043C162.693 55.703 162.723 55.357 162.821 55.028C163.097 54.099 163.874 53.446 164.786 53.365C165.104 53.337 165.424 53.378 165.724 53.485C166.576 53.793 167.185 54.597 167.287 55.535V55.534Z" fill="#D1D5DA"/>
  <path d="M164.716 31.342C164.603 31.2935 164.482 31.2685 164.359 31.2685C164.236 31.2685 164.115 31.2935 164.002 31.342C163.901 31.3857 163.811 31.45 163.736 31.5307C163.662 31.6115 163.605 31.7069 163.57 31.8108C163.534 31.9148 163.521 32.025 163.531 32.1343C163.54 32.2437 163.573 32.3499 163.626 32.446C163.728 32.6328 163.893 32.7779 164.091 32.856C164.199 32.9011 164.315 32.9244 164.432 32.9244C164.55 32.9244 164.666 32.9011 164.774 32.856C164.874 32.8156 164.966 32.7548 165.041 32.6775C165.117 32.6001 165.176 32.5079 165.215 32.4066C165.253 32.3053 165.27 32.1972 165.265 32.089C165.259 31.9808 165.231 31.8749 165.183 31.778C165.086 31.5804 164.92 31.4252 164.716 31.342ZM166.095 31.772C166.144 31.996 166.144 32.228 166.095 32.452C165.958 33.073 165.454 33.54 164.814 33.666C164.588 33.708 164.356 33.708 164.13 33.666C163.477 33.54 162.929 33.073 162.733 32.453C162.662 32.2331 162.64 32.0004 162.668 31.771C162.749 31.106 163.248 30.567 163.944 30.421C164.189 30.369 164.443 30.369 164.688 30.421C165.398 30.567 165.948 31.106 166.095 31.771V31.772Z" fill="#B6BFC4"/>
  <path d="M34.008 60.71C33.8952 60.6618 33.7737 60.6369 33.651 60.6369C33.5283 60.6369 33.4069 60.6618 33.294 60.71C33.1984 60.7513 33.1119 60.8111 33.0395 60.8859C32.9671 60.9607 32.9101 61.0491 32.872 61.146C32.8311 61.254 32.8142 61.3695 32.8223 61.4847C32.8304 61.5998 32.8634 61.7118 32.919 61.813C33.0198 62.0009 33.1843 62.1466 33.383 62.224C33.6023 62.313 33.8477 62.313 34.067 62.224C34.256 62.1467 34.4079 61.9995 34.491 61.813C34.5371 61.7073 34.5594 61.5928 34.5563 61.4775C34.5532 61.3622 34.5248 61.2491 34.473 61.146C34.3762 60.949 34.2109 60.794 34.008 60.71ZM35.385 61.139C35.434 61.3637 35.434 61.5963 35.385 61.821C35.249 62.439 34.745 62.908 34.106 63.034C33.8803 63.076 33.6487 63.076 33.423 63.034C32.767 62.908 32.221 62.439 32.023 61.821C31.9529 61.6009 31.9311 61.3683 31.959 61.139C32.041 60.472 32.541 59.935 33.233 59.788C33.48 59.737 33.734 59.737 33.98 59.788C34.689 59.935 35.238 60.472 35.385 61.139ZM27.115 88.733C27.1336 88.5269 27.1095 88.3192 27.0441 88.1228C26.9787 87.9265 26.8735 87.7458 26.735 87.592C26.6166 87.4607 26.4733 87.3542 26.3135 87.2785C26.1538 87.2029 25.9806 87.1595 25.804 87.151C25.6083 87.1433 25.4133 87.1778 25.2321 87.2522C25.0509 87.3266 24.8879 87.439 24.754 87.582C24.5071 87.845 24.36 88.186 24.338 88.546C24.31 88.95 24.444 89.346 24.7 89.64C24.8203 89.779 24.968 89.8917 25.1338 89.9711C25.2996 90.0505 25.48 90.0948 25.6638 90.1014C25.8475 90.1079 26.0306 90.0766 26.2017 90.0092C26.3727 89.9419 26.5281 89.84 26.658 89.71C26.922 89.458 27.085 89.108 27.115 88.733ZM27.155 91.164C26.819 91.364 26.444 91.489 26.056 91.53C24.985 91.645 23.96 91.094 23.419 90.135C23.2276 89.7982 23.1039 89.4273 23.055 89.043C22.906 87.932 23.372 86.806 24.266 86.157C24.584 85.927 24.946 85.767 25.33 85.688C26.448 85.462 27.582 85.97 28.188 86.999C28.404 87.365 28.541 87.772 28.588 88.194C28.725 89.402 28.151 90.574 27.155 91.164ZM31.587 69.021C31.6454 68.9274 31.6832 68.8225 31.698 68.7132C31.7128 68.6039 31.7043 68.4928 31.673 68.387C31.629 68.2431 31.5411 68.1165 31.4218 68.0249C31.3024 67.9333 31.1574 67.8813 31.007 67.876C30.8012 67.8682 30.5998 67.9368 30.4416 68.0686C30.2834 68.2005 30.1795 68.3862 30.15 68.59C30.1361 68.6945 30.1439 68.8007 30.173 68.902C30.225 69.082 30.341 69.233 30.505 69.327C30.5985 69.3795 30.702 69.4119 30.8087 69.4222C30.9154 69.4326 31.0232 69.4206 31.125 69.387C31.3178 69.3242 31.4817 69.1943 31.587 69.021ZM31.025 70.199C30.8103 70.219 30.5939 70.1931 30.39 70.123C30.1192 70.0302 29.8821 69.859 29.709 69.631C29.5351 69.4037 29.4327 69.1297 29.415 68.844C29.4011 68.6376 29.429 68.4304 29.497 68.235C29.5943 67.952 29.7653 67.7002 29.9924 67.5054C30.2195 67.3106 30.4945 67.18 30.789 67.127C31.002 67.089 31.221 67.096 31.431 67.147C31.7277 67.2175 31.9945 67.3801 32.1931 67.6115C32.3918 67.8428 32.5121 68.1311 32.537 68.435C32.5548 68.6615 32.5245 68.8891 32.448 69.103C32.3392 69.4018 32.1476 69.6635 31.8956 69.8576C31.6437 70.0516 31.3417 70.17 31.025 70.199ZM116.132 73.672C116.132 73.672 112.592 89.594 115.616 107.337L106.745 116.269L103.772 112.919L108.231 82.408L112.221 75.21C112.221 75.21 113.934 73.744 116.132 73.672Z" fill="#D1D5DA"/>
  <path d="M106.744 116.269C106.744 93.579 110.944 73.671 116.131 73.671H114.255C107.756 74.899 100.178 93.659 103.146 116.269H106.744Z" fill="#E1E4E8"/>
  <path d="M158.37 45.456L161.352 46.136C160.838 51.666 158.514 57.101 163.377 55.673L163.678 56.697C157.53 58.501 157.782 51.594 158.37 45.455" fill="#D1D5DA"/>
  <path d="M167.127 36.453C164.816 35.921 164.206 35.197 164.287 33.088L164.763 33.107C164.691 34.971 165.153 35.51 167.234 35.988L167.127 36.453Z" fill="#B6BFC4"/>
  <path d="M27.74 88.726L27.792 87.662C34.626 87.99 38.36 88.13 38.077 81.03L40.35 81.478C40.684 89.843 32.365 88.95 27.74 88.726ZM37.277 62.816V72.724H36.33V62.804C36.703 62.599 37.277 62.816 37.277 62.816Z" fill="#D1D5DA"/>
  <path fill-rule="evenodd" clip-rule="evenodd" d="M153.75 42.641V32.734H154.697V42.641H153.75ZM166.607 39.498L166.829 30.678L167.774 30.701L167.552 39.521L166.607 39.498Z" fill="#B6BFC4"/>
  <path fill-rule="evenodd" clip-rule="evenodd" d="M43.024 87.699H53.352V89.498H43.024V87.699ZM162.976 66.792H168.32V68.591H162.976V66.792ZM53.314 95.914H56.138V97.713H53.314V95.914ZM170.681 49.806H173.01V52.153H170.681V49.806Z" fill="#D1D5DA"/>
  <path d="M34.647 72.699C34.469 69.26 34.294 65.827 34.315 62.397L33.368 62.392C33.359 63.772 33.382 65.148 33.426 66.525C33.365 67.388 33.207 68.098 32.833 68.396C32.626 68.562 32.339 68.594 31.956 68.496L31.779 69.185C31.982 69.236 32.171 69.262 32.351 69.262C32.707 69.262 33.018 69.159 33.277 68.954C33.361 68.884 33.435 68.804 33.505 68.718C33.561 70.062 33.629 71.406 33.699 72.748L34.647 72.699Z" fill="#D1D5DA"/>
  <path fill-rule="evenodd" clip-rule="evenodd" d="M83.616 109.976H85.66V111.044H83.616V109.976Z" fill="#B3B3B3"/>
  <path d="M152.621 110.895V111.044H154.665V109.976H152.621" fill="#B3B3B3"/>
  <path fill-rule="evenodd" clip-rule="evenodd" d="M83.616 108.906H85.66V109.975H83.616V108.906ZM152.622 108.906H154.666V109.975H152.622V108.906Z" fill="#E6E6E6"/>
  <path d="M154.665 130.909V128.62H161.332L161.313 130.909H154.665ZM147.352 125.27L135.819 119.982H152.621V125.27H147.352ZM85.659 125.27V119.982H102.462L90.928 125.27H85.659ZM83.615 130.909H76.968L76.949 128.62H83.615V130.909ZM167.223 127.514V130.909H162.228L162.008 117.357H161.425L161.36 125.27H154.665V119.982H156.252V117.357L154.665 117.388V110.894H152.621V117.427L119.14 118.057L85.659 117.427V110.894H83.615V117.388L82.031 117.357V119.982H83.615V125.27H76.921L76.856 117.357H76.272L76.053 130.909H71.057V127.514H69.664V138.814H71.057V132.584H76.025L75.918 138.814H77.033L76.982 132.584H83.615V138.814H85.659V128.62H90.928V128.452L106.72 120.78L108.684 140.814H111.923L108.876 119.982H129.404L126.357 140.814H129.596L131.563 120.78L147.352 128.452V128.62H152.621V138.814H154.665V132.584H161.299L161.25 138.814H162.363L162.256 132.584H167.223V138.814H168.616V127.514H167.223Z" fill="#EDF0F2"/>
  <path fill-rule="evenodd" clip-rule="evenodd" d="M166.325 54.608L167.432 54.258L167.85 55.585L166.744 55.935L166.325 54.608Z" fill="#D1D5DA"/>
  <path d="M39.41 71.977H29.024C31 76.109 35.744 84.033 44.044 84.054C46.0151 84.0515 47.9577 83.5838 49.714 82.689C45.156 80.122 41.318 76.482 39.41 71.977Z" fill="#D1D5DA"/>
  <path d="M49.712 82.689C54.584 80.236 57.594 75.054 59.066 71.976H39.408C41.319 76.482 45.157 80.122 49.712 82.689Z" fill="#E1E4E8"/>
  <path d="M23.131 73.754C24.109 73.493 25.007 73.39 25.922 73.285C26.8238 73.1875 27.7277 73.1105 28.633 73.054C30.434 72.937 32.231 72.872 34.025 72.827C37.6084 72.7445 41.1929 72.7245 44.777 72.767C48.359 72.807 51.938 72.886 55.518 73.021C57.307 73.087 59.099 73.168 60.891 73.273C62.688 73.383 64.468 73.493 66.305 73.731L66.046 75.583C64.34 75.359 62.55 75.249 60.782 75.14C59.0049 75.037 57.2268 74.953 55.448 74.888C51.8862 74.757 48.3229 74.673 44.759 74.636C41.1966 74.5943 37.6337 74.6146 34.072 74.697C32.296 74.741 30.521 74.806 28.754 74.921C27.875 74.981 26.993 75.044 26.127 75.142C25.271 75.24 24.386 75.352 23.637 75.555L23.131 73.754ZM25.395 77.413L41.539 77.196L45.576 77.143L47.594 77.117L49.613 77.129L57.686 77.189L57.679 77.724L49.61 77.663L47.594 77.651L45.578 77.677L41.544 77.731L25.406 77.948L25.395 77.413Z" fill="#B6BFC4"/>
  <path d="M172.655 37.874H150.038C151.522 40.804 155.097 46.425 161.345 46.439C162.769 46.4381 164.176 46.1311 165.471 45.539C169.223 43.828 171.533 40.085 172.655 37.874Z" fill="#A3A3A3"/>
  <path d="M164.502 44.978C161.924 43.403 159.27 40.827 157.772 37.873H150.038C151.524 40.803 155.096 46.425 161.345 46.439C162.769 46.441 164.176 46.1339 165.47 45.539C165.143 45.359 164.82 45.172 164.502 44.979" fill="#EDF0F2"/>
  <path d="M164.501 44.978C164.823 45.174 165.145 45.361 165.47 45.538C169.222 43.828 171.534 40.085 172.654 37.873H157.772C159.27 40.827 161.923 43.403 164.501 44.978Z" fill="#D1D5DA"/>
  <path d="M146.056 40.054C150.083 39.972 154.124 39.918 158.17 39.918C163.952 39.918 169.736 40.026 175.486 40.318" stroke="#B6BFC4" stroke-width="0.535" stroke-miterlimit="10"/>
  <path d="M149.531 41.976L172.136 43.098" stroke="#B6BFC4" stroke-width="1.341" stroke-miterlimit="10"/>
  <path d="M43.262 13.458C42.4665 13.6567 41.637 13.6767 40.8329 13.5165C40.0288 13.3563 39.2702 13.02 38.6115 12.5317C37.9529 12.0434 37.4107 11.4152 37.0238 10.6923C36.6369 9.96948 36.415 9.16987 36.374 8.35101C36.3022 6.8813 36.8167 5.44318 37.8044 4.3525C38.7921 3.26182 40.1724 2.60778 41.642 2.53401C43.0198 2.46266 44.3747 2.90728 45.4422 3.7811C46.5098 4.65491 47.2135 5.8952 47.4159 7.25988C47.6183 8.62456 47.3048 10.0157 46.5368 11.1617C45.7687 12.3078 44.6012 13.1264 43.262 13.458Z" fill="#FAFBFC"/>
  <path d="M125.837 23.224C127.713 25.676 128.033 27.814 128.033 27.814H129.827C129.195 26.204 128.448 24.701 127.526 23.277L125.837 23.224ZM128.314 23.304C129.154 24.776 129.961 26.267 130.645 27.814H132.332C131.894 26.3198 131.401 24.8422 130.855 23.384L128.314 23.304ZM135.07 27.814C134.032 24.294 132.921 23.451 132.921 23.451L131.344 23.4C131.953 24.89 132.718 26.342 133.378 27.814H135.07Z" fill="#B6BFC4"/>
  <path d="M135.768 32.226H133.208L132.9 31.306H135.525L135.768 32.226Z" fill="#959DA5"/>
  <path fill-rule="evenodd" clip-rule="evenodd" d="M130.63 36.604H132.902V37.376H130.63V36.604Z" fill="#959DA5"/>
  <path fill-rule="evenodd" clip-rule="evenodd" d="M133.614 36.588H136.589V37.36H133.614V36.588ZM138.768 38.907H141.744V39.679H138.768V38.907ZM111.331 51.348H114.532V52.592H111.331V51.348Z" fill="#B6BFC4"/>
  <path fill-rule="evenodd" clip-rule="evenodd" d="M109.73 52.592L104.866 52.614L104.86 51.37L109.725 51.349L109.73 52.592Z" fill="#D1D5DA"/>
  <path fill-rule="evenodd" clip-rule="evenodd" d="M130.345 76.667H133.885V77.909H130.345V76.667Z" fill="#B6BFC4"/>
  <path fill-rule="evenodd" clip-rule="evenodd" d="M135.652 76.666L141.035 76.646L141.04 77.887L135.657 77.908L135.652 76.666Z" fill="#E1E4E8"/>
  <path d="M46.317 7.34999C46.3838 7.95878 46.329 8.57478 46.1558 9.16222C45.9826 9.74966 45.6944 10.2968 45.308 10.772C44.7261 11.4875 43.9439 12.0132 43.0616 12.2818C42.1793 12.5505 41.2369 12.5498 40.355 12.28C39.5562 12.0346 38.8388 11.5777 38.2787 10.9576C37.7185 10.3375 37.3367 9.57736 37.1736 8.75783C37.0105 7.93829 37.0722 7.0899 37.3522 6.3026C37.6322 5.51531 38.1201 4.81846 38.764 4.28597C39.408 3.75347 40.1841 3.40518 41.0099 3.27802C41.8358 3.15086 42.6807 3.24957 43.455 3.56369C44.2293 3.8778 44.9042 4.39562 45.4081 5.06222C45.912 5.72882 46.226 6.51935 46.317 7.34999ZM109.505 130.904L109.356 130.265L130.344 121.158L130.496 121.8L109.505 130.904ZM108.597 128.883L108.324 127.593L130.925 118.705L131.203 119.991L108.597 128.883Z" fill="#EDF0F2"/>
  <path d="M145.334 189.261L145.43 195.061L164.794 201.655L181.262 195.061L183.19 178.224L165.232 183.241L145.334 189.261Z" fill="#B6BFC4"/>
  <path d="M183.188 178.223L163.649 172.679L158.992 174.275C164.503 177.362 170.546 179.114 175.88 180.265L183.188 178.223ZM153.593 176.127L145.163 179.015L145.333 189.261L165.232 183.241L167.316 182.66C160.206 180.698 155.341 179.207 153.593 176.127Z" fill="#E1E4E8"/>
  <path d="M158.992 174.274L153.595 176.127C155.343 179.207 160.208 180.698 167.315 182.66L175.881 180.264C170.547 179.114 164.503 177.361 158.992 174.274Z" fill="#B6BFC4"/>
  <path d="M64.013 190.84L66.553 201.666L84.627 204.377L98.707 194.501L102.905 174.149L83.725 183.025L64.013 190.839V190.84Z" fill="#959DA5"/>
  <path d="M87.525 172.754L82.597 172.409L73.175 175.563C73.378 176.341 73.693 176.982 74.295 177.344C77.403 179.32 80.574 181.103 83.511 183.109L83.726 183.025L98.006 176.415C96.0669 175.795 94.0945 175.285 92.098 174.887C90.451 174.474 88.941 173.718 87.525 172.754Z" fill="#B6BFC4"/>
  <path d="M87.524 172.754C88.941 173.718 90.45 174.474 92.098 174.887C94.094 175.285 96.067 175.795 98.006 176.415L103.494 173.874L87.524 172.754ZM73.175 175.564L61.358 179.523L64.014 190.84L83.511 183.11C80.574 181.103 77.402 179.32 74.292 177.344C73.692 176.982 73.375 176.34 73.174 175.564" fill="#E1E4E8"/>
  <path d="M61.358 179.524L65.04 195.209L83.751 199.024L83.725 183.026L61.358 179.524Z" fill="#B6BFC4"/>
  <path d="M145.206 181.623L145.334 189.26L164.176 194.503L165.233 183.24L145.206 181.623ZM94.378 168.313L94.17 173.769L95.21 173.808L95.96 173.435L95.794 168.355L94.378 168.313ZM76.066 168.999L74.661 178.589C74.661 178.589 81.561 180.577 84.018 179.525C86.473 178.473 88.579 176.135 88.579 176.135C88.579 176.135 87.294 169.935 86.006 168.414C84.72 166.895 76.066 168.999 76.066 168.999Z" fill="#959DA5"/>
  <path d="M73.506 171.092C74.528 171.938 75.851 172.386 77.185 172.599C78.527 172.814 79.908 172.802 81.271 172.666C83.978 172.358 86.722 171.614 89.004 170.151L89.302 170.592C86.89 172.132 84.111 172.876 81.325 173.196C79.925 173.338 78.504 173.352 77.101 173.126C75.706 172.9 74.294 172.438 73.163 171.502L73.506 171.092ZM72.858 174.288C74.057 175.212 75.585 175.651 77.111 175.833C78.644 176.01 80.212 175.954 81.752 175.74C84.816 175.287 87.903 174.354 90.435 172.597L90.75 173.028C88.087 174.869 84.963 175.798 81.825 176.269C80.25 176.486 78.642 176.549 77.046 176.365C75.464 176.174 73.845 175.719 72.529 174.711L72.858 174.288Z" fill="#6A737D"/>
  <path d="M161.433 156.405L165.314 178.431C165.314 178.431 160.826 180.422 159.23 179.369C157.632 178.317 156.262 175.979 156.262 175.979C156.262 175.979 154.132 157.34 154.968 155.821C155.805 154.3 161.433 156.405 161.433 156.405Z" fill="#959DA5"/>
  <path d="M153.973 170.58C155.769 172.472 158.28 173.639 160.889 173.739C163.497 173.868 166.106 173.095 168.4 171.838L168.657 172.304C166.295 173.602 163.598 174.406 160.861 174.271C158.129 174.171 155.466 172.934 153.588 170.951L153.973 170.58ZM153.954 167.504C154.878 168.297 155.914 168.953 157.051 169.364C158.185 169.776 159.403 169.938 160.627 169.994C161.876 170.04 163.082 170.084 164.281 169.826C165.495 169.613 166.692 169.3 167.947 169.107L168.022 169.636C166.82 169.818 165.609 170.136 164.375 170.353C163.133 170.619 161.834 170.577 160.604 170.528C159.351 170.47 158.075 170.302 156.869 169.865C155.66 169.431 154.568 168.734 153.607 167.91L153.954 167.504ZM153.134 163.264C155.068 164.192 157.143 164.876 159.219 164.832C161.326 164.818 163.193 163.882 165.193 162.806L165.785 164.003C164.826 164.484 163.826 165.062 162.722 165.468C161.614 165.897 160.44 166.133 159.252 166.166C156.86 166.218 154.597 165.448 152.546 164.465L153.134 163.264ZM151.642 159.839C156.504 160.895 161.568 160.571 166.449 159.635L166.549 160.163C161.626 161.105 156.486 161.439 151.527 160.361L151.642 159.839Z" fill="#6A737D"/>
  <path d="M97.717 150.886C96.924 151.066 96.25 151.598 95.949 152.275C95.926 152.324 95.907 152.375 95.89 152.426L95.097 152.615L95.225 153.705L95.61 154.451L96.285 154.379L96.348 154.503C96.576 154.944 97.01 155.275 97.566 155.408C97.938 155.497 98.327 155.497 98.7 155.408C99.484 155.231 100.151 154.715 100.457 154.048L101.054 154.199L101.803 152.865L101.418 152.118C101.418 152.118 100.716 152.109 100.23 152.107L100.069 151.796C99.841 151.353 99.409 151.024 98.851 150.886C98.4779 150.8 98.0901 150.8 97.717 150.886ZM99.071 152.673C99.092 152.685 99.11 152.695 99.129 152.709C99.1141 152.911 99.0376 153.104 98.91 153.261C98.7841 153.415 98.6252 153.539 98.445 153.623C98.081 153.796 97.664 153.796 97.349 153.623C97.328 153.614 97.307 153.6 97.288 153.588C97.3037 153.386 97.3812 153.194 97.51 153.037C97.629 152.883 97.79 152.76 97.972 152.673C98.338 152.501 98.753 152.501 99.071 152.673Z" fill="#959DA5"/>
  <path d="M98.908 153.26C98.789 153.41 98.628 153.536 98.444 153.622C98.08 153.794 97.662 153.794 97.347 153.622C97.1931 153.54 97.0673 153.414 96.986 153.26C96.834 152.959 96.888 152.59 97.123 152.292C97.245 152.14 97.403 152.014 97.588 151.928C97.952 151.755 98.369 151.755 98.684 151.928C98.8394 152.009 98.9659 152.136 99.046 152.292C99.198 152.59 99.146 152.959 98.908 153.26ZM101.419 152.119C101.419 152.119 100.675 152.108 100.189 152.105C100.026 151.51 99.531 151.053 98.852 150.885C98.4784 150.798 98.0897 150.798 97.716 150.885C96.923 151.067 96.248 151.596 95.947 152.273C95.9255 152.323 95.9062 152.375 95.889 152.427L95.098 152.616L95.224 153.704L95.905 153.634C96.113 154.138 96.575 154.516 97.179 154.665C97.553 154.751 97.942 154.751 98.316 154.665C99.1 154.485 99.767 153.967 100.073 153.302L100.668 153.452L101.419 152.119Z" fill="#B6BFC4"/>
  <path d="M93.787 165.741C93.278 166.105 92.963 166.695 92.959 167.285L92.961 167.416L92.459 167.787L92.884 168.557L93.383 168.998L93.841 168.744L93.922 168.816C94.221 169.077 94.627 169.194 95.063 169.131C95.343 169.091 95.623 168.977 95.868 168.8C96.368 168.438 96.683 167.857 96.697 167.276L97.163 167.213L97.287 166.004L96.788 165.566L95.941 165.904L95.731 165.722C95.5754 165.59 95.3929 165.493 95.1962 165.439C94.9995 165.385 94.7933 165.374 94.592 165.407C94.31 165.449 94.032 165.563 93.787 165.741ZM95.292 166.665L95.346 166.672C95.3954 166.826 95.3992 166.992 95.357 167.148C95.3186 167.298 95.2441 167.436 95.14 167.551C94.935 167.785 94.639 167.908 94.363 167.873C94.345 167.871 94.326 167.869 94.31 167.864C94.2593 167.712 94.2551 167.548 94.298 167.393C94.337 167.242 94.4114 167.103 94.515 166.987C94.6092 166.875 94.729 166.787 94.8642 166.731C94.9994 166.675 95.1462 166.652 95.292 166.665Z" fill="#959DA5"/>
  <path d="M95.357 167.147C95.3178 167.298 95.2434 167.437 95.14 167.553C94.935 167.783 94.638 167.907 94.363 167.875C94.2267 167.859 94.0988 167.801 93.997 167.709C93.796 167.531 93.722 167.245 93.796 166.953C93.8371 166.803 93.9112 166.664 94.013 166.547C94.221 166.313 94.515 166.192 94.79 166.225C94.93 166.241 95.058 166.299 95.159 166.391C95.357 166.568 95.434 166.855 95.357 167.147ZM96.788 165.565C96.788 165.565 96.258 165.777 95.912 165.919C95.614 165.525 95.124 165.331 94.592 165.408C94.3008 165.452 94.0246 165.565 93.787 165.739C93.278 166.106 92.963 166.696 92.958 167.287C92.958 167.329 92.961 167.373 92.963 167.415L92.459 167.786L92.884 168.556L93.344 168.304C93.647 168.614 94.088 168.761 94.564 168.691C94.844 168.651 95.122 168.537 95.366 168.36C95.868 167.998 96.183 167.419 96.195 166.836L96.664 166.773L96.788 165.565Z" fill="#B6BFC4"/>
  <path d="M99.068 154.375L98.706 154.431L99.609 175.044L100.276 174.628L99.068 154.375Z" fill="#959DA5"/>
  <path d="M97.45 154.628L97.693 174.96L99.608 175.044L98.708 154.432L97.45 154.628ZM67.267 161.504C67.267 161.504 68.917 156.912 74.37 156.411C79.823 155.912 85.633 155.193 89.004 155.55C92.376 155.912 93.167 161.075 91.874 164.951C90.584 168.824 89.938 170.616 78.89 171.118C67.841 171.622 64.899 171.048 65.044 167.604C65.118 165.807 67.267 161.504 67.267 161.504Z" fill="#B6BFC4"/>
  <path d="M69.219 161.413C69.219 161.413 70.278 158.322 74.268 157.785C78.258 157.253 82.505 156.563 84.997 156.672C87.487 156.784 88.24 160.161 87.421 162.765C86.602 165.369 86.187 166.575 78.083 167.319C69.979 168.066 67.798 167.795 67.789 165.52C67.784 164.33 69.219 161.413 69.219 161.413Z" fill="#58A6FF"/>
  <path d="M78.01 166.522C83.318 166.034 84.998 165.356 85.75 164.506C86.16 164.044 86.359 163.472 86.658 162.523C86.7782 162.131 86.8599 161.727 86.902 161.319C87.092 159.496 86.496 158.031 85.58 157.616C85.385 157.528 85.1747 157.479 84.961 157.471C82.523 157.364 78.127 158.078 74.375 158.582C70.844 159.056 69.976 161.674 69.976 161.674L69.962 161.716C69.596 162.462 68.586 164.707 68.59 165.514C68.595 166.695 69.164 167.334 78.01 166.522Z" fill="#7EE787"/>
  <path d="M69.415 165.748C69.595 165.981 70.841 166.378 77.936 165.724C83.312 165.23 84.642 164.548 85.151 163.974C85.1644 163.961 85.1767 163.947 85.188 163.932C85.445 163.622 85.597 163.22 85.893 162.285C85.968 162.04 86.091 161.361 86.105 161.235C86.283 159.518 85.676 158.54 85.249 158.344C85.1462 158.301 85.0364 158.277 84.925 158.274C82.549 158.169 78.051 158.897 74.481 159.378C71.403 159.788 70.738 161.923 70.738 161.923C70.696 162.047 70.766 161.888 70.297 162.896C69.833 163.946 69.389 165.129 69.392 165.512C69.392 165.701 69.415 165.745 69.415 165.748Z" fill="#BFF3BA"/>
  <path d="M73.337 165.727L71.371 165.899L71.807 163.011L75.741 162.663L75.307 165.554L73.337 165.727Z" fill="#0366D6"/>
  <path d="M79.243 165.207L77.274 165.38L77.71 162.489L79.68 162.316L79.243 165.207Z" fill="#34D058"/>
  <path d="M77.709 162.489L78.255 158.859L80.224 158.686L79.678 162.316L77.709 162.489Z" fill="#E1E4E8"/>
  <path d="M83.178 164.861L81.211 165.034L81.453 163.428L83.421 163.256L83.178 164.861Z" fill="#FFDF5D"/>
  <path d="M83.419 163.255L81.452 163.428L82.192 158.514L84.159 158.341L83.419 163.255Z" fill="#FB8532"/>
  <path d="M173.523 145.866C173.523 145.866 171.927 141.61 166.661 142.212C161.392 142.812 155.778 143.274 152.519 144.315C149.261 145.355 148.498 150.68 149.747 154.292C150.995 157.906 151.618 159.567 162.295 157.834C172.97 156.1 175.81 154.929 175.672 151.515C175.6 149.73 173.523 145.866 173.523 145.866Z" fill="#B6BFC4"/>
  <path d="M153.29 148.662C153.29 148.662 152.142 145.279 156.074 144.616C160.008 143.951 164.103 143.116 166.887 143.184C169.673 143.256 172.998 146.914 174.043 149.766C175.088 152.612 175.534 153.936 167.295 154.911C159.056 155.884 156.49 155.636 154.788 153.161C153.9 151.866 153.29 148.662 153.29 148.662Z" fill="#58A6FF"/>
  <path d="M156.449 153.757C157.937 154.816 160.535 154.9 167.201 154.114C172.292 153.512 173.505 152.796 173.741 152.243C173.902 151.87 173.762 151.324 173.291 150.04C172.957 149.137 172.357 148.106 171.59 147.147C170.129 145.324 168.297 144.022 166.867 143.987C164.191 143.92 160.201 144.734 156.208 145.406C155.039 145.604 154.507 146.048 154.248 146.44C153.919 146.939 153.901 147.544 153.964 147.998C154.001 148.269 154.05 148.407 154.05 148.407C154.069 148.465 154.064 148.442 154.076 148.514C154.274 149.555 154.839 151.818 155.448 152.705C155.753 153.15 156.078 153.494 156.449 153.757Z" fill="#7EE787"/>
  <path d="M156.912 153.103C158.097 153.943 160.325 154.12 167.106 153.318C171.878 152.756 172.86 152.104 173.002 151.925C173.016 151.815 172.967 151.488 172.538 150.317C172.242 149.51 171.691 148.556 170.963 147.648C169.535 145.863 167.904 144.813 166.847 144.789C164.229 144.722 160.118 145.562 156.342 146.196C155.341 146.364 155.026 146.714 154.917 146.882C154.742 147.146 154.709 147.519 154.758 147.89C154.788 148.105 154.805 148.138 154.805 148.138C154.884 148.36 154.872 148.502 155.099 149.416C155.376 150.534 155.764 151.75 156.109 152.252C156.375 152.636 156.634 152.905 156.912 153.103ZM173.012 151.913V151.911C173.014 151.906 173.016 151.899 173.012 151.913Z" fill="#BFF3BA"/>
  <path d="M151.65 171.203C150.726 170.589 150.114 172.738 149.501 172.127C149.41 172.003 149.322 171.877 149.237 171.749C149.186 174.896 149.118 178.119 149.118 178.119C149.148 178.59 149.914 178.923 150.828 178.865C151.746 178.809 152.464 178.382 152.434 177.913C152.429 177.829 152.303 174.644 152.186 171.739C152.027 171.542 151.847 171.362 151.65 171.203Z" fill="#B6BFC4"/>
  <path d="M158.873 162.879C158.381 161.726 149.164 163.292 149.278 165.991C149.306 166.663 149.278 169.181 149.236 171.75C149.32 171.876 149.407 172 149.5 172.126C150.113 172.739 150.727 170.591 151.649 171.202C151.847 171.363 152.025 171.545 152.188 171.741L152.003 167.035C153.73 164.689 160.277 166.153 158.873 162.879Z" fill="#E1E4E8"/>
  <path d="M214.518 112.19C211.037 111.338 207.308 110.93 203.565 110.93C203.421 110.93 203.278 110.93 203.136 110.932L214.518 112.19ZM188.988 114.934C184.851 117.874 182.667 122.099 182.123 126.458C181.428 132.025 182.454 139.938 180.791 142.931C178.131 146.424 179.461 150.083 189.277 155.242C199.094 160.398 216.488 159.486 221.888 154.745C228.12 149.268 233.018 140.796 233.018 132.41C233.018 127.468 231.448 123.457 228.811 120.298L188.988 114.934ZM37.66 108.482C41.108 108.622 44.66 109.213 48.122 110.172C48.572 110.296 49.009 110.426 49.436 110.559L37.66 108.482ZM62.562 119.992C64.601 123.434 65.182 127.246 64.655 130.849C63.845 136.398 60.747 143.75 61.554 147.08C63.189 151.156 60.931 154.332 50.095 156.688C39.261 159.045 24.969 155.844 16.649 147.257C10.876 141.295 11.781 131.115 14.015 123.032C15.279 118.45 17.717 115.085 20.912 112.749L62.562 119.992ZM174.325 141.525C177.862 141.152 182.249 140.888 185.067 143.639L174.325 141.525ZM173.979 145.725C177.67 145.641 181.301 144.894 184.933 146.262L173.979 145.725ZM224.703 146.748C227.475 146.748 230.875 146.158 233.507 147.546L224.703 146.748ZM222.21 150.977C225.503 150.977 229.829 150.396 232.608 152.823L222.21 150.977ZM60.293 145.797C63.518 146.138 67.545 145.847 70.429 147.849L60.293 145.797ZM59.312 148.172C62.457 149.145 66.76 149.869 68.699 153.007L59.312 148.172ZM9.61803 136.918C10.508 136.859 11.437 136.803 12.384 136.764L9.61803 136.918ZM9.10803 140.769C10.422 140.75 11.731 140.696 13.035 140.64L9.10803 140.769Z" stroke="#0366D6" stroke-width="1.099" stroke-miterlimit="10"/>
  <path d="M38.226 157.118C32.341 161.932 29.219 170.432 29.219 175.971C29.219 186.653 30.859 194.538 31.151 203.057" stroke="#0366D6" stroke-width="1.099" stroke-miterlimit="10"/>
  <path d="M36.916 160.611C34.767 166.375 33.11 168.351 33.11 174.744C33.11 183.487 36.148 196.344 38.414 204.583" stroke="#0366D6" stroke-width="1.099" stroke-miterlimit="10"/>
  <path d="M51.259 208.299C52.706 208.847 54.174 209.339 55.686 209.65C57.195 209.963 58.73 210.149 60.266 210.145C61.799 210.128 63.336 209.981 64.818 209.603C66.281 209.216 67.746 208.658 68.922 207.788V207.785C69.221 207.578 69.499 207.323 69.674 207.088C69.886 206.754 69.856 206.915 69.758 206.745C69.394 206.43 68.554 206.255 67.872 206.253L67.875 205.163C68.318 205.168 68.752 205.214 69.188 205.322C69.62 205.434 70.064 205.564 70.507 205.952C70.719 206.138 70.948 206.509 70.913 206.894C70.883 207.069 70.836 207.24 70.773 207.405L70.558 207.727C70.281 208.086 69.9497 208.401 69.576 208.658V208.661C68.206 209.669 66.657 210.238 65.086 210.66C63.507 211.062 61.883 211.218 60.268 211.237C58.649 211.239 57.039 211.045 55.459 210.716C53.88 210.389 52.351 209.883 50.851 209.309L51.259 208.299Z" fill="#0366D6"/>
  <path d="M192.167 209.506C189.395 210.757 183.396 211.529 180.694 211.529C177.134 211.529 173.652 210.416 170.311 208.116C170.518 206.629 173.402 207.068 173.402 207.068M33.85 208.075C32.786 208.25 30.908 208.565 28.474 208.652C25.812 208.747 23.42 207.938 20.935 206.239C20.935 206.239 19.885 204.907 22.937 204.963L33.85 208.075ZM204.818 162.473C201.741 170.486 192.269 196.101 192.269 210.201C192.269 212.201 192.447 213.816 192.82 215.176C196.047 217.624 200.907 218.475 205.623 218.475C209.427 218.475 213.132 217.922 215.803 217.206C216.471 217.026 217.696 216.016 217.696 215.202C217.696 214.404 216.48 214.152 215.708 214.152C212.873 214.152 209.214 218.034 206.559 218.265L204.818 162.473Z" stroke="#0366D6" stroke-width="1.099" stroke-miterlimit="10"/>
  <path d="M41.146 168.888C42.252 175.962 44.259 182.918 46.228 189.846C48.221 196.782 50.386 203.668 52.159 210.698L52.225 210.96L52.052 211.172L50.043 213.641L50.027 213.657L50.013 213.674C48.687 215.041 47.262 216.352 45.596 217.376C43.944 218.41 42.009 219.08 40.038 219.19C36.113 219.346 32.357 218.221 28.871 216.712H28.868C28.063 216.429 27.368 215.452 27.487 214.532C27.545 213.632 28.047 212.871 28.723 212.364C29.0673 212.114 29.46 211.938 29.876 211.848C30.2919 211.759 30.7221 211.756 31.139 211.842C31.955 212.005 32.634 212.418 33.231 212.859C34.419 213.76 35.339 214.833 36.321 215.806C37.289 216.774 38.311 217.703 39.473 218.156L39.097 219.178C37.632 218.599 36.552 217.568 35.551 216.574C34.547 215.582 33.626 214.523 32.578 213.732C31.563 212.924 30.277 212.535 29.365 213.246C28.427 213.902 28.233 215.36 29.307 215.713H29.309C32.685 217.183 36.344 218.249 39.97 218.1C41.762 218 43.489 217.404 45.027 216.45C46.569 215.498 47.941 214.248 49.227 212.92L49.196 212.952L51.207 210.484L51.1 210.958C49.343 203.986 47.175 197.093 45.181 190.149C43.207 183.202 41.193 176.242 40.068 169.042L41.146 168.888Z" fill="#0366D6"/>
  <path d="M207.801 161.27C208.995 169.11 208.185 177.389 207.135 185.387C206.333 191.498 204.769 197.938 204.769 204.233C204.769 204.789 204.783 205.344 204.809 205.897M198.367 169.589C193.471 179.643 189.822 189.84 186.509 200.508L198.367 169.589Z" stroke="#0366D6" stroke-width="1.099" stroke-miterlimit="10"/>
  <path d="M29.26 178.918C24.107 181.886 14.305 185.629 15.64 177.1C16.939 168.777 29.679 161.082 37.517 157.085M214.796 214.428C214.502 207.456 207.824 205.653 201.792 205.653C200.747 205.653 199.694 205.734 198.658 205.891L214.796 214.428ZM205.586 158.884C197.438 158.884 193.219 167.055 189.917 167.055C182.469 167.055 181.909 154.241 166.862 154.241C160.3 154.241 155.104 157.216 152.199 163.156C153.515 162.718 157.486 162.277 158.429 162.277C176.538 162.277 180.796 176.79 187.964 176.79C192.696 176.79 202.914 164.825 205.604 161.551L205.586 158.884ZM209.505 158.713C210.898 162.248 213.066 163.832 212.664 176.687C212.33 187.336 211.6 199.81 212.368 205.023L209.505 158.713ZM213.376 209.953C216.125 208.952 218.442 206.89 219.763 203.956L213.376 209.953ZM212.212 198.487C215.516 198.898 217.56 200.946 217.023 204.12L212.212 198.487ZM216.564 202.048C219.423 201.243 221.483 201.374 219.04 205.364L216.564 202.048ZM186.95 200.811C176.892 199.362 173.62 201.903 172.766 208.061L186.95 200.811Z" stroke="#0366D6" stroke-width="1.099" stroke-miterlimit="10"/>
  <path d="M29.941 171.353C27.187 172.888 22.682 173.938 26.609 168.968C28.5552 166.5 30.8338 164.313 33.38 162.47" stroke="#0366D6" stroke-width="1.099" stroke-miterlimit="10"/>
  <path d="M28.013 173.169C28.1364 173.142 28.2639 173.142 28.3874 173.167C28.511 173.192 28.628 173.243 28.731 173.316C28.941 173.477 29.033 173.661 29.093 173.806C29.207 174.109 29.224 174.354 29.235 174.594C29.24 175.07 29.184 175.556 29.016 176.008C28.706 176.923 28.055 177.649 27.331 178.188C25.833 179.2 24.051 179.758 22.14 179.233C21.661 179.082 21.111 178.64 20.957 178.048C20.803 177.476 20.894 176.968 21.076 176.468C21.526 175.498 22.366 174.963 23.143 174.58C24.737 173.824 26.389 173.5 28.013 173.169ZM28.223 174.238C26.627 174.56 25.012 174.893 23.624 175.558C22.933 175.885 22.326 176.342 22.079 176.898C21.979 177.164 21.934 177.509 22.002 177.735C22.065 177.952 22.219 178.099 22.515 178.209C23.796 178.587 25.516 178.155 26.687 177.308C27.275 176.867 27.77 176.305 27.985 175.647C28.111 175.325 28.146 174.98 28.146 174.634C28.1447 174.489 28.1225 174.345 28.08 174.207C27.982 174.104 28.188 174.282 28.223 174.238ZM24.849 166.157C25.208 165.931 25.749 165.737 26.277 165.821C26.407 165.847 26.676 165.875 26.897 166.188C27.091 166.524 27.012 166.713 26.972 166.899C26.872 167.189 26.783 167.338 26.685 167.523C26.295 168.218 25.869 168.839 25.425 169.464C24.513 170.698 23.624 171.907 22.322 172.938C21.974 173.118 21.629 173.61 20.693 173.281C20.194 172.924 20.275 172.441 20.283 172.278C20.2971 172.052 20.3347 171.829 20.395 171.611C20.635 170.782 21.048 170.096 21.493 169.447C22.413 168.169 23.467 167.039 24.849 166.157ZM25.407 167.093C24.254 167.826 23.206 168.918 22.387 170.073C21.983 170.656 21.624 171.281 21.447 171.897C21.412 172.049 21.375 172.201 21.372 172.336C21.333 172.525 21.433 172.495 21.267 172.353C21.057 172.306 21.454 172.292 21.683 172.054C22.739 171.223 23.682 170.003 24.539 168.831C24.965 168.234 25.383 167.616 25.726 167C25.81 166.857 25.897 166.671 25.92 166.605C25.934 166.617 25.911 166.608 25.985 166.781C26.099 166.93 26.167 166.899 26.118 166.899C25.894 166.871 25.682 166.932 25.407 167.093ZM44.233 205.555C42.945 205.1 41.592 204.813 40.26 204.872C38.925 204.904 37.623 205.296 36.529 206.031C34.315 207.52 33.145 210.215 32.735 212.901L31.657 212.735C32.098 209.877 33.344 206.871 35.922 205.126C37.191 204.27 38.715 203.817 40.223 203.782C41.735 203.719 43.216 204.041 44.6 204.531L44.233 205.555ZM20.432 112.489C22.623 108.513 25.404 104.761 29.107 101.984C30.0441 101.289 31.0406 100.677 32.085 100.157C32.819 99.821 33.76 100.066 34.24 100.689C34.611 101.135 34.96 101.599 35.286 102.079C36.583 104 37.526 106.128 38.181 108.328L37.136 108.639C36.508 106.531 35.605 104.501 34.383 102.693C34.0773 102.242 33.7503 101.806 33.403 101.387C33.3022 101.255 33.1604 101.162 33 101.12C32.8396 101.079 32.6699 101.092 32.518 101.158C31.5507 101.646 30.6266 102.216 29.756 102.861C26.237 105.495 23.523 109.135 21.391 113.011L20.432 112.489Z" fill="#0366D6"/>
  <path d="M47.972 111.714C47.972 111.714 54.283 106.714 61.631 106.742C61.972 106.742 62.277 106.942 62.408 107.255C63.031 108.746 64.564 113.464 62.506 120.172" stroke="#0366D6" stroke-width="1.099" stroke-miterlimit="10"/>
  <path d="M188.988 114.934C189.116 111.79 189.882 106.55 192.014 106.041C195.101 105.308 200.144 108.088 205.328 112.85M214.518 112.19C214.518 112.19 218.006 108.571 224.39 108.594C224.687 108.594 225.006 108.779 225.207 109.068C226.121 110.391 228.585 114.474 228.812 120.298L214.518 112.19Z" stroke="#0366D6" stroke-width="1.099" stroke-miterlimit="10" stroke-linecap="round"/>
  <path d="M76.471 156.781C76.173 155.838 75.631 155.096 74.771 154.751C73.931 154.399 72.859 154.333 71.887 154.407C69.91 154.592 68.118 155.735 66.755 157.255C65.372 158.771 64.324 160.609 63.487 162.521C62.661 164.439 62.026 166.459 61.667 168.508L60.591 168.326C60.971 166.165 61.625 164.087 62.488 162.085C63.361 160.094 64.453 158.165 65.953 156.519C67.418 154.881 69.462 153.535 71.784 153.325C72.927 153.243 74.057 153.29 75.202 153.747C76.371 154.197 77.193 155.355 77.507 156.44L76.471 156.781Z" fill="#0366D6"/>
  <path d="M69.11 169.582C64.467 168.355 59.992 170.602 52.21 166.33C44.324 161.402 46.013 160.835 40.539 157.337" stroke="#0366D6" stroke-width="1.099" stroke-miterlimit="10"/>
  <path d="M45.765 168.477C48.173 174.231 49.897 180.202 51.862 186.052C53.824 191.895 56.05 197.681 59.368 202.838L58.451 203.428C55.052 198.145 52.8 192.27 50.828 186.399C48.854 180.519 47.137 174.572 44.759 168.899L45.765 168.477ZM30.983 200.362C29.021 200.412 26.942 200.344 25.309 201.076C24.499 201.436 23.96 202.098 23.719 202.957C23.467 203.811 23.46 204.777 23.519 205.734L22.431 205.816C22.371 204.784 22.361 203.716 22.676 202.642C22.956 201.562 23.792 200.538 24.835 200.094C25.854 199.616 26.914 199.471 27.933 199.38C28.96 199.296 29.97 199.28 30.976 199.27L30.983 200.362Z" fill="#0366D6"/>
  <path d="M147.76 192.15L149.249 186.664L160.304 188.718L161.567 195.013L147.76 192.15Z" fill="black"/>
  <path d="M145.866 187.294C147.78 187.248 150.04 190.412 150.04 190.412C150.04 190.412 151.373 191.812 152.39 191.042C153.408 190.272 155.106 188.214 156.142 189.404C157.18 190.596 156.688 193.004 158.128 192.332C159.57 191.66 160.907 190.612 161.934 190.883" stroke="#376EE3" stroke-width="0.721" stroke-miterlimit="10"/>
  <path d="M92.91 192.681C93.47 192.718 94.056 191.81 94.226 190.618C94.404 189.4 94.084 188.346 93.51 188.262C93.4979 188.259 93.4855 188.257 93.473 188.257L91.18 188.112C90.62 188.075 90.036 188.982 89.861 190.175C89.686 191.393 90.006 192.448 90.578 192.532C90.592 192.534 90.606 192.536 90.62 192.536L92.91 192.681Z" fill="#A7322C"/>
  <path d="M94.228 190.619C94.051 191.837 93.444 192.759 92.87 192.677C92.299 192.595 91.979 191.541 92.154 190.32C92.331 189.102 92.94 188.181 93.512 188.262C94.083 188.344 94.405 189.401 94.228 190.619Z" fill="#DC4F28"/>
  <path d="M89.887 189.79C90.307 189.81 90.785 189.082 90.988 188.119C91.2 187.113 91.046 186.168 90.621 186.024C90.6108 186.019 90.6001 186.016 90.589 186.014L88.675 185.552C88.151 185.424 87.546 186.257 87.336 187.43C87.126 188.611 87.411 189.614 87.945 189.687C87.9582 189.689 87.9716 189.69 87.985 189.689L89.887 189.79Z" fill="#E28D4E"/>
  <path d="M90.988 188.119C90.78 189.106 90.281 189.846 89.854 189.785C89.408 189.722 89.2 188.809 89.413 187.736C89.628 186.642 90.178 185.869 90.622 186.024C91.044 186.168 91.2 187.111 90.988 188.119Z" fill="#F5C88A"/>
  <path d="M170.294 177.804C171.825 177.96 173.127 177.463 173.199 176.688C173.206 176.622 173.204 176.555 173.192 176.49C173.172 176.386 173.134 176.287 173.08 176.196L172.954 175.977L172.581 175.33L172.432 175.072C172.152 174.591 171.332 174.185 170.334 174.082C170.24 174.071 170.146 174.064 170.052 174.061C168.952 174.017 168.052 174.381 167.924 174.936L167.674 176.028C167.667 176.059 167.662 176.09 167.66 176.122C167.652 176.189 167.655 176.256 167.669 176.322C167.795 177.02 168.899 177.659 170.294 177.804Z" fill="#376EE3"/>
  <path d="M170.11 176.414C168.833 176.281 167.851 175.656 167.915 175.009C167.975 174.368 169.06 173.95 170.334 174.082C171.611 174.214 172.591 174.841 172.529 175.485C172.469 176.129 171.384 176.544 170.11 176.414Z" fill="#00CEFF"/>
  <path d="M168.337 145.579L165.996 145.906L163.719 146.223L165.637 149.849L170.518 149.278L168.337 145.579Z" fill="#FFFBDD"/>
  <path d="M169.225 151.682L171.778 151.416L170.518 149.278L165.636 149.85L166.744 151.94L169.225 151.682Z" fill="#0366D6"/>
  <path d="M161.496 146.534L159.333 146.837L159.861 147.948L162.061 147.656L161.496 146.534Z" fill="#6A737D"/>
  <path d="M161.986 152.438L164.334 152.193L163.298 150.123L161.016 150.389L161.986 152.438Z" fill="#34D058"/>
  <path d="M163.297 150.122L162.062 147.656L159.86 147.948L161.015 150.388L163.297 150.122Z" fill="#79B8FF"/>
  <path d="M157.482 152.907L159.703 152.674L159.194 151.538L157.008 151.782L157.482 152.907Z" fill="#FFDF5D"/>
  <path d="M155.17 147.418L155.63 148.51L157.718 148.235L157.226 147.131L155.17 147.418Z" fill="#FFEBDA"/>
  <path d="M157.007 151.782L159.194 151.539L157.719 148.233L155.63 148.51L157.007 151.782Z" fill="#FB8532"/>
  <path d="M57.12 200.679C61.212 200.852 67.092 202.324 67.484 205.166C67.932 208.416 67.82 206.958 67.82 206.958M75.981 155.241C79.899 152.527 79.026 157.837 77.395 161.291C77.395 161.291 72.283 178.56 65.817 179.017C53.259 179.904 47.914 172.722 40.372 162.831L75.981 155.241Z" stroke="#0366D6" stroke-width="1.099" stroke-miterlimit="10"/>
</svg>
