<svg width="48" height="48" viewBox="0 0 48 48" fill="none" xmlns="http://www.w3.org/2000/svg">
  <path d="M6.2 22V17.75L17.95 6H22.2L6.2 22ZM6 13.7V9.45L9.45 6H13.7L6 13.7ZM32.35 12.85C32.0167 12.4833 31.6667 12.125 31.3 11.775C30.9333 11.425 30.5333 11.1167 30.1 10.85L34.95 6H39.2L32.35 12.85ZM11 29.95L14.85 26.1C15.0833 26.4667 15.325 26.8 15.575 27.1C15.825 27.4 16.1 27.6833 16.4 27.95L15.45 28.2C14.6833 28.4333 13.9333 28.7 13.2 29C12.4667 29.3 11.7333 29.6167 11 29.95ZM34.9 18.85C34.8333 18.25 34.7333 17.6667 34.6 17.1C34.4667 16.5333 34.2667 15.9833 34 15.45L42 7.45V11.75L34.9 18.85ZM23.45 9L26.45 6H30.7L27.2 9.5C26.6667 9.33333 26.1417 9.20833 25.625 9.125C25.1083 9.04167 24.5667 9 24 9H23.45ZM6 30.75V26.5L13 19.5V20C13 20.5667 13.0333 21.1167 13.1 21.65C13.1667 22.1833 13.3 22.7 13.5 23.2L6 30.75ZM39.5 31.3C39.1 30.9333 38.6667 30.6333 38.2 30.4C37.7333 30.1667 37.2667 29.95 36.8 29.75L42 24.55V28.8L39.5 31.3ZM33.7 28.6C33.3333 28.5 32.975 28.3917 32.625 28.275C32.275 28.1583 31.9167 28.05 31.55 27.95C32.2167 27.3833 32.775 26.7333 33.225 26C33.675 25.2667 34.05 24.4833 34.35 23.65L42 16V20.3L33.7 28.6ZM24 28C21.8 28 19.9167 27.2167 18.35 25.65C16.7833 24.0833 16 22.2 16 20C16 17.8 16.7833 15.9167 18.35 14.35C19.9167 12.7833 21.8 12 24 12C26.2 12 28.0833 12.7833 29.65 14.35C31.2167 15.9167 32 17.8 32 20C32 22.2 31.2167 24.0833 29.65 25.65C28.0833 27.2167 26.2 28 24 28ZM24 25C25.4 25 26.5833 24.5167 27.55 23.55C28.5167 22.5833 29 21.4 29 20C29 18.6 28.5167 17.4167 27.55 16.45C26.5833 15.4833 25.4 15 24 15C22.6 15 21.4167 15.4833 20.45 16.45C19.4833 17.4167 19 18.6 19 20C19 21.4 19.4833 22.5833 20.45 23.55C21.4167 24.5167 22.6 25 24 25ZM8 42V38.45C8 37.3167 8.28333 36.2667 8.85 35.3C9.41667 34.3333 10.2 33.6 11.2 33.1C13.2 32.1 15.275 31.3333 17.425 30.8C19.575 30.2667 21.7667 30 24 30C26.2333 30 28.425 30.2667 30.575 30.8C32.725 31.3333 34.8 32.1 36.8 33.1C37.8 33.6 38.5833 34.3333 39.15 35.3C39.7167 36.2667 40 37.3167 40 38.45V42H8ZM11 39H37C37 38.3333 36.875 37.7083 36.625 37.125C36.375 36.5417 35.9667 36.1 35.4 35.8C33.6 34.9333 31.75 34.25 29.85 33.75C27.95 33.25 26 33 24 33C22 33 20.05 33.25 18.15 33.75C16.25 34.25 14.4 34.9333 12.6 35.8C12.0333 36.1 11.625 36.5417 11.375 37.125C11.125 37.7083 11 38.3333 11 39Z" fill="black"/>
</svg>
